<svg width="1458" height="282" xmlns="http://www.w3.org/2000/svg" xmlns:xlink="http://www.w3.org/1999/xlink"><defs><path id="a" d="M0 0h1568v392H0z"/><path id="c" d="M0 0h1568v392H0z"/><path id="e" d="M0 0h1568v392H0z"/><path id="g" d="M0 0h1568v392H0z"/><path id="i" d="M0 0h1568v392H0z"/><path id="k" d="M0 0h1568v392H0z"/><path id="m" d="M0 0h1568v392H0z"/><path id="o" d="M0 0h1568v392H0z"/><path id="q" d="M0 0h1568v392H0z"/><path id="s" d="M0 0h1568v392H0z"/><path id="u" d="M0 0h1568v392H0z"/><path id="w" d="M0 0h1568v392H0z"/><path id="y" d="M0 0h1568v392H0z"/><path id="A" d="M0 0h1568v392H0z"/><path id="C" d="M0 0h1568v392H0z"/><path id="E" d="M0 0h1568v392H0z"/><path id="G" d="M0 0h1568v392H0z"/><path id="I" d="M0 0h1568v392H0z"/><path id="K" d="M0 0h1568v392H0z"/><path id="M" d="M0 0h1568v392H0z"/><path id="O" d="M0 0h1568v392H0z"/><path id="Q" d="M0 0h1568v392H0z"/><path id="S" d="M0 0h1568v392H0z"/><path id="U" d="M0 0h1568v392H0z"/><path id="W" d="M0 0h1568v392H0z"/><path id="Y" d="M0 0h1568v392H0z"/><path id="aa" d="M0 0h1568v392H0z"/><path id="ac" d="M0 0h1568v392H0z"/><path id="ae" d="M0 0h1568v392H0z"/><path id="ag" d="M0 0h1568v392H0z"/><path id="ai" d="M0 0h1568v392H0z"/><path id="ak" d="M0 0h1568v392H0z"/><path id="am" d="M0 0h1568v392H0z"/><path id="ao" d="M0 0h1568v392H0z"/><path id="aq" d="M0 0h1568v392H0z"/><path id="as" d="M0 0h1568v392H0z"/><path id="au" d="M0 0h1568v392H0z"/><path id="aw" d="M0 0h1568v392H0z"/><path id="ay" d="M0 0h1568v392H0z"/><path id="aA" d="M0 0h1568v392H0z"/><path id="aC" d="M0 0h1568v392H0z"/><path id="aE" d="M0 0h1568v392H0z"/><path id="aG" d="M0 0h1568v392H0z"/><path id="aI" d="M0 0h1568v392H0z"/></defs><g fill="none" fill-rule="evenodd" opacity=".303"><g transform="translate(-34 -33)"><mask id="b" fill="#fff"><use xlink:href="#a"/></mask><g mask="url(#b)" fill="#228E58" fill-rule="nonzero"><path d="M1464.911 293.539c4.517-.53 7.877-1.61 8.018-1.657a.821.821 0 0 0 .528-1.035c-.046-.14-1.146-3.495-3.373-7.46a39.686 39.686 0 0 0-2.502-3.922c-.005-.009-.011-.016-.017-.024a31.357 31.357 0 0 0-1.737-2.18 25.03 25.03 0 0 0-2.297-2.312c-1.227-1.079-2.498-1.955-3.798-2.618a10.777 10.777 0 0 0-8.277-.652 10.768 10.768 0 0 0-5.914 4.674l-5.768-2.939a.822.822 0 0 0-.746 1.465l5.768 2.94a10.768 10.768 0 0 0-.305 7.53 10.778 10.778 0 0 0 5.392 6.314c1.3.663 2.757 1.175 4.35 1.534 1.061.236 2.137.403 3.22.5.935.083 1.874.124 2.813.123a39.725 39.725 0 0 0 4.645-.281zm3.724-9.376a46.9 46.9 0 0 1 2.975 6.395c-1.25.348-3.829.992-6.922 1.352-1.162.136-2.47.238-3.847.259l-2.405-7.401 6.023 3.069a.822.822 0 0 0 .747-1.465l-6.024-3.068 7.4-2.405a38.443 38.443 0 0 1 2.053 3.264zm-13.539 7.533l-3.36-10.342 4.629 2.358 2.741 8.437a25.748 25.748 0 0 1-4.01-.453zm10.452-12.19l-8.437 2.742-4.629-2.359 10.342-3.36a25.75 25.75 0 0 1 2.724 2.978v-.001zm-13.585-6.263a9.144 9.144 0 0 1 7.024.552c.825.421 1.61.924 2.354 1.488l-10.93 3.551-3.399-1.731a9.134 9.134 0 0 1 4.951-3.86zm-1.334 16.956a9.146 9.146 0 0 1-4.575-5.358 9.135 9.135 0 0 1 .212-6.274l3.399 1.732 3.551 10.93a15.74 15.74 0 0 1-2.587-1.03z"/></g></g><g transform="translate(-34 -33)"><mask id="d" fill="#fff"><use xlink:href="#c"/></mask><g mask="url(#d)" fill="#228E58" fill-rule="nonzero"><path d="M1402.832 161.588c-4.904 2.465-8.268 5.078-8.41 5.188a.99.99 0 0 0-.17 1.392c.11.141 2.742 3.49 6.904 7.069a47.896 47.896 0 0 0 4.457 3.415l.03.02a37.66 37.66 0 0 0 2.87 1.756 30.208 30.208 0 0 0 3.558 1.673c1.837.717 3.64 1.187 5.388 1.401 3.472.427 6.9-.524 9.657-2.677a12.996 12.996 0 0 0 4.777-7.742l7.755.952a.992.992 0 1 0 .242-1.969l-7.755-.952a12.996 12.996 0 0 0-2.763-8.667 13.008 13.008 0 0 0-8.721-4.935c-1.749-.215-3.612-.194-5.568.056-1.301.17-2.59.425-3.858.763a37.84 37.84 0 0 0-3.24 1.02 47.937 47.937 0 0 0-5.153 2.237zm-.353 12.17a56.603 56.603 0 0 1-6.013-6.024 56.595 56.595 0 0 1 7.292-4.391 46.396 46.396 0 0 1 4.257-1.881l5.782 7.4-8.099-.994a.992.992 0 0 0-.241 1.969l8.098.994-7.4 5.782a46.396 46.396 0 0 1-3.676-2.855zm12.246-14.132l8.08 10.342-6.224-.764-6.592-8.437a31.076 31.076 0 0 1 4.736-1.14v-.001zm-6.823 18.139l8.437-6.592 6.224.764-10.342 8.08a31.078 31.078 0 0 1-4.319-2.252zm17.992 1.497a11.036 11.036 0 0 1-8.193 2.272 19.047 19.047 0 0 1-3.284-.715l10.93-8.54 4.57.561a11.024 11.024 0 0 1-4.023 6.422zm-5.485-19.782a11.038 11.038 0 0 1 7.4 4.188 11.025 11.025 0 0 1 2.35 7.203l-4.57-.56-8.54-10.931a19.051 19.051 0 0 1 3.36.1z"/></g></g><g transform="translate(-34 -33)"><mask id="f" fill="#fff"><use xlink:href="#e"/></mask><g mask="url(#f)" fill="#228E58" fill-rule="nonzero"><path d="M1476.072 85.249c2.224-3.603 4.458-6.013 4.552-6.114a.764.764 0 0 1 1.081-.038c.101.095 2.498 2.343 4.968 5.782a36.949 36.949 0 0 1 2.325 3.654l.014.024c.432.782.818 1.558 1.156 2.324.41.925.76 1.876 1.047 2.847.427 1.46.667 2.877.714 4.235a10.034 10.034 0 0 1-2.707 7.241 10.025 10.025 0 0 1-6.27 3.15l.21 6.025a.765.765 0 1 1-1.53.053l-.21-6.024a10.025 10.025 0 0 1-6.475-2.705 10.034 10.034 0 0 1-3.206-7.035c-.047-1.358.094-2.788.418-4.274a23.3 23.3 0 0 1 .846-2.913 29.19 29.19 0 0 1 1.001-2.423 36.98 36.98 0 0 1 2.066-3.81v.001zm9.376.547a43.665 43.665 0 0 0-4.226-5.026 43.659 43.659 0 0 0-3.864 5.308 35.792 35.792 0 0 0-1.732 3.145l5.299 4.941-.22-6.29a.765.765 0 1 1 1.53-.053l.219 6.29 4.94-5.299a35.792 35.792 0 0 0-1.946-3.016zm-11.684 8.46l7.405 6.905-.169-4.834-6.04-5.633a23.973 23.973 0 0 0-1.196 3.562zm14.398-4.023l-5.632 6.04.168 4.835 6.905-7.405a23.975 23.975 0 0 0-1.44-3.47h-.001zm-.059 13.928a8.514 8.514 0 0 0 2.297-6.144 14.693 14.693 0 0 0-.329-2.572l-7.297 7.825.124 3.55a8.505 8.505 0 0 0 5.205-2.66v.001zm-14.833-5.546a8.515 8.515 0 0 0 2.72 5.968 8.505 8.505 0 0 0 5.379 2.29l-.124-3.549-7.826-7.298c-.123.86-.179 1.727-.149 2.589z"/></g></g><g transform="translate(-34 -33)"><mask id="h" fill="#fff"><use xlink:href="#g"/></mask><g mask="url(#h)" fill="#228E58" fill-rule="nonzero"><path d="M1385.716 272.1c.765-4.484 2.02-7.782 2.074-7.92a.821.821 0 0 1 1.061-.473c.139.053 3.43 1.327 7.274 3.758 1.37.866 2.634 1.77 3.785 2.704l.024.019a31.357 31.357 0 0 1 2.086 1.848 25.03 25.03 0 0 1 2.188 2.415c1.013 1.282 1.822 2.596 2.416 3.93a10.777 10.777 0 0 1 .217 8.3 10.768 10.768 0 0 1-4.977 5.66l2.633 5.915a.821.821 0 1 1-1.501.668l-2.634-5.914c-2.442.877-5.088.85-7.536-.09a10.778 10.778 0 0 1-6.023-5.714c-.594-1.334-1.03-2.815-1.304-4.425a25.026 25.026 0 0 1-.33-3.242 31.353 31.353 0 0 1 .023-2.815c.077-1.48.25-3.027.524-4.625v.001zm9.558-3.229a46.9 46.9 0 0 0-6.23-3.305 46.893 46.893 0 0 0-1.714 6.842 38.443 38.443 0 0 0-.459 3.828l7.265 2.79-2.75-6.177a.822.822 0 0 1 1.502-.668l2.75 6.176 2.788-7.265a38.443 38.443 0 0 0-3.152-2.22v-.001zm-8.232 13.127l10.153 3.897-2.113-4.746-8.282-3.18a25.748 25.748 0 0 0 .242 4.029zm12.72-9.8l-3.18 8.282 2.114 4.746 3.897-10.152a25.75 25.75 0 0 0-2.831-2.876zm5.545 13.894a9.144 9.144 0 0 0-.185-7.043 15.782 15.782 0 0 0-1.362-2.429l-4.119 10.73 1.552 3.485a9.134 9.134 0 0 0 4.114-4.743zm-17.003.445a9.146 9.146 0 0 0 5.11 4.85c2.013.78 4.237.82 6.278.116l-1.552-3.485-10.73-4.118c.224.905.517 1.79.894 2.637z"/></g></g><g transform="translate(-34 -33)"><mask id="j" fill="#fff"><use xlink:href="#i"/></mask><g mask="url(#j)" fill="#228E58" fill-rule="nonzero"><path d="M1296.503 254.253c-.335-5.792.279-10.254.305-10.44a1.048 1.048 0 0 1 1.185-.893c.187.026 4.644.666 10.12 2.585 1.87.65 3.701 1.41 5.483 2.275l.034.016c1.1.539 2.143 1.106 3.124 1.7a31.934 31.934 0 0 1 3.413 2.373c1.627 1.304 3.01 2.705 4.13 4.192a13.75 13.75 0 0 1 2.654 10.256 13.738 13.738 0 0 1-4.563 8.466l4.97 6.597a1.048 1.048 0 1 1-1.674 1.262l-4.971-6.597a13.738 13.738 0 0 1-9.395 2.052 13.751 13.751 0 0 1-9.128-5.376c-1.12-1.487-2.087-3.204-2.891-5.127a31.93 31.93 0 0 1-1.34-3.935 40.002 40.002 0 0 1-.78-3.506 50.676 50.676 0 0 1-.676-5.9zm10.956-6.756a59.837 59.837 0 0 0-8.694-2.32 59.829 59.829 0 0 0-.166 8.997c.087 1.49.25 3.155.528 4.89l9.832 1.383-5.191-6.889a1.049 1.049 0 0 1 1.675-1.262l5.19 6.889 1.382-9.832a49.048 49.048 0 0 0-4.556-1.856zm-6.466 18.681l13.74 1.931-3.99-5.294-11.208-1.575c.357 1.648.83 3.322 1.458 4.938zm13-15.833l-1.575 11.208 3.99 5.294 1.93-13.74a32.854 32.854 0 0 0-4.345-2.762zm10.88 15.68a11.667 11.667 0 0 0-2.25-8.701 20.135 20.135 0 0 0-2.39-2.63l-2.041 14.521 2.929 3.887a11.654 11.654 0 0 0 3.753-7.076l-.001-.001zm-21.008 5.434a11.668 11.668 0 0 0 7.745 4.562c2.757.387 5.502-.2 7.836-1.657l-2.928-3.887-14.521-2.04a20.14 20.14 0 0 0 1.868 3.022z"/></g></g><g transform="translate(-34 -33)"><mask id="l" fill="#fff"><use xlink:href="#k"/></mask><g mask="url(#l)" fill="#228E58" fill-rule="nonzero"><path d="M1256.184 202.245c4.109 2.599 7.628 3.961 7.775 4.018a.878.878 0 0 0 1.135-.505c.057-.148 1.399-3.675 2.217-8.467.292-1.707.478-3.36.56-4.941l.002-.032c.052-1.024.06-2.02.023-2.98a26.756 26.756 0 0 0-.353-3.465c-.294-1.721-.76-3.304-1.394-4.73a11.52 11.52 0 0 0-6.438-6.11 11.51 11.51 0 0 0-8.057-.094l-2.815-6.323a.878.878 0 1 0-1.604.715l2.814 6.322a11.51 11.51 0 0 0-5.32 6.051 11.521 11.521 0 0 0 .232 8.873c.635 1.425 1.5 2.83 2.583 4.2.723.91 1.504 1.772 2.339 2.58.72.7 1.472 1.365 2.253 1.997a42.458 42.458 0 0 0 4.048 2.891zm9.401-5.284a50.134 50.134 0 0 1-1.83 7.314 50.127 50.127 0 0 1-6.66-3.533 41.094 41.094 0 0 1-3.37-2.374l2.98-7.766 2.94 6.602a.879.879 0 0 0 1.605-.714l-2.94-6.602 7.766 2.981c-.1 1.47-.281 2.86-.49 4.092h-.001zm-16.315-2.85l4.166-10.852 2.259 5.073-3.399 8.854a27.524 27.524 0 0 1-3.026-3.075zm16.883-3.095l-8.853-3.398-2.259-5.074 10.852 4.166c.208 1.438.28 2.893.26 4.306zm-7.071-14.342a9.775 9.775 0 0 1 5.462 5.184c.403.905.717 1.85.956 2.819l-11.47-4.402-1.658-3.725a9.764 9.764 0 0 1 6.71.124zm-12.516 13.188a9.776 9.776 0 0 1-.197-7.528 9.765 9.765 0 0 1 4.398-5.07l1.658 3.725-4.403 11.47a16.874 16.874 0 0 1-1.456-2.597z"/></g></g><g transform="translate(-34 -33)"><mask id="n" fill="#fff"><use xlink:href="#m"/></mask><g mask="url(#n)" fill="#228E58" fill-rule="nonzero"><path d="M1270.787 109.06c-3.044-3.588-4.823-6.776-4.897-6.91a.85.85 0 0 1 .331-1.156c.134-.074 3.333-1.835 7.815-3.265 1.597-.51 3.155-.91 4.66-1.202l.03-.006c.975-.187 1.927-.33 2.853-.424a25.892 25.892 0 0 1 3.368-.128c1.69.05 3.27.283 4.72.699a11.149 11.149 0 0 1 6.723 5.347 11.14 11.14 0 0 1 1.176 7.708l6.438 1.846a.85.85 0 1 1-.469 1.634l-6.438-1.846a11.14 11.14 0 0 1-5.082 5.914 11.15 11.15 0 0 1-8.534.972c-1.452-.416-2.915-1.056-4.374-1.909-.97-.57-1.9-1.203-2.788-1.894a32.434 32.434 0 0 1-2.215-1.89 41.089 41.089 0 0 1-3.317-3.49zm3.798-9.721a48.516 48.516 0 0 0-6.763 2.74 48.51 48.51 0 0 0 4.283 5.906 39.695 39.695 0 0 0 2.729 2.91l7.04-3.903-6.722-1.927a.85.85 0 0 1 .469-1.635l6.722 1.928-3.903-7.04a39.768 39.768 0 0 0-3.855 1.021zm4.928 15.251l9.84-5.453-5.167-1.482-8.027 4.45a26.636 26.636 0 0 0 3.354 2.485zm.692-16.596l4.45 8.027 5.166 1.48-5.454-9.838a26.639 26.639 0 0 0-4.162.331zm14.698 4.845a9.46 9.46 0 0 0-5.704-4.537 16.326 16.326 0 0 0-2.83-.536l5.763 10.399 3.793 1.088a9.45 9.45 0 0 0-1.022-6.414zm-10.953 13.77a9.46 9.46 0 0 0 7.24-.825 9.45 9.45 0 0 0 4.267-4.897l-3.793-1.088-10.399 5.764c.862.427 1.76.777 2.685 1.046z"/></g></g><g transform="translate(-34 -33)"><mask id="p" fill="#fff"><use xlink:href="#o"/></mask><g mask="url(#p)" fill="#228E58" fill-rule="nonzero"><path d="M1190.39 291.096c.146-3.604-.284-6.37-.302-6.486a.651.651 0 0 0-.746-.542c-.116.018-2.88.464-6.262 1.716-1.205.446-2.336.94-3.383 1.473l-.02.011c-.678.347-1.32.71-1.924 1.09-.73.458-1.43.964-2.096 1.513a14.717 14.717 0 0 0-2.522 2.65 8.547 8.547 0 0 0-1.537 6.403 8.54 8.54 0 0 0 2.928 5.212l-3.018 4.154a.652.652 0 1 0 1.054.766l3.018-4.154a8.54 8.54 0 0 0 5.862 1.174 8.548 8.548 0 0 0 5.615-3.44c.68-.937 1.262-2.014 1.74-3.218.316-.802.58-1.624.79-2.46.182-.722.33-1.452.447-2.188.185-1.162.305-2.39.357-3.674h-.001zm-6.882-4.08a37.196 37.196 0 0 1 5.379-1.537 37.17 37.17 0 0 1 .2 5.59 30.49 30.49 0 0 1-.275 3.046l-6.096.965 3.152-4.338a.652.652 0 0 0-1.055-.766l-3.15 4.338-.966-6.096a30.49 30.49 0 0 1 2.811-1.203v.001zm4.221 11.54l-8.518 1.35 2.422-3.334 6.95-1.101c-.204 1.05-.49 2.08-.854 3.085zm-8.251-9.7l1.1 6.95-2.422 3.333-1.349-8.519a20.423 20.423 0 0 1 2.67-1.764h.001zm-6.593 9.864a7.253 7.253 0 0 1 1.305-5.433c.432-.594.923-1.147 1.457-1.66l1.426 9.003-1.778 2.448a7.245 7.245 0 0 1-2.41-4.358zm13.117 3.15a7.253 7.253 0 0 1-4.764 2.919 7.245 7.245 0 0 1-4.889-.945l1.778-2.448 9.003-1.425c-.32.665-.697 1.3-1.128 1.898v.001z"/></g></g><g transform="translate(-34 -33)"><mask id="r" fill="#fff"><use xlink:href="#q"/></mask><g mask="url(#r)" fill="#228E58" fill-rule="nonzero"><path d="M1189.922 238.084c-.162 5.486-1.108 9.64-1.149 9.814a.99.99 0 0 1-1.19.743c-.173-.04-4.321-1.01-9.323-3.27a47.896 47.896 0 0 1-4.979-2.596l-.03-.018a37.845 37.845 0 0 1-2.805-1.86 30.208 30.208 0 0 1-3.02-2.518c-1.426-1.362-2.614-2.797-3.547-4.29a13.007 13.007 0 0 1-1.655-9.884 12.996 12.996 0 0 1 4.998-7.601l-4.14-6.627a.991.991 0 0 1 1.682-1.05l4.14 6.626a12.996 12.996 0 0 1 9.023-1.16 13.008 13.008 0 0 1 8.158 5.819c.934 1.494 1.703 3.191 2.302 5.07.396 1.251.71 2.527.939 3.819a37.84 37.84 0 0 1 .445 3.368c.16 1.867.21 3.742.15 5.615h.001zm-10.881 5.463a56.603 56.603 0 0 0 8.001 2.904c.287-1.54.79-4.708.898-8.465.04-1.411.026-2.993-.094-4.652l-9.151-2.113 4.324 6.919a.992.992 0 0 1-1.683 1.051l-4.323-6.919-2.113 9.15a46.396 46.396 0 0 0 4.14 2.125h.001zm7.633-17.07l-12.789-2.953 3.323 5.318 10.432 2.408a31.076 31.076 0 0 0-.966-4.774v.001zm-13.556 13.848l2.408-10.432-3.323-5.317-2.952 12.787a31.078 31.078 0 0 0 3.867 2.962zm-8.96-15.674a11.036 11.036 0 0 0 1.403 8.386c.592.948 1.28 1.84 2.035 2.674l3.12-13.514-2.439-3.905a11.024 11.024 0 0 0-4.12 6.36l.001-.001zm20.245-3.388a11.038 11.038 0 0 0-6.922-4.937 11.025 11.025 0 0 0-7.522.915l2.44 3.904 13.515 3.12a19.051 19.051 0 0 0-1.51-3.002h-.001z"/></g></g><g transform="translate(-34 -33)"><mask id="t" fill="#fff"><use xlink:href="#s"/></mask><g mask="url(#t)" fill="#228E58" fill-rule="nonzero"><path d="M1113.084 146.54c-3.544.668-6.143 1.71-6.252 1.753a.651.651 0 0 0-.36.849c.044.109 1.1 2.701 3.081 5.715a31.475 31.475 0 0 0 2.197 2.965l.015.018c.49.582.989 1.126 1.495 1.629a19.85 19.85 0 0 0 1.945 1.702c1.03.785 2.084 1.408 3.15 1.86a8.547 8.547 0 0 0 6.584.058 8.54 8.54 0 0 0 4.42-4.025l4.727 2.006a.652.652 0 1 0 .509-1.2l-4.727-2.006a8.54 8.54 0 0 0-.174-5.975 8.548 8.548 0 0 0-4.616-4.697c-1.066-.453-2.246-.777-3.527-.973-.853-.128-1.713-.2-2.575-.217-.744-.014-1.49.005-2.232.058-1.173.081-2.397.24-3.66.48zm-2.428 7.623a37.196 37.196 0 0 1-2.707-4.895c.97-.344 2.975-.996 5.402-1.453a30.49 30.49 0 0 1 3.03-.417l2.312 5.722-4.936-2.095a.652.652 0 0 0-.51 1.2l4.936 2.095-5.722 2.312a30.49 30.49 0 0 1-1.805-2.469zm10.296-6.709l3.23 7.997-3.792-1.61-2.636-6.524a20.421 20.421 0 0 1 3.198.137zm-7.595 10.222l6.523-2.636 3.793 1.61-7.996 3.231a20.423 20.423 0 0 1-2.32-2.205zm11.094 4.205a7.253 7.253 0 0 1-5.587-.05c-.678-.29-1.329-.64-1.945-1.046l8.45-3.414 2.786 1.182a7.245 7.245 0 0 1-3.704 3.328zm.118-13.49a7.253 7.253 0 0 1 3.916 3.986 7.245 7.245 0 0 1 .18 4.976l-2.786-1.182-3.414-8.452c.72.162 1.424.387 2.104.673v-.001z"/></g></g><g transform="translate(-34 -33)"><mask id="v" fill="#fff"><use xlink:href="#u"/></mask><g mask="url(#v)" fill="#228E58" fill-rule="nonzero"><path d="M1146.864 73.232c3.11-4.331 6.129-7.162 6.256-7.28a.963.963 0 0 1 1.362.047c.118.127 2.932 3.162 5.733 7.699a46.528 46.528 0 0 1 2.599 4.795l.015.031c.474 1.02.89 2.03 1.248 3.02a29.44 29.44 0 0 1 1.065 3.67c.408 1.871.585 3.672.526 5.382a12.635 12.635 0 0 1-4.037 8.858 12.624 12.624 0 0 1-8.154 3.407l-.265 7.586a.964.964 0 1 1-1.926-.067l.265-7.586a12.624 12.624 0 0 1-7.896-3.967 12.636 12.636 0 0 1-3.41-9.118c.06-1.71.363-3.495.9-5.334a29.34 29.34 0 0 1 1.318-3.585 36.759 36.759 0 0 1 1.472-2.954 46.344 46.344 0 0 1 2.93-4.604h-.001zm11.73 1.51a54.985 54.985 0 0 0-4.866-6.685 54.978 54.978 0 0 0-5.321 6.33 45.07 45.07 0 0 0-2.451 3.798l6.222 6.672.276-7.92a.964.964 0 0 1 1.926.066l-.277 7.921 6.672-6.222a45.07 45.07 0 0 0-2.18-3.96h-.001zm-15.42 9.602l8.696 9.324.212-6.087-7.093-7.607a30.188 30.188 0 0 0-1.814 4.37h-.001zm18.44-3.79l-7.606 7.094-.212 6.087 9.324-8.694a30.19 30.19 0 0 0-1.505-4.486l-.001-.001zm-1.297 17.491a10.721 10.721 0 0 0 3.425-7.516 18.502 18.502 0 0 0-.187-3.26l-9.854 9.19-.157 4.47a10.71 10.71 0 0 0 6.773-2.884zm-18.146-8.27a10.72 10.72 0 0 0 2.893 7.737 10.71 10.71 0 0 0 6.555 3.35l.156-4.47-9.19-9.855a18.507 18.507 0 0 0-.414 3.239v-.001z"/></g></g><g transform="translate(-34 -33)"><mask id="x" fill="#fff"><use xlink:href="#w"/></mask><g mask="url(#x)" fill="#228E58" fill-rule="nonzero"><path d="M1050.253 278.135c-.736-4.488-.623-8.015-.617-8.163a.821.821 0 0 1 .85-.793c.148.005 3.675.139 8.1 1.186 1.577.373 3.068.816 4.46 1.324l.028.01c.901.33 1.761.686 2.574 1.069.985.46 1.94.985 2.856 1.57 1.375.883 2.568 1.862 3.563 2.93 1.97 2.1 3.016 4.9 2.908 7.777a10.768 10.768 0 0 1-2.863 6.972l4.415 4.735a.822.822 0 1 1-1.202 1.121l-4.415-4.735a10.768 10.768 0 0 1-7.155 2.37 10.778 10.778 0 0 1-7.556-3.443c-.996-1.068-1.89-2.326-2.674-3.76a25.026 25.026 0 0 1-1.367-2.957 31.353 31.353 0 0 1-.894-2.67 39.72 39.72 0 0 1-1.01-4.543h-.001zm7.986-6.164a46.9 46.9 0 0 0-6.967-1.096c.01 1.297.102 3.954.608 7.026.19 1.155.453 2.44.813 3.77l7.777.272-4.611-4.945a.822.822 0 0 1 1.202-1.12l4.61 4.944.272-7.777a38.443 38.443 0 0 0-3.704-1.074zm-3.509 15.092l10.868.38-3.543-3.8-8.866-.31c.413 1.255.92 2.521 1.541 3.73zm8.836-13.407l-.31 8.865 3.544 3.8.38-10.868a25.75 25.75 0 0 0-3.614-1.797zm9.766 11.331a9.144 9.144 0 0 0-2.467-6.598 15.782 15.782 0 0 0-2.078-1.854l-.402 11.486 2.602 2.79a9.134 9.134 0 0 0 2.345-5.824zm-15.931 5.957a9.146 9.146 0 0 0 6.41 2.921 9.135 9.135 0 0 0 5.974-1.933l-2.602-2.79-11.486-.401c.502.783 1.072 1.52 1.704 2.203z"/></g></g><g transform="translate(-34 -33)"><mask id="z" fill="#fff"><use xlink:href="#y"/></mask><g mask="url(#z)" fill="#228E58" fill-rule="nonzero"><path d="M1080.063 250.828c1.552 4.108 3.35 7.004 3.425 7.125a.793.793 0 0 0 1.093.252c.121-.075 3.006-1.89 6.201-4.902a38.317 38.317 0 0 0 3.09-3.26l.019-.022c.577-.687 1.123-1.4 1.636-2.136a24.166 24.166 0 0 0 1.63-2.692c.723-1.402 1.248-2.797 1.565-4.17.63-2.726.16-5.534-1.323-7.906a10.397 10.397 0 0 0-5.76-4.448l1.406-6.091a.793.793 0 0 0-1.546-.357l-1.406 6.09c-2.477-.38-4.98.132-7.127 1.473a10.406 10.406 0 0 0-4.656 6.527c-.317 1.373-.456 2.857-.42 4.434.027 1.05.121 2.096.284 3.133.14.896.32 1.785.54 2.664a38.35 38.35 0 0 0 1.35 4.286h-.001zm9.654 1.3a45.282 45.282 0 0 1-5.297 4.28 45.276 45.276 0 0 1-2.883-6.17 37.117 37.117 0 0 1-1.14-3.543l6.37-3.982-1.468 6.36a.794.794 0 0 0 1.547.357l1.468-6.36 3.981 6.372a37.117 37.117 0 0 1-2.578 2.685v.001zm-10.22-10.925l8.904-5.564-1.128 4.887-7.264 4.54a24.86 24.86 0 0 1-.512-3.863zm13.86 6.944l-4.538-7.263 1.128-4.888 5.564 8.904a24.863 24.863 0 0 1-2.153 3.247h-.001zm2.696-14.19a8.83 8.83 0 0 1 1.123 6.71c-.201.87-.49 1.724-.843 2.552l-5.88-9.41.827-3.589a8.82 8.82 0 0 1 4.773 3.738v-.001zm-16.197 2.71a8.83 8.83 0 0 1 3.95-5.537 8.82 8.82 0 0 1 5.928-1.267l-.828 3.589-9.41 5.88c.044-.9.16-1.793.36-2.664v-.001z"/></g></g><g transform="translate(-34 -33)"><mask id="B" fill="#fff"><use xlink:href="#A"/></mask><g mask="url(#B)" fill="#228E58" fill-rule="nonzero"><path d="M984.147 167.845c-.678-5.288-.402-9.417-.39-9.59a.963.963 0 0 1 1.029-.894c.173.012 4.3.312 9.443 1.72a46.528 46.528 0 0 1 5.171 1.734l.032.013c1.043.423 2.036.876 2.973 1.358a29.345 29.345 0 0 1 3.281 1.957c1.575 1.09 2.933 2.287 4.056 3.578a12.635 12.635 0 0 1 3.089 9.231 12.624 12.624 0 0 1-3.64 8.053l4.98 5.729a.964.964 0 1 1-1.455 1.264l-4.98-5.729a12.624 12.624 0 0 1-8.48 2.484 12.636 12.636 0 0 1-8.712-4.343c-1.123-1.292-2.119-2.803-2.98-4.515a29.34 29.34 0 0 1-1.481-3.521 36.759 36.759 0 0 1-.938-3.164 46.567 46.567 0 0 1-.998-5.365zm9.61-6.895a54.985 54.985 0 0 0-8.119-1.57 54.92 54.92 0 0 0 .425 8.258c.176 1.36.43 2.876.798 4.45l9.1.636-5.2-5.982a.964.964 0 0 1 1.455-1.264l5.2 5.982.636-9.101a45.07 45.07 0 0 0-4.295-1.41v.001zm-4.73 17.539l12.719.889-3.996-4.597-10.376-.726a30.188 30.188 0 0 0 1.653 4.434zm10.902-15.348l-.725 10.375 3.996 4.597.89-12.718a30.19 30.19 0 0 0-4.16-2.254h-.001zm10.98 13.677a10.721 10.721 0 0 0-2.622-7.833 18.502 18.502 0 0 0-2.359-2.256l-.94 13.441 2.934 3.376a10.71 10.71 0 0 0 2.986-6.728h.001zm-18.911 6.328a10.722 10.722 0 0 0 7.392 3.685 10.71 10.71 0 0 0 7.078-2.021l-2.934-3.375-13.442-.94a18.507 18.507 0 0 0 1.906 2.65v.001z"/></g></g><g transform="translate(-34 -33)"><mask id="D" fill="#fff"><use xlink:href="#C"/></mask><g mask="url(#D)" fill="#228E58" fill-rule="nonzero"><path d="M1041.477 104.027c-3.79 3.75-6.115 7.174-6.212 7.318a.963.963 0 0 0 .26 1.337c.144.097 3.581 2.401 8.5 4.458a46.528 46.528 0 0 0 5.143 1.817l.034.01c1.048.3 2.108.554 3.178.76 1.252.241 2.518.401 3.79.478 1.913.11 3.72.004 5.4-.322a12.635 12.635 0 0 0 8.117-5.373 12.624 12.624 0 0 0 2.09-8.587l7.45-1.448a.964.964 0 1 0-.367-1.892l-7.452 1.449a12.624 12.624 0 0 0-5.153-7.179 12.636 12.636 0 0 0-9.54-1.94c-1.68.326-3.394.904-5.126 1.723a29.34 29.34 0 0 0-3.335 1.863 36.759 36.759 0 0 0-2.688 1.915 46.567 46.567 0 0 0-4.09 3.613h.001zm3.327 11.35a54.985 54.985 0 0 1-7.364-3.761 54.978 54.978 0 0 1 5.419-6.246 45.07 45.07 0 0 1 3.368-3.015l7.564 5.101-7.78 1.512a.964.964 0 0 0 .367 1.892l7.78-1.512-5.102 7.563a45.07 45.07 0 0 1-4.252-1.534zm7.071-16.732l10.57 7.129-5.98 1.162-8.622-5.816a30.188 30.188 0 0 1 4.032-2.475zm-.858 18.805l5.816-8.622 5.98-1.162-7.13 10.57a30.19 30.19 0 0 1-4.666-.786zm17.072-4.018a10.721 10.721 0 0 1-6.887 4.559 18.502 18.502 0 0 1-3.249.325l7.534-11.17 4.39-.854a10.71 10.71 0 0 1-1.788 7.14zm-11.006-16.628c2.83-.55 5.704.035 8.094 1.647a10.71 10.71 0 0 1 4.333 5.95l-4.39.853-11.17-7.535a18.507 18.507 0 0 1 3.133-.915z"/></g></g><g transform="translate(-34 -33)"><mask id="F" fill="#fff"><use xlink:href="#E"/></mask><g mask="url(#F)" fill="#228E58" fill-rule="nonzero"><path d="M1070.207 57.656c-4.818-.65-8.389-1.869-8.538-1.92a.878.878 0 0 1-.545-1.117c.052-.15 1.29-3.714 3.744-7.91a42.422 42.422 0 0 1 2.747-4.146l.02-.025a33.52 33.52 0 0 1 1.897-2.298 26.756 26.756 0 0 1 2.497-2.428c1.332-1.13 2.706-2.043 4.109-2.727a11.52 11.52 0 0 1 8.859-.542 11.51 11.51 0 0 1 6.233 5.106l6.22-3.034a.879.879 0 1 1 .77 1.58l-6.22 3.033a11.51 11.51 0 0 1 .186 8.055 11.521 11.521 0 0 1-5.881 6.648c-1.403.684-2.968 1.204-4.679 1.558-1.138.233-2.29.391-3.45.474a33.516 33.516 0 0 1-3.009.08 42.458 42.458 0 0 1-4.96-.387zm-3.805-10.09a50.134 50.134 0 0 0-3.298 6.779 50.127 50.127 0 0 0 7.372 1.574c1.24.167 2.635.3 4.108.348l2.708-7.865-6.495 3.168a.879.879 0 0 1-.77-1.58l6.495-3.167-7.865-2.708a41.094 41.094 0 0 0-2.255 3.45v.001zm14.33 8.303l3.785-10.991-4.992 2.434-3.087 8.967a27.524 27.524 0 0 0 4.294-.41zm-10.943-13.223l8.966 3.088 4.991-2.435-10.99-3.785a27.527 27.527 0 0 0-2.967 3.132zm14.636-6.442a9.775 9.775 0 0 0-7.517.46 16.87 16.87 0 0 0-2.544 1.546l11.616 4 3.665-1.788a9.764 9.764 0 0 0-5.22-4.218zm1.11 18.148a9.776 9.776 0 0 0 4.99-5.64 9.765 9.765 0 0 0-.11-6.71l-3.665 1.787-4 11.616c.96-.273 1.894-.619 2.785-1.053z"/></g></g><g transform="translate(-34 -33)"><mask id="H" fill="#fff"><use xlink:href="#G"/></mask><g mask="url(#H)" fill="#228E58" fill-rule="nonzero"><path d="M880.792 279.562c1.105-3.268 2.438-5.591 2.494-5.688a.623.623 0 0 1 .851-.228c.098.056 2.413 1.401 5.004 3.679.924.811 1.764 1.64 2.516 2.475l.015.017c.486.542.935 1.087 1.344 1.633.495.66.947 1.35 1.353 2.069.606 1.08 1.057 2.161 1.343 3.23a8.176 8.176 0 0 1-.822 6.246 8.169 8.169 0 0 1-4.4 3.65l1.27 4.745a.623.623 0 1 1-1.204.322l-1.271-4.744a8.169 8.169 0 0 1-5.637-.961 8.176 8.176 0 0 1-3.834-4.997c-.287-1.07-.437-2.231-.452-3.47-.008-.825.038-1.65.137-2.468.086-.707.203-1.41.352-2.107.233-1.1.547-2.238.941-3.403zm7.545-1.284a35.579 35.579 0 0 0-4.277-3.216 35.574 35.574 0 0 0-2.095 4.923c-.313.924-.58 1.863-.798 2.814l5.112 2.952-1.327-4.954a.624.624 0 0 1 1.204-.323l1.327 4.954 2.952-5.113a29.163 29.163 0 0 0-2.098-2.037zm-7.726 8.858l7.145 4.125-1.02-3.807-5.829-3.365c-.17.988-.282 2.016-.296 3.047zm10.694-5.833l-3.365 5.828 1.02 3.807 4.125-7.144a19.535 19.535 0 0 0-1.78-2.491zm2.505 11.068a6.937 6.937 0 0 0 .698-5.298c-.185-.68-.43-1.344-.732-1.982l-4.36 7.55.75 2.796a6.93 6.93 0 0 0 3.644-3.066zm-12.792-1.684a6.938 6.938 0 0 0 3.254 4.24 6.93 6.93 0 0 0 4.689.832l-.749-2.795-7.55-4.36c.06.706.174 1.404.356 2.083z"/></g></g><g transform="translate(-34 -33)"><mask id="J" fill="#fff"><use xlink:href="#I"/></mask><g mask="url(#J)" fill="#228E58" fill-rule="nonzero"><path d="M812.883 234.104c.97 4.443 1.041 7.972 1.044 8.12a.822.822 0 0 1-.808.836c-.148.003-3.677.054-8.151-.76a39.686 39.686 0 0 1-4.523-1.089l-.029-.008a31.357 31.357 0 0 1-2.627-.933 25.03 25.03 0 0 1-2.933-1.42c-1.42-.808-2.662-1.724-3.712-2.738a10.777 10.777 0 0 1-3.31-7.614 10.768 10.768 0 0 1 2.494-7.113l-4.658-4.498a.822.822 0 1 1 1.142-1.182l4.657 4.498a10.768 10.768 0 0 1 7.022-2.741 10.78 10.78 0 0 1 7.725 3.043c1.05 1.014 2.008 2.224 2.867 3.614.569.927 1.076 1.89 1.52 2.882.383.857.728 1.731 1.033 2.619a39.72 39.72 0 0 1 1.247 4.484zm-7.653 6.573a46.9 46.9 0 0 0 7.015.73 46.893 46.893 0 0 0-.975-6.984 38.443 38.443 0 0 0-1.008-3.722l-7.781.136 4.863 4.696a.822.822 0 0 1-1.142 1.182l-4.862-4.696.135 7.78c1.324.383 2.604.668 3.755.878zm2.715-15.254l-10.873.19 3.737 3.609 8.87-.155a25.748 25.748 0 0 0-1.734-3.644zm-8.123 13.851l-.154-8.87-3.738-3.608.19 10.872a25.75 25.75 0 0 0 3.702 1.606zm-10.345-10.805a9.144 9.144 0 0 0 2.809 6.46 15.782 15.782 0 0 0 2.172 1.743l-.2-11.491-2.744-2.65a9.134 9.134 0 0 0-2.037 5.938zm15.597-6.782a9.146 9.146 0 0 0-6.555-2.582 9.135 9.135 0 0 0-5.863 2.244l2.744 2.65 11.491-.201a15.785 15.785 0 0 0-1.817-2.111z"/></g></g><g transform="translate(-34 -33)"><mask id="L" fill="#fff"><use xlink:href="#K"/></mask><g mask="url(#L)" fill="#228E58" fill-rule="nonzero"><path d="M878.153 190.427c4.223-3.505 6.914-6.808 7.026-6.947a.99.99 0 0 0-.146-1.395c-.14-.113-3.457-2.784-8.318-5.334a47.896 47.896 0 0 0-5.11-2.325 37.845 37.845 0 0 0-3.225-1.078 30.208 30.208 0 0 0-3.844-.83c-1.951-.285-3.814-.338-5.565-.154a13.007 13.007 0 0 0-8.807 4.782 12.996 12.996 0 0 0-2.913 8.618l-7.77.817a.991.991 0 0 0 .206 1.972l7.771-.816a12.996 12.996 0 0 0 4.642 7.823 13.008 13.008 0 0 0 9.608 2.847c1.752-.184 3.562-.623 5.412-1.308a30.203 30.203 0 0 0 3.587-1.611 37.84 37.84 0 0 0 2.928-1.723 47.937 47.937 0 0 0 4.518-3.338zm-2.394-11.938a56.603 56.603 0 0 1 7.214 4.518 56.595 56.595 0 0 1-6.117 5.918 46.396 46.396 0 0 1-3.725 2.79l-7.298-5.91 8.114-.852a.992.992 0 0 0-.207-1.973l-8.114.853 5.91-7.299c1.543.62 2.972 1.3 4.223 1.955zm-8.753 16.524l-10.2-8.26 6.237-.654 8.32 6.737a31.076 31.076 0 0 1-4.357 2.177zm2.567-19.208l-6.737 8.32-6.236.656 8.259-10.2c1.616.279 3.204.71 4.714 1.224zm-17.867 2.59a11.036 11.036 0 0 1 7.472-4.058 19.047 19.047 0 0 1 3.36-.042l-8.728 10.78-4.579.48c-.047-2.604.83-5.14 2.475-7.16zm9.794 18.04a11.038 11.038 0 0 1-8.152-2.416 11.025 11.025 0 0 1-3.91-6.49l4.579-.482 10.78 8.73c-1.082.312-2.184.54-3.297.657v.001z"/></g></g><g transform="translate(-34 -33)"><mask id="N" fill="#fff"><use xlink:href="#M"/></mask><g mask="url(#N)" fill="#228E58" fill-rule="nonzero"><path d="M903.104 86.605c-3.71.634-6.44 1.673-6.554 1.717a.68.68 0 0 0-.392.878c.044.115 1.1 2.839 3.11 6.02a32.843 32.843 0 0 0 2.239 3.133l.015.019a25.95 25.95 0 0 0 1.53 1.726 20.714 20.714 0 0 0 1.998 1.811c1.061.839 2.15 1.508 3.253 2a8.919 8.919 0 0 0 6.869.18 8.911 8.911 0 0 0 4.684-4.12l4.895 2.18a.68.68 0 0 0 .553-1.243l-4.894-2.18a8.911 8.911 0 0 0-.074-6.237 8.92 8.92 0 0 0-4.73-4.984c-1.104-.491-2.33-.852-3.662-1.08a20.71 20.71 0 0 0-2.683-.273 25.947 25.947 0 0 0-2.33.02c-1.283.07-2.56.214-3.827.433zm-2.671 7.91a38.813 38.813 0 0 1-2.736-5.156 38.808 38.808 0 0 1 5.663-1.417c.954-.163 2.03-.303 3.168-.38l2.308 6.012-5.111-2.276a.68.68 0 1 0-.553 1.243l5.11 2.275-6.012 2.308a31.815 31.815 0 0 1-1.837-2.609zm10.863-6.812l3.225 8.402-3.928-1.749-2.63-6.854c1.093-.015 2.22.04 3.333.201zm-8.11 10.527l6.854-2.631 3.928 1.749-8.402 3.225a21.31 21.31 0 0 1-2.38-2.343zm11.498 4.589c-1.9.729-3.97.675-5.828-.153a13.06 13.06 0 0 1-2.01-1.127l8.879-3.409 2.884 1.284a7.56 7.56 0 0 1-3.925 3.405zm.369-14.072a7.569 7.569 0 0 1 4.013 4.23 7.56 7.56 0 0 1 .096 5.195l-2.883-1.284-3.41-8.88c.75.185 1.483.428 2.184.74v-.001z"/></g></g><g transform="translate(-34 -33)"><mask id="P" fill="#fff"><use xlink:href="#O"/></mask><g mask="url(#P)" fill="#228E58" fill-rule="nonzero"><path d="M681.338 301.765c-.711 4.65-1.95 8.085-2.002 8.23a.85.85 0 0 1-1.09.507c-.144-.052-3.571-1.311-7.59-3.756a41.054 41.054 0 0 1-3.965-2.728c-.009-.006-.016-.013-.024-.02a32.438 32.438 0 0 1-2.192-1.874 25.892 25.892 0 0 1-2.307-2.458c-1.07-1.308-1.931-2.652-2.57-4.02a11.149 11.149 0 0 1-.374-8.582 11.14 11.14 0 0 1 5.046-5.945l-2.83-6.07a.85.85 0 1 1 1.54-.718l2.831 6.07a11.14 11.14 0 0 1 7.797-.044 11.15 11.15 0 0 1 6.333 5.802c.638 1.369 1.115 2.893 1.429 4.554.206 1.106.34 2.224.4 3.347.052.97.06 1.941.026 2.912a41.089 41.089 0 0 1-.458 4.793zm-9.828 3.511a48.516 48.516 0 0 0 6.504 3.306 48.51 48.51 0 0 0 1.648-7.107c.182-1.197.335-2.545.406-3.968l-7.565-2.754 2.956 6.338a.85.85 0 0 1-1.54.719l-2.956-6.338-2.754 7.564a40.17 40.17 0 0 0 3.301 2.24zm8.277-13.726l-10.571-3.847 2.271 4.87 8.624 3.14a26.637 26.637 0 0 0-.324-4.163zm-12.98 10.366l3.14-8.623-2.272-4.871-3.848 10.57a26.639 26.639 0 0 0 2.98 2.924zm-5.985-14.27a9.46 9.46 0 0 0 .318 7.28c.405.87.897 1.699 1.452 2.488l4.067-11.171-1.668-3.577a9.45 9.45 0 0 0-4.17 4.98h.001zm17.578-.768a9.46 9.46 0 0 0-5.374-4.924 9.45 9.45 0 0 0-6.494-.007l1.668 3.577 11.172 4.066a16.33 16.33 0 0 0-.972-2.712z"/></g></g><g transform="translate(-34 -33)"><mask id="R" fill="#fff"><use xlink:href="#Q"/></mask><g mask="url(#R)" fill="#228E58" fill-rule="nonzero"><path d="M615.519 154.008c5.802-.032 10.225.815 10.41.85a1.048 1.048 0 0 1 .83 1.23c-.036.186-.908 4.604-3.111 9.972a50.633 50.633 0 0 1-2.559 5.355l-.018.034a40.007 40.007 0 0 1-1.86 3.03 31.934 31.934 0 0 1-2.55 3.285c-1.386 1.557-2.859 2.864-4.402 3.906a13.75 13.75 0 0 1-10.381 2.112 13.738 13.738 0 0 1-8.215-5l-6.848 4.62a1.05 1.05 0 0 1-1.173-1.74l6.848-4.618a13.738 13.738 0 0 1-1.558-9.49 13.751 13.751 0 0 1 5.847-8.834c1.544-1.041 3.308-1.916 5.27-2.619a31.93 31.93 0 0 1 4-1.133 40.002 40.002 0 0 1 3.543-.594 50.676 50.676 0 0 1 5.927-.366zm6.173 11.294a59.837 59.837 0 0 0 2.773-8.56 59.829 59.829 0 0 0-8.976-.637c-1.493.01-3.164.083-4.912.271l-1.895 9.746 7.15-4.823a1.049 1.049 0 0 1 1.174 1.738l-7.151 4.823 9.746 1.895a49.048 49.048 0 0 0 2.091-4.453zm-18.316-7.434l-2.648 13.62 5.495-3.707 2.16-11.111c-1.664.27-3.36.655-5.007 1.198zm15.13 13.81l-11.11-2.16-5.495 3.708 13.62 2.647a32.854 32.854 0 0 0 2.986-4.195h-.001zm-16.228 10.045c3.08.599 6.207-.037 8.808-1.792.98-.66 1.896-1.42 2.75-2.249l-14.393-2.798-4.036 2.721a11.654 11.654 0 0 0 6.87 4.118h.001zm-4.327-21.265a11.668 11.668 0 0 0-4.96 7.496 11.655 11.655 0 0 0 1.244 7.913l4.035-2.721 2.797-14.395a20.14 20.14 0 0 0-3.116 1.707z"/></g></g><g transform="translate(-34 -33)"><mask id="T" fill="#fff"><use xlink:href="#S"/></mask><g mask="url(#T)" fill="#228E58" fill-rule="nonzero"><path d="M692.587 141.699c-5.32.343-9.321 1.402-9.489 1.447a.963.963 0 0 0-.681 1.18c.045.168 1.127 4.162 3.49 8.941a46.528 46.528 0 0 0 2.69 4.746l.019.029c.614.942 1.248 1.83 1.9 2.66a29.345 29.345 0 0 0 2.547 2.846c1.37 1.338 2.804 2.443 4.286 3.299a12.635 12.635 0 0 0 9.651 1.27 12.63 12.63 0 0 0 7.21-5.11l6.574 3.796a.963.963 0 0 0 .963-1.669l-6.573-3.795a12.624 12.624 0 0 0 .82-8.799 12.636 12.636 0 0 0-5.926-7.723c-1.482-.856-3.156-1.545-5-2.063a29.34 29.34 0 0 0-3.74-.782 36.759 36.759 0 0 0-3.285-.317 46.567 46.567 0 0 0-5.456.044zm-4.935 10.748a54.985 54.985 0 0 1-3.09-7.67 54.978 54.978 0 0 1 8.187-1.158 45.07 45.07 0 0 1 4.52-.066l2.362 8.812-6.864-3.963a.964.964 0 0 0-.964 1.669l6.864 3.963-8.812 2.361a45.07 45.07 0 0 1-2.203-3.948zm16.314-7.989l3.3 12.315-5.275-3.045-2.692-10.047c1.543.141 3.122.386 4.667.777zm-12.985 13.63l10.046-2.692 5.275 3.046-12.315 3.3a30.19 30.19 0 0 1-3.006-3.654zm15.52 8.168c-2.764.749-5.713.36-8.189-1.078a18.502 18.502 0 0 1-2.665-1.886l13.015-3.487 3.873 2.236a10.71 10.71 0 0 1-6.034 4.215zm2.603-19.77a10.722 10.722 0 0 1 5.028 6.553 10.71 10.71 0 0 1-.633 7.333l-3.873-2.236-3.488-13.016c1.03.372 2.025.823 2.966 1.366z"/></g></g><g transform="translate(-34 -33)"><mask id="V" fill="#fff"><use xlink:href="#U"/></mask><g mask="url(#V)" fill="#228E58" fill-rule="nonzero"><path d="M691.601 83.556c2.137-3.656 3.216-6.76 3.261-6.89a.764.764 0 0 0-.474-.972c-.13-.045-3.241-1.106-7.437-1.673a36.949 36.949 0 0 0-4.318-.337h-.028c-.893-.015-1.76.008-2.594.07-1.01.072-2.014.21-3.006.412-1.49.309-2.853.762-4.075 1.357a10.034 10.034 0 0 0-5.122 5.79 10.025 10.025 0 0 0 .162 7.016l-5.418 2.642a.765.765 0 1 0 .671 1.376l5.418-2.643a10.025 10.025 0 0 0 5.429 4.447c2.55.879 5.29.711 7.716-.471 1.221-.596 2.418-1.392 3.578-2.376a23.3 23.3 0 0 0 2.175-2.114 29.19 29.19 0 0 0 1.668-2.022 36.98 36.98 0 0 0 2.394-3.612zm-4.885-8.022c2.172.295 4.319.753 6.422 1.371a43.659 43.659 0 0 1-2.873 5.905 35.54 35.54 0 0 1-1.964 3.005l-6.85-2.359 5.657-2.759a.765.765 0 0 0-.67-1.375l-5.658 2.759 2.36-6.85c1.282.042 2.497.158 3.576.303zm-1.985 14.288l-9.573-3.297 4.348-2.12 7.81 2.689a23.973 23.973 0 0 1-2.585 2.728zm-3.207-14.602l-2.689 7.81-4.347 2.12 3.296-9.573a23.975 23.975 0 0 1 3.74-.357zm-12.27 6.591a8.514 8.514 0 0 1 4.347-4.912c.775-.378 1.59-.68 2.425-.918L672.543 86.1l-3.192 1.557a8.505 8.505 0 0 1-.096-5.845l-.001-.001zm11.86 10.493a8.515 8.515 0 0 1-6.546.4 8.505 8.505 0 0 1-4.547-3.673l3.192-1.557 10.118 3.484a14.68 14.68 0 0 1-2.216 1.346h-.001z"/></g></g><g transform="translate(-34 -33)"><mask id="X" fill="#fff"><use xlink:href="#W"/></mask><g mask="url(#X)" fill="#228E58" fill-rule="nonzero"><path d="M751.829 48.152c-2.48-5.246-3.583-9.612-3.629-9.795a1.048 1.048 0 0 1 .764-1.271c.183-.046 4.556-1.123 10.352-1.395 1.978-.098 3.96-.08 5.935.055l.038.003c1.221.087 2.401.222 3.533.406 1.37.219 2.724.527 4.054.922 1.997.599 3.805 1.38 5.4 2.34a13.75 13.75 0 0 1 6.302 8.515c.81 3.246.43 6.6-1.06 9.558l7.081 4.254a1.05 1.05 0 0 1-1.08 1.798l-7.08-4.254a13.738 13.738 0 0 1-7.942 5.422 13.751 13.751 0 0 1-10.478-1.566c-1.596-.959-3.134-2.188-4.6-3.67a31.93 31.93 0 0 1-2.717-3.146 40.002 40.002 0 0 1-2.036-2.96 50.676 50.676 0 0 1-2.837-5.216zm7.627-10.368c-3.97.183-7.309.773-8.93 1.105a59.829 59.829 0 0 0 3.216 8.404 49.048 49.048 0 0 0 2.322 4.337l9.634-2.402-7.394-4.442a1.049 1.049 0 0 1 1.08-1.798l7.393 4.443-2.402-9.634a49.048 49.048 0 0 0-4.92-.013h.001zm1.003 19.742l13.462-3.356-5.681-3.414-10.983 2.738a32.851 32.851 0 0 0 3.202 4.032zm6.122-19.55l2.738 10.982 5.682 3.414-3.356-13.462a32.854 32.854 0 0 0-5.064-.934zm15.962 10.463a11.667 11.667 0 0 0-5.346-7.225 20.135 20.135 0 0 0-3.2-1.542l3.546 14.227 4.172 2.507a11.654 11.654 0 0 0 .828-7.967zM765.1 61.347a11.668 11.668 0 0 0 8.89 1.328 11.655 11.655 0 0 0 6.646-4.472l-4.172-2.506-14.228 3.547a20.14 20.14 0 0 0 2.864 2.103z"/></g></g><g transform="translate(-34 -33)"><mask id="Z" fill="#fff"><use xlink:href="#Y"/></mask><g mask="url(#Z)" fill="#228E58" fill-rule="nonzero"><path d="M582.87 272.825c3.199-3.233 6.119-5.215 6.242-5.298a.821.821 0 0 1 1.14.222c.083.123 2.049 3.055 3.803 7.25a39.686 39.686 0 0 1 1.55 4.387l.008.028c.263.923.48 1.828.649 2.711a25.03 25.03 0 0 1 .407 3.233c.095 1.632.004 3.172-.275 4.605a10.777 10.777 0 0 1-4.582 6.924 10.768 10.768 0 0 1-7.324 1.782l-1.236 6.355a.822.822 0 0 1-1.613-.313l1.235-6.356a10.768 10.768 0 0 1-6.122-4.395 10.778 10.778 0 0 1-1.656-8.137c.278-1.433.771-2.895 1.47-4.372a24.97 24.97 0 0 1 1.589-2.845 31.353 31.353 0 0 1 1.634-2.293 39.72 39.72 0 0 1 3.081-3.488zm9.681 2.838a46.9 46.9 0 0 0-3.208-6.28 46.893 46.893 0 0 0-5.327 4.621 38.67 38.67 0 0 0-2.572 2.873l4.351 6.452 1.29-6.637a.822.822 0 1 1 1.614.314l-1.29 6.636 6.45-4.352a38.443 38.443 0 0 0-1.308-3.627zm-14.272 6.032l6.081 9.015.992-5.1-4.96-7.355c-.793 1.09-1.5 2.24-2.113 3.44zm16.04-.732l-7.354 4.96-.991 5.1 9.015-6.08a25.75 25.75 0 0 0-.67-3.98zm-3.427 14.561a9.144 9.144 0 0 0 3.889-5.874c.176-.91.263-1.839.277-2.771l-9.528 6.426-.728 3.745a9.134 9.134 0 0 0 6.09-1.526zm-14.183-9.387a9.146 9.146 0 0 0 1.405 6.903 9.135 9.135 0 0 0 5.075 3.696l.728-3.744-6.427-9.528c-.336.87-.604 1.763-.78 2.673h-.001z"/></g></g><g transform="translate(-34 -33)"><mask id="ab" fill="#fff"><use xlink:href="#aa"/></mask><g mask="url(#ab)" fill="#228E58" fill-rule="nonzero"><path d="M531.139 212.695c-4.077-.093-7.195.447-7.326.47a.736.736 0 0 0-.597.854c.023.13.581 3.245 2.063 7.044a35.58 35.58 0 0 0 1.732 3.794l.013.024c.405.759.829 1.478 1.27 2.152a22.44 22.44 0 0 0 1.75 2.339c.956 1.11 1.974 2.048 3.046 2.798a9.662 9.662 0 0 0 7.268 1.611 9.654 9.654 0 0 0 5.833-3.411l4.755 3.329a.737.737 0 1 0 .845-1.207l-4.755-3.33a9.64 9.64 0 0 0 1.21-6.648 9.663 9.663 0 0 0-3.999-6.278c-1.072-.75-2.3-1.387-3.67-1.905a22.437 22.437 0 0 0-2.796-.845 28.11 28.11 0 0 0-2.483-.46 35.61 35.61 0 0 0-4.16-.331h.001zm-4.476 7.86a42.048 42.048 0 0 1-1.843-6.05 42.042 42.042 0 0 1 6.314-.336c1.049.025 2.222.097 3.448.25l1.211 6.871-4.964-3.476a.737.737 0 0 0-.846 1.207l4.965 3.476-6.87 1.212a34.466 34.466 0 0 1-1.415-3.155v.001zm12.96-5l1.693 9.602-3.815-2.671-1.382-7.833c1.167.21 2.354.501 3.504.903v-.001zm-10.8 9.519l7.832-1.381 3.816 2.671-9.602 1.694c-.77-.945-1.45-1.96-2.046-2.984zm11.279 7.256a8.198 8.198 0 0 1-6.167-1.367 14.149 14.149 0 0 1-1.904-1.614l10.147-1.79 2.801 1.962a8.19 8.19 0 0 1-4.877 2.81v-.001zm3.3-14.887a8.2 8.2 0 0 1 3.394 5.327 8.19 8.19 0 0 1-.972 5.544l-2.8-1.961-1.79-10.148c.759.352 1.488.761 2.168 1.238z"/></g></g><g transform="translate(-34 -33)"><mask id="ad" fill="#fff"><use xlink:href="#ac"/></mask><g mask="url(#ad)" fill="#228E58" fill-rule="nonzero"><path d="M493.624 173.792c5.39 1.68 9.746 2.15 9.929 2.17a1.02 1.02 0 0 0 1.121-.908c.02-.183.465-4.542-.058-10.163a49.265 49.265 0 0 0-.857-5.711l-.008-.036a38.926 38.926 0 0 0-.869-3.35 31.07 31.07 0 0 0-1.437-3.781c-.848-1.843-1.846-3.479-2.986-4.887a13.379 13.379 0 0 0-9.058-4.918 13.367 13.367 0 0 0-9.066 2.315l-5.058-6.246a1.02 1.02 0 1 0-1.585 1.284l5.058 6.246a13.367 13.367 0 0 0-4.15 8.386 13.38 13.38 0 0 0 2.928 9.883c1.14 1.409 2.533 2.725 4.16 3.936a31.066 31.066 0 0 0 3.4 2.192 38.921 38.921 0 0 0 3.126 1.561c1.68.75 3.489 1.428 5.41 2.027zm8.957-8.752c.36 3.849.244 7.146.144 8.754a58.212 58.212 0 0 1-8.532-1.962 47.722 47.722 0 0 1-4.494-1.65l1.01-9.607 5.281 6.522a1.02 1.02 0 0 0 1.586-1.284l-5.282-6.521 9.607 1.01a47.92 47.92 0 0 1 .68 4.738zm-19.158 1.706l1.411-13.425 4.059 5.012-1.151 10.952a31.963 31.963 0 0 1-4.319-2.539zm18.008-8.546l-10.952-1.15-4.059-5.013 13.425 1.41a31.966 31.966 0 0 1 1.586 4.753zm-12.243-13.963a11.352 11.352 0 0 1 7.686 4.173 19.59 19.59 0 0 1 1.919 2.875l-14.189-1.49-2.98-3.68a11.34 11.34 0 0 1 7.564-1.878zm-10.075 18.556a11.353 11.353 0 0 1-2.483-8.386 11.34 11.34 0 0 1 3.408-7.009l2.98 3.68-1.491 14.19a19.596 19.596 0 0 1-2.414-2.475z"/></g></g><g transform="translate(-34 -33)"><mask id="af" fill="#fff"><use xlink:href="#ae"/></mask><g mask="url(#af)" fill="#228E58" fill-rule="nonzero"><path d="M530.84 94.541c3.345-3.309 5.395-6.33 5.481-6.457a.85.85 0 0 0-.23-1.18c-.126-.086-3.16-2.119-7.5-3.933a41.054 41.054 0 0 0-4.537-1.604l-.03-.008a32.438 32.438 0 0 0-2.805-.671 25.892 25.892 0 0 0-3.344-.422c-1.687-.097-3.281-.003-4.763.285a11.149 11.149 0 0 0-7.163 4.74 11.14 11.14 0 0 0-1.844 7.577l-6.574 1.278a.85.85 0 1 0 .324 1.669l6.575-1.278a11.14 11.14 0 0 0 4.547 6.334 11.15 11.15 0 0 0 8.417 1.713c1.483-.289 2.996-.799 4.524-1.521a25.889 25.889 0 0 0 2.943-1.644 32.434 32.434 0 0 0 2.371-1.69 41.089 41.089 0 0 0 3.608-3.188zm-2.936-10.015a48.516 48.516 0 0 1 6.498 3.319 48.51 48.51 0 0 1-4.781 5.51 39.768 39.768 0 0 1-2.972 2.662l-6.674-4.502 6.865-1.334a.85.85 0 0 0-.324-1.67l-6.865 1.335 4.501-6.673c1.365.413 2.635.887 3.752 1.353zm-6.239 14.764L512.34 93l5.276-1.026 7.608 5.132c-1.11.8-2.303 1.551-3.558 2.184h-.001zm.757-16.593l-5.131 7.608-5.276 1.025 6.29-9.326c1.401.117 2.789.367 4.117.693zm-15.063 3.545a9.46 9.46 0 0 1 6.077-4.022c.94-.183 1.901-.273 2.866-.287l-6.648 9.856-3.873.753a9.45 9.45 0 0 1 1.578-6.3zm9.71 14.673a9.46 9.46 0 0 1-7.14-1.454 9.45 9.45 0 0 1-3.824-5.25l3.873-.753 9.857 6.649c-.9.348-1.824.625-2.765.808h-.001z"/></g></g><g transform="translate(-34 -33)"><mask id="ah" fill="#fff"><use xlink:href="#ag"/></mask><g mask="url(#ah)" fill="#228E58" fill-rule="nonzero"><path d="M544.102 55.393c2.682 3.276 4.234 6.173 4.298 6.295a.764.764 0 0 1-.316 1.035c-.122.065-3.028 1.599-7.084 2.815-1.445.433-2.853.77-4.212 1.008l-.027.005c-.88.154-1.74.267-2.574.337a23.303 23.303 0 0 1-3.033.063c-1.52-.072-2.937-.306-4.236-.703a10.034 10.034 0 0 1-5.966-4.917 10.025 10.025 0 0 1-.937-6.955l-5.764-1.763a.765.765 0 1 1 .447-1.463l5.764 1.762a10.025 10.025 0 0 1 4.667-5.241 10.034 10.034 0 0 1 7.694-.741c1.3.397 2.607.996 3.906 1.786a23.3 23.3 0 0 1 2.48 1.748 29.19 29.19 0 0 1 1.963 1.736 36.98 36.98 0 0 1 2.93 3.193zm-3.57 8.688a43.665 43.665 0 0 0 6.128-2.36 43.659 43.659 0 0 0-3.761-5.382c-.69-.842-1.5-1.756-2.41-2.66l-6.397 3.4 6.02 1.84a.766.766 0 0 1-.448 1.464l-6.019-1.84 3.401 6.397a35.792 35.792 0 0 0 3.486-.86v.001zm-4.196-13.802l-8.94 4.753 4.627 1.415 7.292-3.878a23.973 23.973 0 0 0-2.979-2.29zm-.883 14.924l-3.877-7.293-4.626-1.414 4.753 8.94c1.265.026 2.53-.066 3.75-.233zm-13.15-4.59a8.514 8.514 0 0 0 5.062 4.171c.825.252 1.676.423 2.538.527l-5.023-9.448-3.396-1.038a8.505 8.505 0 0 0 .82 5.787l-.001.001zm10.073-12.22a8.515 8.515 0 0 0-6.529.629 8.505 8.505 0 0 0-3.916 4.34l3.396 1.038 9.448-5.024a14.697 14.697 0 0 0-2.399-.983z"/></g></g><g transform="translate(-34 -33)"><mask id="aj" fill="#fff"><use xlink:href="#ai"/></mask><g mask="url(#aj)" fill="#228E58" fill-rule="nonzero"><path d="M384.574 294.404c.232-3.6.948-6.306.979-6.42a.651.651 0 0 1 .798-.46c.113.03 2.815.763 6.049 2.362a31.475 31.475 0 0 1 3.21 1.818l.02.013c.618.401 1.218.83 1.798 1.285a19.85 19.85 0 0 1 1.926 1.724c.906.927 1.653 1.897 2.232 2.899a8.547 8.547 0 0 1 .86 6.529 8.54 8.54 0 0 1-3.457 4.877l2.567 4.447a.652.652 0 1 1-1.129.652l-2.567-4.447a8.54 8.54 0 0 1-5.952.555 8.548 8.548 0 0 1-5.225-4.009c-.579-1.003-1.045-2.135-1.395-3.382a19.848 19.848 0 0 1-.53-2.53 24.866 24.866 0 0 1-.214-2.222 31.501 31.501 0 0 1 .03-3.691zm7.27-3.339a37.196 37.196 0 0 0-5.187-2.09 37.191 37.191 0 0 0-.784 5.538 30.49 30.49 0 0 0-.045 3.058l5.961 1.598-2.68-4.644a.652.652 0 0 1 1.128-.652l2.681 4.644 1.597-5.962a30.49 30.49 0 0 0-2.67-1.49h-.001zm-5.403 11.036l8.33 2.233-2.06-3.569-6.796-1.821c.095 1.044.26 2.113.526 3.157zm9.22-8.784l-1.821 6.796 2.06 3.569 2.233-8.33a20.423 20.423 0 0 0-2.472-2.035zm5.525 10.5a7.253 7.253 0 0 0-.73-5.54 12.516 12.516 0 0 0-1.275-1.803l-2.36 8.804 1.513 2.62a7.245 7.245 0 0 0 2.852-4.082v.001zm-13.374 1.76a7.253 7.253 0 0 0 4.433 3.402 7.245 7.245 0 0 0 4.96-.429l-1.512-2.62-8.805-2.36c.252.697.557 1.37.924 2.007z"/></g></g><g transform="translate(-34 -33)"><mask id="al" fill="#fff"><use xlink:href="#ak"/></mask><g mask="url(#al)" fill="#228E58" fill-rule="nonzero"><path d="M365.536 211.557c3.404-.558 6.08-.472 6.193-.468.344.012.613.3.601.644-.004.113-.105 2.788-.9 6.146a30.106 30.106 0 0 1-1.004 3.383l-.007.021c-.25.684-.52 1.336-.811 1.953-.35.747-.748 1.47-1.192 2.166-.67 1.043-1.412 1.948-2.222 2.704a8.176 8.176 0 0 1-5.9 2.206 8.169 8.169 0 0 1-5.29-2.172l-3.591 3.35a.624.624 0 0 1-.85-.913l3.591-3.35a8.169 8.169 0 0 1-1.797-5.427 8.176 8.176 0 0 1 2.612-5.732 14.048 14.048 0 0 1 2.852-2.028 19.07 19.07 0 0 1 2.244-1.037c.664-.257 1.34-.484 2.024-.68a30.302 30.302 0 0 1 3.447-.766zm4.676 6.059c.545-2.3.755-4.304.832-5.286-.985.008-3 .078-5.33.462-.876.144-1.851.343-2.86.616l-.206 5.9 3.75-3.498a.624.624 0 0 1 .85.912l-3.75 3.497 5.9.206c.342-.987.609-1.946.814-2.81v.001zm-11.449-2.663l-.288 8.245 2.883-2.688.235-6.726c-.953.314-1.913.698-2.83 1.17v-.001zm10.171 6.704l-6.725-.235-2.883 2.688 8.244.288c.535-.882.985-1.813 1.364-2.741zm-8.596 7.408a6.937 6.937 0 0 0 5.006-1.871c.514-.48.981-1.01 1.406-1.577l-8.714-.305-2.116 1.974a6.93 6.93 0 0 0 4.418 1.78v-.001zm-4.52-12.085a6.938 6.938 0 0 0-2.215 4.863 6.93 6.93 0 0 0 1.467 4.531l2.116-1.973.304-8.714c-.594.384-1.157.813-1.671 1.293h-.001z"/></g></g><g transform="translate(-34 -33)"><mask id="an" fill="#fff"><use xlink:href="#am"/></mask><g mask="url(#an)" fill="#228E58" fill-rule="nonzero"><path d="M388.1 182.138c-4.37-.435-7.632-1.422-7.769-1.464a.793.793 0 0 1-.527-.99c.042-.137 1.048-3.393 3.13-7.26.708-1.32 1.492-2.6 2.35-3.828l.016-.023a30.276 30.276 0 0 1 1.64-2.134 24.166 24.166 0 0 1 2.179-2.27c1.166-1.062 2.378-1.93 3.622-2.591a10.406 10.406 0 0 1 7.98-.769c2.42.74 4.45 2.293 5.787 4.413l5.52-2.935a.793.793 0 0 1 .744 1.401l-5.519 2.935a10.397 10.397 0 0 1 .422 7.265 10.406 10.406 0 0 1-5.1 6.186c-1.244.662-2.64 1.18-4.173 1.554-1.02.246-2.056.425-3.1.536-.901.096-1.807.152-2.713.167a38.35 38.35 0 0 1-4.49-.193h.001zm-3.754-8.988a45.282 45.282 0 0 0-2.764 6.223c1.213.315 3.713.893 6.705 1.19 1.125.11 2.388.187 3.719.184l2.197-7.185-5.764 3.064a.794.794 0 0 1-.745-1.401l5.764-3.064-7.185-2.197a37.117 37.117 0 0 0-1.927 3.186zm13.198 7.044l3.07-10.041-4.43 2.355-2.504 8.191a24.86 24.86 0 0 0 3.864-.505zm-10.296-11.591l8.191 2.504 4.43-2.355-10.041-3.07a24.863 24.863 0 0 0-2.58 2.92v.001zm13.009-6.276a8.83 8.83 0 0 0-6.771.652c-.79.42-1.54.919-2.248 1.475l10.612 3.244 3.252-1.729a8.82 8.82 0 0 0-4.845-3.642zm1.574 16.346a8.83 8.83 0 0 0 4.326-5.249 8.82 8.82 0 0 0-.31-6.054l-3.252 1.73-3.244 10.611a15.21 15.21 0 0 0 2.48-1.038z"/></g></g><g transform="translate(-34 -33)"><mask id="ap" fill="#fff"><use xlink:href="#ao"/></mask><g mask="url(#ap)" fill="#228E58" fill-rule="nonzero"><path d="M336.498 105.644c-4.818.65-8.39 1.869-8.539 1.92a.878.878 0 0 0-.544 1.117c.051.15 1.29 3.714 3.743 7.91a42.422 42.422 0 0 0 2.748 4.146l.019.025a33.52 33.52 0 0 0 1.897 2.298 26.756 26.756 0 0 0 2.498 2.428c1.332 1.13 2.706 2.043 4.108 2.727a11.52 11.52 0 0 0 8.86.542 11.51 11.51 0 0 0 6.232-5.106l6.22 3.034a.879.879 0 1 0 .77-1.58l-6.22-3.033a11.51 11.51 0 0 0 .186-8.055 11.521 11.521 0 0 0-5.88-6.648c-1.403-.684-2.969-1.204-4.68-1.558a26.752 26.752 0 0 0-3.45-.474 33.516 33.516 0 0 0-3.008-.08c-1.66.032-3.316.161-4.96.387zm-3.805 10.09a50.134 50.134 0 0 1-3.299-6.779 50.127 50.127 0 0 1 7.373-1.574c1.24-.167 2.635-.3 4.107-.348l2.709 7.865-6.496-3.168a.879.879 0 0 0-.77 1.58l6.495 3.167-7.865 2.708a41.094 41.094 0 0 1-2.254-3.45v-.001zm14.33-8.303l3.784 10.991-4.991-2.435-3.088-8.966c1.413.03 2.865.152 4.295.41zm-10.944 13.223l8.966-3.088 4.992 2.435-10.99 3.785a27.527 27.527 0 0 1-2.968-3.132zm14.636 6.442a9.775 9.775 0 0 1-7.517-.46 16.87 16.87 0 0 1-2.544-1.546l11.616-4 3.665 1.788a9.764 9.764 0 0 1-5.22 4.218zm1.11-18.148a9.776 9.776 0 0 1 4.99 5.64 9.765 9.765 0 0 1-.11 6.71l-3.664-1.787-4-11.616c.96.272 1.894.619 2.784 1.053z"/></g></g><g transform="translate(-34 -33)"><mask id="ar" fill="#fff"><use xlink:href="#aq"/></mask><g mask="url(#ar)" fill="#228E58" fill-rule="nonzero"><path d="M445.964 52.629c-4.458 3.202-7.372 6.31-7.494 6.44a.99.99 0 0 0 .049 1.402c.13.122 3.255 3.018 7.925 5.901a47.896 47.896 0 0 0 4.936 2.676l.033.015a37.8 37.8 0 0 0 3.109 1.285c1.234.447 2.496.813 3.777 1.096 1.926.42 3.78.603 5.54.541a13.007 13.007 0 0 0 9.12-4.155 12.996 12.996 0 0 0 3.506-8.394l7.81-.273a.992.992 0 0 0-.07-1.982l-7.809.273a13 13 0 0 0-4.084-8.129 13.008 13.008 0 0 0-9.386-3.51c-1.76.062-3.598.374-5.49.927-1.258.372-2.49.825-3.69 1.357a37.84 37.84 0 0 0-3.042 1.515 47.937 47.937 0 0 0-4.74 3.015zm1.555 12.076a56.603 56.603 0 0 1-6.881-5.01 56.595 56.595 0 0 1 6.515-5.478 46.396 46.396 0 0 1 3.91-2.523l6.87 6.405-8.155.284a.992.992 0 0 0 .069 1.983l8.154-.285-6.405 6.868a46.396 46.396 0 0 1-4.077-2.244zm9.884-15.874l9.6 8.95-6.267.22-7.831-7.302a31.076 31.076 0 0 1 4.498-1.868zm-3.9 18.982l7.301-7.83 6.267-.218-8.95 9.598a31.078 31.078 0 0 1-4.618-1.55zm18.004-1.336a11.036 11.036 0 0 1-7.737 3.526 19.047 19.047 0 0 1-3.355-.192l9.46-10.145 4.6-.16a11.024 11.024 0 0 1-2.968 6.971zm-8.512-18.68c2.946-.11 5.814.963 7.964 2.98 1.91 1.77 3.13 4.16 3.447 6.746l-4.6.161-10.145-9.46a18.99 18.99 0 0 1 3.334-.426v-.001z"/></g></g><g transform="translate(-34 -33)"><mask id="at" fill="#fff"><use xlink:href="#as"/></mask><g mask="url(#at)" fill="#228E58" fill-rule="nonzero"><path d="M270.532 278.987c-2.853-4.69-4.321-8.688-4.382-8.856a.99.99 0 0 1 .592-1.272c.168-.06 4.176-1.506 9.601-2.335a47.896 47.896 0 0 1 5.59-.535l.035-.001a37.845 37.845 0 0 1 3.365.032c1.31.07 2.614.227 3.904.467 1.938.365 3.716.922 5.312 1.666a13.007 13.007 0 0 1 6.77 7.388 12.996 12.996 0 0 1-.05 9.097l7.08 3.303a.991.991 0 1 1-.838 1.797l-7.081-3.302a12.996 12.996 0 0 1-6.936 5.887 13.008 13.008 0 0 1-10.011-.437c-1.597-.745-3.166-1.75-4.692-2.998a30.203 30.203 0 0 1-2.867-2.691 37.84 37.84 0 0 1-2.208-2.583 47.937 47.937 0 0 1-3.184-4.627zm6.15-10.508a56.58 56.58 0 0 0-8.292 1.922 56.595 56.595 0 0 0 3.857 7.588 46.396 46.396 0 0 0 2.613 3.851l8.825-3.212-7.394-3.448a.992.992 0 0 1 .838-1.798l7.394 3.448-3.212-8.825c-1.55.08-3.096.239-4.63.474h.001zm2.896 18.473l12.333-4.488-5.683-2.65-10.061 3.661a31.076 31.076 0 0 0 3.41 3.477h.001zm3.826-18.997l3.662 10.06 5.683 2.65-4.489-12.332a31.08 31.08 0 0 0-4.856-.378zm16.051 8.265c-1-2.773-3.069-5.03-5.744-6.269a19.047 19.047 0 0 0-3.163-1.134l4.743 13.034 4.173 1.946c.89-2.446.892-5.102-.009-7.577zm-15.134 13.868a11.038 11.038 0 0 0 8.495.37c2.475-.9 4.507-2.61 5.81-4.863l-4.173-1.946-13.034 4.744c.92.648 1.889 1.223 2.902 1.695z"/></g></g><g transform="translate(-34 -33)"><mask id="av" fill="#fff"><use xlink:href="#au"/></mask><g mask="url(#av)" fill="#228E58" fill-rule="nonzero"><path d="M276.876 194.101c5.103-2.414 9.352-3.486 9.53-3.53a1.02 1.02 0 0 1 1.237.743c.044.178 1.092 4.432 1.357 10.072.094 2.009.075 3.94-.054 5.775l-.003.036a38.926 38.926 0 0 1-.394 3.438 31.07 31.07 0 0 1-.898 3.945c-.582 1.942-1.343 3.701-2.276 5.254a13.379 13.379 0 0 1-8.285 6.131c-3.158.788-6.423.42-9.3-1.03l-4.14 6.889a1.02 1.02 0 1 1-1.748-1.051l4.139-6.89a13.367 13.367 0 0 1-5.276-7.727 13.38 13.38 0 0 1 1.523-10.194c.933-1.553 2.13-3.05 3.571-4.476a31.066 31.066 0 0 1 3.061-2.644c.93-.703 1.89-1.363 2.88-1.98 1.56-.977 3.257-1.9 5.076-2.761zm10.088 7.42a58.22 58.22 0 0 0-1.076-8.688 58.212 58.212 0 0 0-8.176 3.13 47.722 47.722 0 0 0-4.22 2.259l2.336 9.373 4.322-7.194a1.02 1.02 0 0 1 1.75 1.051l-4.323 7.193 9.373-2.337c.094-1.708.08-3.335.014-4.786v-.001zm-19.21.977l3.266 13.098 3.322-5.528-2.664-10.685a31.963 31.963 0 0 0-3.923 3.115h-.001zm19.022 5.956l-10.685 2.664-3.321 5.529 13.098-3.265c.443-1.629.731-3.296.908-4.928zm-10.18 15.531a11.352 11.352 0 0 0 7.03-5.202 19.59 19.59 0 0 0 1.5-3.114l-13.843 3.451-2.439 4.06a11.34 11.34 0 0 0 7.752.805zm-12.56-16.972a11.353 11.353 0 0 0-1.291 8.65 11.34 11.34 0 0 0 4.35 6.465l2.44-4.058-3.452-13.844c-.763.867-1.448 1.8-2.046 2.787h-.001z"/></g></g><g transform="translate(-34 -33)"><mask id="ax" fill="#fff"><use xlink:href="#aw"/></mask><g mask="url(#ax)" fill="#228E58" fill-rule="nonzero"><path d="M197.998 164.883c-.385-4.688-1.381-8.201-1.423-8.349a.85.85 0 0 0-1.052-.582c-.147.042-3.654 1.058-7.834 3.217a41.054 41.054 0 0 0-4.145 2.445l-.026.017a32.55 32.55 0 0 0-2.317 1.717 25.892 25.892 0 0 0-2.472 2.292c-1.16 1.23-2.112 2.511-2.844 3.832a11.149 11.149 0 0 0-.973 8.534 11.14 11.14 0 0 0 4.62 6.282l-3.248 5.858a.85.85 0 1 0 1.487.824l3.247-5.858a11.14 11.14 0 0 0 7.775.588 11.15 11.15 0 0 0 6.723-5.347c.732-1.32 1.314-2.807 1.742-4.442.282-1.088.493-2.194.632-3.31.12-.964.197-1.933.23-2.904a41.089 41.089 0 0 0-.122-4.814zm-9.56-4.188a48.516 48.516 0 0 1 6.72-2.844 48.51 48.51 0 0 1 1.148 7.205c.098 1.206.156 2.561.128 3.987l-7.738 2.219 3.39-6.117a.85.85 0 1 0-1.487-.824l-3.39 6.116-2.219-7.738a39.768 39.768 0 0 1 3.449-2.004h-.001zm7.3 14.27l-10.814 3.1 2.606-4.7 8.822-2.53a26.636 26.636 0 0 1-.614 4.13zm-12.224-11.246l2.53 8.821-2.607 4.7-3.1-10.813c.99-.998 2.073-1.9 3.177-2.708zm-6.967 13.818a9.46 9.46 0 0 1 .825-7.241 16.32 16.32 0 0 1 1.622-2.38l3.278 11.428-1.913 3.451a9.45 9.45 0 0 1-3.812-5.258zm17.482 1.992a9.46 9.46 0 0 1-5.704 4.537 9.45 9.45 0 0 1-6.48-.446l1.914-3.451 11.428-3.278a16.33 16.33 0 0 1-1.158 2.638z"/></g></g><g transform="translate(-34 -33)"><mask id="az" fill="#fff"><use xlink:href="#ay"/></mask><g mask="url(#az)" fill="#228E58" fill-rule="nonzero"><path d="M265.814 111.581c-2.718 4.769-5.504 7.992-5.621 8.127a.99.99 0 0 1-1.4.097c-.134-.117-3.341-2.921-6.697-7.264a47.896 47.896 0 0 1-3.177-4.63l-.019-.03a37.845 37.845 0 0 1-1.603-2.958 30.208 30.208 0 0 1-1.484-3.642c-.62-1.872-.995-3.697-1.118-5.454a13.007 13.007 0 0 1 3.18-9.503 12.996 12.996 0 0 1 7.98-4.365l-.544-7.795a.992.992 0 0 1 1.979-.138l.545 7.794a12.996 12.996 0 0 1 8.51 3.212A13.008 13.008 0 0 1 270.818 94c.123 1.758.005 3.617-.348 5.557a30.203 30.203 0 0 1-.964 3.813 37.84 37.84 0 0 1-1.188 3.183 47.937 47.937 0 0 1-2.503 5.028h-.001zm-12.172-.284a56.603 56.603 0 0 0 5.702 6.32 56.595 56.595 0 0 0 4.766-7.052 46.396 46.396 0 0 0 2.101-4.152l-7.088-6.162.57 8.14a.992.992 0 0 1-1.98.138l-.568-8.14-6.162 7.088a46.396 46.396 0 0 0 2.659 3.82zm14.754-11.49l-9.906-8.61.438 6.255 8.08 7.025a31.076 31.076 0 0 0 1.388-4.67zm-18.47 5.864l7.023-8.08-.438-6.255-8.61 9.905a31.078 31.078 0 0 0 2.024 4.43h.001zm-.554-18.046a11.036 11.036 0 0 0-2.698 8.064c.078 1.115.267 2.225.542 3.316l9.1-10.467-.321-4.593a11.024 11.024 0 0 0-6.623 3.68zm19.467 6.514a11.038 11.038 0 0 0-3.795-7.61 11.025 11.025 0 0 0-7.07-2.722l.32 4.592 10.47 9.1c.12-1.12.152-2.245.075-3.36z"/></g></g><g transform="translate(-34 -33)"><mask id="aB" fill="#fff"><use xlink:href="#aA"/></mask><g mask="url(#aB)" fill="#228E58" fill-rule="nonzero"><path d="M313.671 69.91c.029 5.331-.749 9.396-.782 9.566a.963.963 0 0 1-1.13.762c-.17-.033-4.23-.835-9.163-2.859a46.528 46.528 0 0 1-4.921-2.351l-.03-.017a36.764 36.764 0 0 1-2.786-1.71 29.345 29.345 0 0 1-3.018-2.342c-1.43-1.274-2.632-2.627-3.589-4.046a12.635 12.635 0 0 1-1.94-9.539 12.624 12.624 0 0 1 4.593-7.549l-4.244-6.293a.963.963 0 1 1 1.597-1.077l4.245 6.293a12.624 12.624 0 0 1 8.72-1.432 12.636 12.636 0 0 1 8.118 5.373c.957 1.418 1.76 3.04 2.406 4.843a29.34 29.34 0 0 1 1.041 3.675c.23 1.077.413 2.163.546 3.256.213 1.725.327 3.546.337 5.446v.001zm-10.378 5.672a54.985 54.985 0 0 0 7.866 2.548c.227-1.505.607-4.597.585-8.248a45.07 45.07 0 0 0-.25-4.514l-8.955-1.741 4.432 6.57a.964.964 0 0 1-1.597 1.078l-4.432-6.57-1.741 8.955a45.07 45.07 0 0 0 4.092 1.922zm6.831-16.832l-12.515-2.432 3.406 5.05 10.21 1.984c-.246-1.56-.613-3.1-1.1-4.602h-.001zm-12.69 13.905l1.984-10.21-3.407-5.05-2.432 12.515a30.19 30.19 0 0 0 3.854 2.745h.001zm-9.231-14.913a10.72 10.72 0 0 0 1.646 8.094c.608.9 1.306 1.742 2.067 2.527l2.572-13.227-2.501-3.708a10.71 10.71 0 0 0-3.784 6.314zm19.54-3.976a10.722 10.722 0 0 0-6.888-4.558 10.71 10.71 0 0 0-7.27 1.143l2.5 3.707 13.227 2.572a18.44 18.44 0 0 0-1.569-2.864z"/></g></g><g transform="translate(-34 -33)"><mask id="aD" fill="#fff"><use xlink:href="#aC"/></mask><g mask="url(#aD)" fill="#228E58" fill-rule="nonzero"><path d="M125.518 278.319c-3.002-3.416-4.776-6.468-4.85-6.596a.821.821 0 0 1 .301-1.123c.128-.074 3.19-1.83 7.498-3.287 1.47-.5 2.966-.915 4.484-1.24l.03-.006c.91-.193 1.826-.346 2.749-.458a25.03 25.03 0 0 1 3.253-.181c1.634.02 3.165.218 4.575.596a10.775 10.775 0 0 1 6.587 5.054 10.768 10.768 0 0 1 1.267 7.43l6.253 1.676a.821.821 0 1 1-.425 1.587l-6.254-1.675a10.768 10.768 0 0 1-4.812 5.801 10.778 10.778 0 0 1-8.232 1.084c-1.41-.378-2.835-.972-4.26-1.771a25.026 25.026 0 0 1-2.727-1.783 31.353 31.353 0 0 1-2.172-1.79 39.72 39.72 0 0 1-3.265-3.318zm3.507-9.46a46.9 46.9 0 0 0-6.49 2.763 46.893 46.893 0 0 0 4.24 5.636c.848.967 1.745 1.89 2.686 2.767l6.739-3.891-6.53-1.75a.822.822 0 0 1 .425-1.588l6.53 1.75-3.89-6.739a38.42 38.42 0 0 0-3.71 1.053v-.001zm5.02 14.658l9.418-5.437-5.018-1.345-7.683 4.436a25.748 25.748 0 0 0 3.284 2.346h-.001zm.39-16.052l4.435 7.683 5.019 1.344-5.437-9.417a25.75 25.75 0 0 0-4.017.39zm14.286 4.435a9.144 9.144 0 0 0-5.589-4.289 15.782 15.782 0 0 0-2.744-.47l5.746 9.953 3.684.987a9.134 9.134 0 0 0-1.097-6.181zm-10.354 13.494a9.146 9.146 0 0 0 6.985-.92 9.135 9.135 0 0 0 4.041-4.805l-3.684-.987-9.954 5.746c.845.397 1.717.726 2.612.966z"/></g></g><g transform="translate(-34 -33)"><mask id="aF" fill="#fff"><use xlink:href="#aE"/></mask><g mask="url(#aF)" fill="#228E58" fill-rule="nonzero"><path d="M39.306 157.057c-2.692 3.063-4.282 5.799-4.348 5.913a.736.736 0 0 0 .27 1.007c.114.066 2.86 1.64 6.722 2.947 1.317.449 2.66.82 4.02 1.112l.026.006c.841.177 1.665.315 2.465.41a22.44 22.44 0 0 0 2.917.163c1.465-.018 2.837-.196 4.1-.535a9.662 9.662 0 0 0 5.907-4.531 9.654 9.654 0 0 0 1.136-6.662l5.606-1.502a.737.737 0 1 0-.381-1.423l-5.607 1.502a9.654 9.654 0 0 0-4.314-5.201 9.663 9.663 0 0 0-7.38-.972c-1.265.339-2.542.871-3.82 1.588a22.437 22.437 0 0 0-2.445 1.599 28.11 28.11 0 0 0-1.947 1.605 35.61 35.61 0 0 0-2.927 2.974zm3.143 8.48a42.048 42.048 0 0 1-5.818-2.476 42.042 42.042 0 0 1 3.8-5.053 34.466 34.466 0 0 1 2.41-2.48l6.041 3.488-5.854 1.569a.737.737 0 0 0 .381 1.423l5.855-1.569-3.489 6.042a34.466 34.466 0 0 1-3.326-.943v-.001zm4.502-13.14l8.444 4.874-4.5 1.206-6.888-3.977c.91-.759 1.897-1.48 2.944-2.104v.001zm.349 14.39l3.976-6.887 4.5-1.205-4.875 8.443a23.087 23.087 0 0 1-3.601-.35v-.001zm12.809-3.975a8.198 8.198 0 0 1-5.011 3.845 14.26 14.26 0 0 1-2.461.422l5.151-8.924 3.304-.885a8.19 8.19 0 0 1-.983 5.542zm-9.283-12.098a8.2 8.2 0 0 1 6.262.825 8.19 8.19 0 0 1 3.623 4.308l-3.304.885-8.923-5.152c.757-.356 1.54-.65 2.342-.866z"/></g></g><g transform="translate(-34 -33)"><mask id="aH" fill="#fff"><use xlink:href="#aG"/></mask><g mask="url(#aH)" fill="#228E58" fill-rule="nonzero"><path d="M147.445 102.215c-1.144 3.586-2.553 6.145-2.612 6.252a.68.68 0 0 1-.925.265c-.107-.06-2.658-1.483-5.528-3.918a32.843 32.843 0 0 1-2.79-2.652l-.017-.018a25.95 25.95 0 0 1-1.497-1.755 20.714 20.714 0 0 1-1.515-2.231c-.683-1.167-1.195-2.338-1.527-3.499a8.919 8.919 0 0 1 .777-6.827 8.911 8.911 0 0 1 4.731-4.066l-1.477-5.15a.68.68 0 1 1 1.308-.375l1.477 5.15a8.911 8.911 0 0 1 6.166.941 8.92 8.92 0 0 1 4.278 5.378c.333 1.16.519 2.425.559 3.776.024.9-.01 1.8-.103 2.695a25.9 25.9 0 0 1-.343 2.304 32.871 32.871 0 0 1-.962 3.73zm-8.205 1.545a38.813 38.813 0 0 0 4.725 3.426c.48-.96 1.41-2.954 2.192-5.41a31.5 31.5 0 0 0 .817-3.085l-5.632-3.122 1.542 5.378a.68.68 0 0 1-1.308.375l-1.542-5.378-3.122 5.633c.79.822 1.59 1.556 2.328 2.183zm8.258-9.81l-7.872-4.363 1.185 4.133 6.422 3.56c.167-1.082.27-2.205.265-3.33zm-11.553 6.566l3.559-6.42-1.185-4.134-4.363 7.871a21.31 21.31 0 0 0 1.989 2.683zM133 88.491a7.568 7.568 0 0 0-.66 5.793c.211.737.496 1.454.836 2.147l4.612-8.318-.87-3.035A7.56 7.56 0 0 0 133 88.491zm13.986 1.594a7.569 7.569 0 0 0-3.63-4.563 7.56 7.56 0 0 0-5.131-.819l.87 3.035 8.32 4.611a13.064 13.064 0 0 0-.43-2.264h.001z"/></g></g><g transform="translate(-34 -33)"><mask id="aJ" fill="#fff"><use xlink:href="#aI"/></mask><g mask="url(#aJ)" fill="#228E58" fill-rule="nonzero"><path d="M109.717 53.346c-2.15 3.829-3.212 7.067-3.256 7.203a.793.793 0 0 0 .509 1c.136.044 3.38 1.088 7.741 1.599 1.554.182 3.053.272 4.484.271h.029c.897 0 1.794-.04 2.688-.12a24.166 24.166 0 0 0 3.11-.481c1.538-.347 2.944-.842 4.2-1.481a10.406 10.406 0 0 0 5.206-6.096c.783-2.408.674-4.96-.295-7.272l5.57-2.838a.793.793 0 1 0-.72-1.414l-5.57 2.838a10.397 10.397 0 0 0-5.71-4.512 10.406 10.406 0 0 0-7.992.628c-1.255.64-2.482 1.487-3.667 2.528a24.163 24.163 0 0 0-2.217 2.232 30.272 30.272 0 0 0-1.693 2.127 38.35 38.35 0 0 0-2.417 3.788zm5.21 8.23a45.282 45.282 0 0 1-6.683-1.306 45.276 45.276 0 0 1 2.872-6.175 37.117 37.117 0 0 1 1.982-3.151l7.145 2.321-5.816 2.964a.794.794 0 0 0 .72 1.414l5.817-2.964-2.322 7.146a37.117 37.117 0 0 1-3.715-.25v.001zm1.8-14.851l9.986 3.244-4.47 2.278-8.146-2.647a24.86 24.86 0 0 1 2.63-2.875zm3.59 15.081l2.646-8.145 4.47-2.278-3.244 9.986a24.863 24.863 0 0 1-3.873.437h.001zm12.602-7.056a8.83 8.83 0 0 1-4.418 5.173c-.797.406-1.635.733-2.497.995l3.428-10.554 3.282-1.672a8.82 8.82 0 0 1 .205 6.058zm-12.487-10.665a8.83 8.83 0 0 1 6.781-.533 8.82 8.82 0 0 1 4.78 3.726l-3.28 1.672-10.555-3.429a15.241 15.241 0 0 1 2.274-1.436z"/></g></g></g></svg>