<svg viewBox="0 0 340 340" xmlns="http://www.w3.org/2000/svg"><g fill="none" fill-rule="evenodd"><path d="M279.369 69.207c-2.21-2.1-4.93-3.39-7.856-4.207-3.74 3.172-7.92 5.491-12.455 7.592.34.16.679.318 1.025.464-.075 4.943-3.765 9.844-8.253 12.386-5.598 3.169-12.197 3.87-18.348 5.726-7.55 2.28-11.313 10.045-10.327 17.612 1.378 10.608 10.667 15.864 20.64 16.199 10.525.354 21.131-3.699 28.775-10.997 7.64-7.296 12.221-17.745 12.424-28.346.115-5.964-1.316-12.331-5.625-16.429" fill="#2DA76F"/><path d="M258.54 81.607c6.054 5.857 15.868 5.857 21.92 0 6.053-5.859 6.053-15.356 0-21.213-6.052-5.859-15.866-5.859-21.92 0-6.053 5.857-6.053 15.354 0 21.213" fill="#2DA76F"/><path d="M254 74.505C254 81.957 260.04 88 267.504 88A13.49 13.49 0 0 0 281 74.505C281 67.041 274.957 61 267.504 61c-.281 0-.573.008-.856.028-7.063.438-12.648 6.296-12.648 13.477" fill="#94D9BA"/><path d="M265.008 58.71c1.348-.077 2.823-.369 4.298-.71.576.297 1.264.474 2.07.474.526 0 1.009-.078 1.45-.213l5.435 3.828c4.016 2.277 6.739 6.663 6.739 11.72 0 3.965-1.684 7.524-4.348 9.974-.592.669.601 2.685-.11 3.217l-7.028-18.897-8.123-8.197c-.31-.366 1.047.96.83.544.131-.004-1.344-1.733-1.213-1.74" fill="#2DA76F"/><path fill="#94D9BA" d="M283 73l-.153 27.771L269 105l.371-21.304z"/><path d="M283.871 89.518c-2.59-4.404-7.412-6.785-12.084-8.544-4.673-1.761-12.155-3.231-15.914-6.61-2.438-2.194-4.322-5.475-3.78-8.778.52-3.14 3.255-5.607 6.274-6.183 3.019-.58 8.72-.788 11.142 1.168 1.536 1.24 2.808 4.115 4.346 5.356 3.49 2.819 8.446 4.154 10.354 8.3 2.353 5.115-1.436 11.305.006 16.773l-.344-1.482zm-36.658 120.745l-8.137 11.153 1.469 53.054.966 34.512.302 11.018h-23.245a3.356 3.356 0 0 1-3.367-3.355c0-.214.024-.452.076-.692a3.296 3.296 0 0 1 1.834-2.335l9.656-4.636 2.725-1.305-6.254-33.207-9.718-51.686a30.427 30.427 0 0 1 2.764-19.355L247.29 142l13.575 4.673L287 155.677l-39.787 54.586z" fill="#2DA76F"/><path d="M295.31 320h-17.718c-1.29 0-2.475-.913-2.643-2.203a2.589 2.589 0 0 1 1.291-2.621l10.856-6.072-.022-.063-13.128-34.337L255 225.133a30.282 30.282 0 0 1-1.799-14.308c.11-.986.272-1.974.483-2.948l13.004-60.316.124-.561 21.204 1.486c5.437.456 10.211 8.485 11.669 15.698.725 3.585.174 7.31-1.4 10.608l-17.95 37.583 11.875 62.329 6.524 34.337.535 2.787.472 2.899c.47 2.762-1.638 5.273-4.431 5.273" fill="#2DA76F"/><path d="M255.07 105.861l-37.085 3.989-18.3-50.664a3.473 3.473 0 0 0-2.012-1.965c-2.507-.93-5.08 1.214-4.62 3.85l11.28 60.218a8.105 8.105 0 0 0 9.015 6.644l46.056-.568c6.996-.9 11.347-8.07 8.917-14.697a10.988 10.988 0 0 0-13.251-6.807" fill="#94D9BA"/><path d="M240 160l1.694-29.075c-1.242-8.749 1.644-17.577 7.83-23.962 4.481-4.624 10.742-7.153 17.223-6.952l22.273.684c5.405.165 9.51 4.244 8.924 8.87l-1.067 50.055L240 160z" fill="#E4E9FF"/><path d="M331.645 145.415l-33.572 51.996a3.529 3.529 0 0 1-2.96 1.589c-1.269 0-2.52-.657-3.175-1.931a3.467 3.467 0 0 1-.133-2.825l21.688-49.814-7.563-5.597-22.9-16.965c-3.803-1.969-6.03-5.807-6.03-9.815 0-1.432.293-2.89.894-4.297 2.815-6.544 11.056-8.816 16.898-4.664l23.957 21.522 10.815 9.725c3.588 2.548 4.51 7.425 2.081 11.076" fill="#94D9BA"/><path fill="#195B3D" d="M267 56.818L287 35l-2.565 32zm23.998-28.424a2.5 2.5 0 1 1-4.997.211 2.5 2.5 0 0 1 4.997-.211"/><path fill="#94D9BA" d="M98 52v22H80V57.576z"/><path d="M71.05 46.691c.657 7.985 7.657 13.917 15.652 13.26a14.465 14.465 0 0 0 8.27-3.46c.59-.508 1.142-1.07 1.641-1.685a14.417 14.417 0 0 0 3.338-10.496 14.462 14.462 0 0 0-9.392-12.397 13.73 13.73 0 0 0-2.584-.706l-.037-.008a14.879 14.879 0 0 0-3.615-.15 13.48 13.48 0 0 0-.922.11 14.503 14.503 0 0 0-6.768 2.866c-3.746 2.903-6.002 7.578-5.583 12.666" fill="#94D9BA"/><path d="M73.178 25.065c1.8-.267 3.68.294 4.933 1.577a5.883 5.883 0 0 1 1.278 1.931c.424 1.062 1.514 1.733 2.682 1.79 2.127.1 4.3.155 6.36.533.2.024.397.043.593.073l.034.01c.879.15 1.742.37 2.566.68 5.07 1.825 8.852 6.383 9.326 11.983a13.671 13.671 0 0 1-3.314 10.142c-.06.083-.135.155-.198.216l-10.22-9.858-.394.99s-.014.097-.042.1l-.077.196a1.768 1.768 0 0 1-1.588 1.098c-1.028.034-1.867-.788-1.825-1.79l.206-4.955-.026-.299c-.131-1.565-1.552-2.737-3.161-2.61-1.776.142-3.849.613-5.568-.03-.137-.05-.157-.044-.131-.02-5.899-.728-8.306-10.74-1.434-11.757" fill="#195B3D"/><path d="M74.322 36.407c.063.009.13.024.195.03.42.324-.105.057-.195-.03" fill="#6F2677"/><path d="M85.015 43.87a4.5 4.5 0 1 0 8.97-.741 4.5 4.5 0 0 0-8.97.742" fill="#94D9BA"/><path d="M76.99 71C60.425 71 47 84.322 47 100.757V176h86v-75.243C133 84.322 119.574 71 103.01 71H76.99z" fill="#E4E9FF"/><path d="M46.5 7.926a6.312 6.312 0 0 1 .014 4.89L27.59 58.68a.459.459 0 0 0 .26.593l13.95 5.702L32.714 87l-27.3-12.006c-5.028-2.22-6.947-8.346-4.07-13.015L35.11 7.047a6.436 6.436 0 0 1 7.907-2.568A6.356 6.356 0 0 1 46.5 7.926h.5" fill="#94D9BA"/><path d="M72.564 76.935c6.445 2.633 9.284 10.154 6.166 16.36-2.805 5.593-22.306 3.804-28.09 1.439l-.287-.117L32 86.627 40.933 65l31.63 11.935z" fill="#E4E9FF"/><path d="M133.5 7.926a6.313 6.313 0 0 0-.014 4.89L152.41 58.68a.457.457 0 0 1-.26.593l-13.95 5.702L147.285 87l27.301-12.006c5.027-2.22 6.948-8.346 4.07-13.015L144.889 7.047a6.435 6.435 0 0 0-7.906-2.568 6.362 6.362 0 0 0-3.483 3.447" fill="#94D9BA"/><path d="M106.438 76.935c-6.448 2.633-9.285 10.154-6.169 16.36 2.807 5.593 22.306 3.804 28.09 1.439l.29-.117L147 86.627 138.067 65l-31.63 11.935z" fill="#E4E9FF"/><path fill="#2DA76F" d="M82 30.652L104 9l-4.06 33zM108 2.5a2.5 2.5 0 1 1-4.999.001A2.5 2.5 0 0 1 108 2.5"/><path d="M147.51 313.587c-.31 1.412-1.626 2.354-3.037 2.354h-20.028l-.289-10.168v-.415l-1.567-56.881c-.097-3.484-21.825-58.692-21.825-58.692H87.366l-9.18 51.026a95.33 95.33 0 0 1-1.972 8.644l-15.66 55.903-.02.038-.077.302.155.075 10.537 5.366a2.55 2.55 0 0 1 1.373 2.279c0 .697-.273 1.337-.718 1.788a2.436 2.436 0 0 1-1.74.735H48.509l.678-10.168.019-.377v-.038l4.562-67.088a94.958 94.958 0 0 0-.928-20.955l-6.59-41.783 88.075.415s9.742 68.724 8.796 73.564l-8.45 55.847v.038l-.038.415.115-.038 10.944 4.313c1.334.507 2.144 1.977 1.817 3.501" fill="#1F734D"/></g></svg>