<svg width="60" height="47" xmlns="http://www.w3.org/2000/svg"><defs><filter x="-16%" y="-25%" width="131.9%" height="150%" filterUnits="objectBoundingBox" id="a"><feOffset dy="8" in="SourceAlpha" result="shadowOffsetOuter1"/><feGaussianBlur stdDeviation="8" in="shadowOffsetOuter1" result="shadowBlurOuter1"/><feColorMatrix values="0 0 0 0 0 0 0 0 0 0 0 0 0 0 0 0 0 0 0.1 0" in="shadowBlurOuter1" result="shadowMatrixOuter1"/><feMerge><feMergeNode in="shadowMatrixOuter1"/><feMergeNode in="SourceGraphic"/></feMerge></filter></defs><path d="M39.927 26.595c-.464-3.094-3.095-5.299-6.082-5.44.747-2.775 2.56-3.878 4.766-4.518.212-.071.177-.283.177-.283l-.355-2.207s-.036-.177-.32-.142c-7.61.853-12.766 6.65-11.806 13.691.888 4.871 4.693 6.756 8.213 6.258 3.52-.568 5.94-3.84 5.405-7.36l.002.001zm-24.29-5.44c.712-2.775 2.597-3.88 4.767-4.52.212-.07.177-.283.177-.283l-.32-2.205s-.036-.177-.32-.142c-7.61.82-12.73 6.615-11.84 13.656.923 4.908 4.764 6.793 8.25 6.294 3.52-.567 5.937-3.84 5.368-7.36a6.346 6.346 0 0 0-6.08-5.44h-.002z" transform="translate(6 -9)" filter="url(#a)" fill="#000" fill-rule="evenodd" opacity=".25"/></svg>