<svg width="132" height="16" xmlns="http://www.w3.org/2000/svg"><g fill="#FFF" fill-rule="evenodd"><path d="M11.006 12.119a5.144 5.144 0 0 1-3.663 1.518A5.14 5.14 0 0 1 4.02 12.43l1.519-1.52h6.467c-.3.432-.633.838-1.001 1.208zM2.163 8.45c0-1.385.539-2.687 1.517-3.666a8.872 8.872 0 0 1 1.206-1.003v6.475l-1.518 1.52A5.154 5.154 0 0 1 2.163 8.45zm5.715-6.187V7.26L5.81 9.331V3.205c.668-.374 1.37-.685 2.068-.941zm4.706 7.721h-6.12l2.068-2.07h4.992c-.257.7-.567 1.402-.94 2.07zM10.907 1.42c1.718-.346 3.21-.45 3.939-.48-.03.73-.134 2.223-.48 3.944-.13.645-.302 1.364-.53 2.106h-4.38l2.69-2.693a.464.464 0 0 0-.653-.655l-2.69 2.693V1.951c.74-.228 1.458-.401 2.104-.531zm4.877-.957A.465.465 0 0 0 15.322 0c-.083 0-2.07.006-4.58.508-.893.18-1.74.4-2.533.658l-.016.006a17.54 17.54 0 0 0-1.469.55 14.027 14.027 0 0 0-1.636.829c-.79.47-1.48.997-2.062 1.579A6.075 6.075 0 0 0 1.238 8.45c0 1.477.52 2.875 1.473 3.982l-2.576 2.58a.464.464 0 0 0 .654.654l2.577-2.579a6.056 6.056 0 0 0 3.977 1.475c1.63 0 3.164-.636 4.317-1.79a10.439 10.439 0 0 0 1.603-2.108c.29-.493.558-1.025.801-1.594.2-.467.384-.958.551-1.472l.004-.014c.259-.794.48-1.642.658-2.538.502-2.512.507-4.5.507-4.584zM36.53 13.278c-.543.41-1.219.616-2.027.616h-4.395V8.736h4.357c.505 0 .979.082 1.42.247.443.164.796.436 1.061.815.265.379.398.885.398 1.516 0 .898-.271 1.552-.814 1.964zm-6.422-10.42h4.224c.746 0 1.32.199 1.724.597.404.397.606.944.606 1.64 0 .821-.224 1.441-.672 1.858-.448.418-1 .632-1.658.645h-4.224v-4.74zm8.126 6.873a3.264 3.264 0 0 0-.852-1.09 3.398 3.398 0 0 0-1.203-.636l-.176-.048a2.847 2.847 0 0 0 1.53-1.44c.228-.48.341-.986.341-1.517 0-1.024-.3-1.824-.9-2.399-.599-.575-1.43-.862-2.49-.862h-5.02a.547.547 0 0 0-.398.17.547.547 0 0 0-.17.399v12.135c0 .152.057.285.17.398.114.115.247.171.398.171h5.096a5.36 5.36 0 0 0 1.496-.208 3.76 3.76 0 0 0 1.279-.645c.372-.29.669-.673.89-1.147.221-.474.331-1.04.331-1.698 0-.619-.107-1.146-.322-1.583zM42.42 2.857v4.76h5.475c.151 0 .284.057.397.17.114.114.17.247.17.4a.508.508 0 0 1-.17.397.577.577 0 0 1-.397.152H42.42v5.158h6.328c.15 0 .284.056.397.17.113.114.17.247.17.399a.508.508 0 0 1-.17.398.58.58 0 0 1-.397.151h-6.953a.541.541 0 0 1-.397-.17.543.543 0 0 1-.17-.399V2.308c0-.153.056-.285.17-.4a.545.545 0 0 1 .397-.17h6.953c.15 0 .284.054.397.162.113.107.17.243.17.408a.508.508 0 0 1-.17.398.58.58 0 0 1-.397.151H42.42M53.66 10.063l2.605-6.483 2.652 6.483H53.66zm8.214 4.19L56.892 2.062a.675.675 0 0 0-.218-.276.546.546 0 0 0-.33-.104.624.624 0 0 0-.332.086.626.626 0 0 0-.237.294l-5.001 12.25a.498.498 0 0 0-.02.228l.013.08a.554.554 0 0 0 .14.27c.088.095.22.143.397.143a.513.513 0 0 0 .304-.095.622.622 0 0 0 .207-.285l1.396-3.47h6.163l1.42 3.47c.05.114.123.206.218.275.094.07.205.105.331.105a.6.6 0 0 0 .398-.143c.114-.095.17-.23.17-.407a.717.717 0 0 0-.037-.228zM65.302 3.86V14.5c0 .14-.05.26-.152.361-.1.1-.227.151-.378.151a.505.505 0 0 1-.53-.512V2.308c0-.19.056-.333.17-.428a.578.578 0 0 1 .38-.141c.074 0 .157.015.245.046a.417.417 0 0 1 .209.162l8.164 11.009V2.27a.5.5 0 0 1 .16-.38.524.524 0 0 1 .37-.151c.163 0 .293.05.388.151.094.101.142.228.142.38v12.136c0 .189-.06.338-.18.446a.594.594 0 0 1-.407.16.727.727 0 0 1-.247-.047.442.442 0 0 1-.207-.142L65.302 3.86M81.687 15.202c-.96.013-1.793-.139-2.5-.455-.708-.316-1.384-.79-2.027-1.422a.685.685 0 0 1-.162-.19.52.52 0 0 1-.065-.266c0-.151.059-.29.18-.417a.55.55 0 0 1 .406-.189c.152 0 .291.063.417.19a5.104 5.104 0 0 0 1.676 1.213 4.91 4.91 0 0 0 2.018.418c.606 0 1.146-.095 1.62-.285.473-.19.849-.462 1.126-.815.278-.355.417-.765.417-1.233 0-.582-.158-1.053-.474-1.413-.315-.36-.732-.657-1.25-.89a13.358 13.358 0 0 0-1.413-.54l-.31-.096a13.911 13.911 0 0 1-1.477-.522 5.51 5.51 0 0 1-1.251-.72 2.943 2.943 0 0 1-.852-1.053c-.202-.417-.303-.923-.303-1.517 0-.67.177-1.264.53-1.783.353-.518.856-.925 1.506-1.222.65-.297 1.405-.446 2.263-.446.746 0 1.462.126 2.15.379.626.23 1.134.56 1.525.987l.114.132c.19.202.284.385.284.55 0 .126-.064.253-.19.379a.578.578 0 0 1-.416.19.438.438 0 0 1-.322-.133 3.32 3.32 0 0 0-.815-.71 4.122 4.122 0 0 0-1.088-.484 4.495 4.495 0 0 0-1.242-.172 4.42 4.42 0 0 0-1.6.275c-.474.184-.846.446-1.118.787-.27.342-.406.753-.406 1.233 0 .531.15.967.454 1.308.303.342.701.623 1.193.844a17.84 17.84 0 0 0 1.572.616c.543.152 1.064.326 1.563.522.499.196.94.439 1.326.73.385.29.688.658.909 1.1.221.442.332.999.332 1.67 0 .643-.184 1.225-.55 1.744-.366.518-.868.928-1.506 1.232-.637.304-1.386.461-2.244.474M97.522 1.89a.578.578 0 0 0-.398-.151h-9.016a.578.578 0 0 0-.397.151.484.484 0 0 0-.17.38c0 .164.055.297.17.397a.578.578 0 0 0 .397.152h3.921v11.624c0 .152.054.285.16.398.108.115.25.171.427.171a.564.564 0 0 0 .417-.17.545.545 0 0 0 .17-.399V2.82h3.921a.604.604 0 0 0 .398-.142.48.48 0 0 0 .17-.388.506.506 0 0 0-.17-.399M100.844 10.063l2.605-6.483 2.652 6.483h-5.257zm8.213 4.19l-4.981-12.192a.675.675 0 0 0-.218-.276.547.547 0 0 0-.332-.104.627.627 0 0 0-.331.086.633.633 0 0 0-.236.294l-5.002 12.25a.49.49 0 0 0-.018.228l.012.08a.56.56 0 0 0 .14.27c.087.095.22.143.397.143a.51.51 0 0 0 .303-.095.619.619 0 0 0 .208-.285l1.395-3.47h6.165l1.419 3.47c.05.114.123.206.217.275.095.07.206.105.333.105a.6.6 0 0 0 .397-.143.502.502 0 0 0 .17-.407.718.718 0 0 0-.038-.228zM112.619 13.894h6.136c.152 0 .285.054.398.16.114.108.17.238.17.39 0 .164-.056.3-.17.408a.561.561 0 0 1-.398.16h-6.762a.532.532 0 0 1-.406-.17.56.56 0 0 1-.162-.399V2.308c0-.153.057-.285.17-.4a.593.593 0 0 1 .437-.17c.15 0 .287.058.406.17.12.115.18.247.18.4v11.586M131.484 14.084l-5.297-6.714 4.957-4.645a.539.539 0 0 0 .009-.777.511.511 0 0 0-.389-.171.578.578 0 0 0-.416.19l-7.653 7.24V2.327a.567.567 0 0 0-.17-.417.569.569 0 0 0-.417-.17.589.589 0 0 0-.435.17.567.567 0 0 0-.17.417v12.098c0 .165.052.304.16.417.108.115.25.171.427.171a.562.562 0 0 0 .416-.17.638.638 0 0 0 .19-.418v-3.783l2.575-2.413 5.286 6.652a.52.52 0 0 0 .416.208c.139 0 .281-.05.426-.151.145-.101.218-.253.218-.455a.686.686 0 0 0-.133-.398"/></g></svg>