<svg width="100%" height="100%" preserveAspectRatio="xMidYMid meet" viewBox="0 0 54 54" xmlns="http://www.w3.org/2000/svg"><g fill="#FFF" fill-rule="evenodd"><path d="M24.846 36.51a1.037 1.037 0 1 0-1.468-1.468 1.037 1.037 0 1 0 1.468 1.468M40.742 11.792c0 5.166-4.208 9.375-9.375 9.375s-9.375-4.209-9.375-9.375c0-5.167 4.208-9.375 9.375-9.375s9.375 4.208 9.375 9.375m-20.833 0c0 6.312 5.135 11.458 11.458 11.458s11.459-5.135 11.459-11.458S37.69.333 31.367.333C25.044.333 19.91 5.47 19.91 11.792"/><path d="M7.065 36.615a1.04 1.04 0 0 1 1.292-.146c.177.114-.334-.365 9.02 8.979.417.417.396 1.083.011 1.469l-4.302 4.24-10.23-10.313 4.21-4.23zm13.052-6.917c1.594 0 3.136.323 4.584.958.135.063.27.084.416.084h11.834a2.09 2.09 0 0 1 2.083 2.083 2.09 2.09 0 0 1-2.083 2.083h-8.5c-.573 0-1.042.47-1.042 1.042 0 .573.469 1.042 1.042 1.042h8.5a4.166 4.166 0 0 0 4.166-4.167c0-.188-.01-.365-.041-.542 5.947-6.114 6.78-6.968 6.822-7.01a2.092 2.092 0 0 1 2.938-.25c.875.74.99 2.062.24 2.937l-9.344 11.167a7.246 7.246 0 0 1-5.052 2.031H22.846c-1.354 0-2.645.521-3.614 1.459l-.886.854-8.156-8.156c1.906-3.573 5.48-5.615 9.927-5.615zm-7.781 23.656a1.047 1.047 0 0 0 1.469.01l5.052-4.979a3.152 3.152 0 0 0 .74-3.229l1.083-1.052a3.11 3.11 0 0 1 2.166-.875H36.69a9.35 9.35 0 0 0 6.542-2.656c.073-.073-.552.667 9.448-11.281a4.175 4.175 0 0 0-.5-5.875 4.173 4.173 0 0 0-5.844.468l-6.146 6.313a4.168 4.168 0 0 0-3.24-1.552H25.337a13.526 13.526 0 0 0-5.219-1.042c-5.01 0-9.396 2.313-11.74 6.656a3.107 3.107 0 0 0-2.78.865l-4.959 4.98a1.037 1.037 0 0 0 0 1.468l11.698 11.781z"/></g></svg>