<svg viewBox="0 0 40 40" xmlns="http://www.w3.org/2000/svg"><g fill="#FFF" fill-rule="evenodd"><path d="M10.604 19.493c.866 0 1.56.694 1.56 1.56 0 .865-.694 1.56-1.56 1.56a1.559 1.559 0 1 1 0-3.119zm9.357-11.719V4.702c0-.39-.28-.741-.663-.796a.78.78 0 0 0-.896.772v3.12a.78.78 0 0 0 .896.771c.382-.054.663-.405.663-.795z"/><path d="M10.628 23.392a2.346 2.346 0 0 0 2.339-2.34 2.346 2.346 0 0 0-2.34-2.339 2.346 2.346 0 0 0-2.339 2.34 2.341 2.341 0 0 0 2.34 2.339zm0-3.12c.429 0 .78.352.78.78 0 .43-.351.78-.78.78a.782.782 0 0 1-.78-.78c0-.428.343-.78.78-.78zm3.898-4.677h6.238c.429 0 .78-.351.78-.78a.782.782 0 0 0-.78-.78h-6.238a.782.782 0 0 0-.78.78c0 .429.344.78.78.78zm9.334 0c.428 0 .78-.351.78-.78a.783.783 0 0 0-.78-.78c-.43 0-.78.351-.78.78 0 .429.35.78.78.78z"/><path d="M2.44 28.538h2.316a13.222 13.222 0 0 0 3.51 4.647v4.296a2.44 2.44 0 0 0 2.44 2.441h2.004c.99 0 1.8-.803 1.8-1.801v-1.996c.773.14 1.552.21 2.34.21h4.678c.788 0 1.568-.07 2.34-.21v1.996c0 .99.803 1.801 1.8 1.801h2.005a2.44 2.44 0 0 0 2.44-2.44v-4.297c2.55-2.19 4.312-5.762 4.632-9.411a8.57 8.57 0 0 0 .03-.452c1.217-.149 2.66-.648 3.564-1.552a5.463 5.463 0 0 0 1.17-5.988 5.393 5.393 0 0 0-1.146-1.708c-.281-.28-.733-.335-1.045-.093a.778.778 0 0 0-.078 1.17c.358.358.64.771.834 1.239a3.892 3.892 0 0 1-.834 4.273c-.507.507-1.505.928-2.472 1.076-.421-5.669-4.694-10.542-10.425-11.969a6.389 6.389 0 0 0 1.076-3.532A6.245 6.245 0 0 0 19.181 0a6.246 6.246 0 0 0-6.238 6.238 6.28 6.28 0 0 0 1.03 3.43c-1.1.242-2.16.624-3.174 1.139a5.46 5.46 0 0 0-4.748-3.01.879.879 0 0 0-.904.881v7.688a13.366 13.366 0 0 0-1.358 3.907H2.441A2.44 2.44 0 0 0 0 22.713v3.392a2.438 2.438 0 0 0 2.44 2.433zM19.206 1.559a4.682 4.682 0 0 1 4.678 4.679 4.677 4.677 0 0 1-4.678 4.678c-2.542 0-4.679-2.05-4.679-4.678a4.682 4.682 0 0 1 4.679-4.679zM1.559 22.713a.88.88 0 0 1 .882-.88h1.941a.876.876 0 0 0 .866-.765 11.608 11.608 0 0 1 1.348-4.101.891.891 0 0 0 .11-.421V9.435a3.906 3.906 0 0 1 2.931 2.62.88.88 0 0 0 .523.545.87.87 0 0 0 .748-.062 11.557 11.557 0 0 1 4.289-1.505 6.198 6.198 0 0 0 3.992 1.443 6.205 6.205 0 0 0 3.899-1.373c5.762 1.014 10.097 5.895 10.136 11.486 0 .35-.015.701-.039 1.045-.288 3.36-1.941 6.635-4.312 8.553a.87.87 0 0 0-.32.678v4.624a.88.88 0 0 1-.88.881h-1.427a.81.81 0 0 1-.811-.81v-3.977a.744.744 0 0 0-.414-.67.786.786 0 0 0-1.146.693v.936c-.764.156-1.551.234-2.339.234h-4.678c-.788 0-1.575-.078-2.34-.234v-.912c0-.39-.28-.741-.662-.796a.78.78 0 0 0-.897.772v3.883a.88.88 0 0 1-.881.881h-1.365a.88.88 0 0 1-.88-.88v-4.625a.853.853 0 0 0-.328-.678 11.78 11.78 0 0 1-3.486-4.67.873.873 0 0 0-.803-.538H2.441a.875.875 0 0 1-.882-.882v-3.384z"/></g></svg>