<svg width="38" height="24" xmlns="http://www.w3.org/2000/svg"><path d="M6.857 24c1.46 0 2.857-.51 4.19-1.53 1.334-1.02 2.524-2.295 3.572-3.825 1.048-1.53 1.873-3.075 2.476-4.637.603-1.562.905-2.853.905-3.873 0-3.314-.81-5.832-2.429-7.553C13.952.86 11.778 0 9.048 0 7.778 0 6.428.319 5 .956c-1.429.638-2.619 1.498-3.571 2.582C.476 4.622 0 5.865 0 7.267 0 8.35.238 9.13.714 9.61a6.356 6.356 0 0 0 1.667 1.195c.38-.255.825-.43 1.333-.526a7.329 7.329 0 0 1 1.334-.144c1.079 0 1.952.271 2.619.813.666.542 1 1.164 1 1.865 0 .892-.238 1.641-.715 2.247-.476.605-1.127 1.131-1.952 1.577-.635.255-1.413.542-2.333.861-.921.319-1.381 1.211-1.381 2.677 0 1.403.444 2.39 1.333 2.964.889.574 1.968.861 3.238.861zm20 0c1.46 0 2.857-.51 4.19-1.53 1.334-1.02 2.524-2.295 3.572-3.825 1.048-1.53 1.873-3.075 2.476-4.637.603-1.562.905-2.853.905-3.873 0-3.314-.81-5.832-2.429-7.553C33.952.86 31.778 0 29.048 0c-1.27 0-2.62.319-4.048.956-1.429.638-2.619 1.498-3.571 2.582C20.476 4.622 20 5.865 20 7.267c0 1.084.238 1.864.714 2.343a6.356 6.356 0 0 0 1.667 1.195c.38-.255.825-.43 1.333-.526a7.329 7.329 0 0 1 1.334-.144c1.079 0 1.952.271 2.619.813.666.542 1 1.164 1 1.865 0 .892-.238 1.641-.715 2.247-.476.605-1.127 1.131-1.952 1.577-.635.255-1.413.542-2.333.861-.921.319-1.381 1.211-1.381 2.677 0 1.403.444 2.39 1.333 2.964.889.574 1.968.861 3.238.861z" fill="#84D3AF" fill-rule="nonzero"/></svg>