<svg width="192" height="24" xmlns="http://www.w3.org/2000/svg"><path d="M22.8.6c.429 0 .686.343.686.686 0 .085-.086 3-.772 6.6-.257 1.2-.6 2.485-.943 3.6A10.746 10.746 0 0 1 21 13.629c-.343.857-.771 1.628-1.2 2.4a13.914 13.914 0 0 1-2.314 3c-1.629 1.628-3.943 2.571-6.257 2.571-2.058 0-4.115-.771-5.743-2.143L1.714 23.23a.673.673 0 0 1-.943 0 .673.673 0 0 1 0-.943L4.543 18.6C3.17 17.057 2.4 15 2.4 12.857c0-2.314.943-4.628 2.571-6.257.858-.857 1.886-1.629 3-2.314.772-.429 1.543-.857 2.4-1.2.686-.257 1.458-.515 2.143-.772 1.2-.343 2.4-.685 3.686-.943 3.3-.707 6.024-.766 6.52-.77zm96 2.143c1.114 0 2.143.171 3.171.6 1.029.428 1.8.943 2.315 1.628.257.343.428.6.428.772a.926.926 0 0 1-.257.6.778.778 0 0 1-.6.257.655.655 0 0 1-.428-.171c-.515-.6-1.115-1.029-1.972-1.458-.771-.342-1.714-.514-2.571-.514-1.372 0-2.4.257-3.257.857-.858.6-1.286 1.372-1.286 2.4 0 1.029.428 1.886 1.2 2.4.771.6 1.971 1.115 3.428 1.543 1.286.343 2.4.772 3.172 1.2.771.429 1.543.943 2.057 1.714.514.772.771 1.715.771 2.915 0 .943-.257 1.8-.771 2.571-.514.772-1.286 1.372-2.229 1.8-.942.429-1.971.686-3.257.686a9.171 9.171 0 0 1-3.514-.686c-1.029-.428-1.971-1.114-2.914-2.057-.257-.171-.343-.429-.343-.686 0-.257.086-.428.257-.6a.778.778 0 0 1 .6-.257c.257 0 .429.086.6.257 1.457 1.543 3.171 2.4 5.314 2.4 1.286 0 2.4-.343 3.257-.943.858-.6 1.286-1.457 1.286-2.4 0-.771-.171-1.457-.686-1.971-.428-.514-1.028-.943-1.714-1.286-.686-.343-1.543-.685-2.657-1.028-1.2-.343-2.143-.772-2.914-1.115-.772-.428-1.457-.942-1.972-1.714-.514-.686-.771-1.628-.771-2.657 0-.943.257-1.8.771-2.571.515-.772 1.286-1.372 2.229-1.8a7.897 7.897 0 0 1 3.257-.686zm58.543.343c.257 0 .428.085.6.257a.778.778 0 0 1 .257.6v9.943l11.143-10.457a.778.778 0 0 1 .6-.258c.171 0 .428.086.6.258.171.171.257.342.257.514a.778.778 0 0 1-.257.6l-7.2 6.686 7.628 9.685c.086.172.172.343.172.6 0 .257-.086.515-.257.686-.172.171-.429.257-.686.257-.257 0-.429-.086-.6-.343l-7.629-9.6-3.771 3.515v5.4a.778.778 0 0 1-.257.6.778.778 0 0 1-.6.257.778.778 0 0 1-.6-.257.778.778 0 0 1-.257-.6V3.943c0-.257.085-.429.257-.6a.778.778 0 0 1 .6-.257zm-14.572 0c.258 0 .429.085.6.257a.778.778 0 0 1 .258.6v16.8l8.914-.086c.257 0 .428.086.6.257a.778.778 0 0 1 .257.6.778.778 0 0 1-.257.6.778.778 0 0 1-.6.257h-9.772a.778.778 0 0 1-.6-.257.778.778 0 0 1-.257-.6V3.943c0-.257.086-.429.257-.6a.778.778 0 0 1 .6-.257zM150.257 3c.172 0 .343.086.514.171.172.086.258.258.343.429l7.372 17.571c0 .172.085.258.085.343a.778.778 0 0 1-.257.6.778.778 0 0 1-.6.257c-.171 0-.343-.085-.514-.171-.171-.086-.257-.257-.343-.429l-2.057-5.057h-8.914l-2.057 5.057c-.172.343-.429.515-.772.515-.257 0-.428-.086-.6-.172-.086-.085-.171-.343-.257-.514v-.343l7.2-17.743c.171-.343.429-.514.857-.514zm-42.6.086c.257 0 .429.085.6.257a.57.57 0 0 1 .17.428l.002 17.658c0 .257-.086.514-.258.685a.778.778 0 0 1-.6.257c-.085 0-.257 0-.342-.085-.086-.086-.172-.086-.258-.172L95.143 6.171V21.6c0 .171-.086.343-.257.514-.172.172-.343.257-.515.257-.171 0-.428-.085-.514-.257-.171-.171-.257-.343-.257-.514V3.943c0-.257.086-.429.257-.6a.778.778 0 0 1 .6-.257c.257 0 .514.085.686.343L106.97 19.37V3.943c0-.257.086-.429.258-.514 0-.258.171-.343.428-.343zM82.03 3c.171 0 .342.086.514.171.171.086.257.258.343.429.085-.086 7.285 17.571 7.285 17.571 0 .172.086.258.086.343a.778.778 0 0 1-.257.6.778.778 0 0 1-.6.257c-.171 0-.343-.085-.514-.171-.172-.086-.257-.257-.343-.429l-2.057-5.057h-8.829L75.6 21.771c-.171.343-.429.515-.771.515-.258 0-.429-.086-.6-.172-.172-.085-.172-.343-.258-.514v-.343l7.2-17.743c.172-.343.429-.514.858-.514zm59.142 0v.086c.258 0 .429.085.6.257a.778.778 0 0 1 .258.6.778.778 0 0 1-.258.6c-.171.171-.342.171-.6.171h-5.657V21.43a.778.778 0 0 1-.257.6.778.778 0 0 1-.6.257.778.778 0 0 1-.6-.257.778.778 0 0 1-.257-.6v-16.8h-5.657a.778.778 0 0 1-.6-.258.778.778 0 0 1-.257-.6c0-.257.085-.428.257-.514a.778.778 0 0 1 .6-.257h13.028zm-70.028.086c.428 0 .771.343.857.771v.086a.778.778 0 0 1-.257.6.778.778 0 0 1-.6.257H61.97v6.857h7.886c.429 0 .772.343.857.772v.085a.778.778 0 0 1-.257.6.778.778 0 0 1-.6.257h-7.886v7.458c0-.172 9.172-.172 9.172-.172.257 0 .428.086.6.257a.778.778 0 0 1 .257.6.778.778 0 0 1-.257.6c-.172.086-.343.172-.6.172H61.114a.778.778 0 0 1-.6-.257.778.778 0 0 1-.257-.6V3.943c0-.257.086-.429.257-.6a.778.778 0 0 1 .6-.257h10.029zm-20.572 0c1.543 0 2.743.428 3.6 1.285.858.858 1.286 1.972 1.286 3.429 0 .943-.257 1.8-.686 2.571-.428.772-1.2 1.372-2.057 1.715 1.115.257 1.972.857 2.657 1.628.686.857 1.029 1.886 1.029 3.172 0 1.8-.514 3.171-1.629 4.028-1.114.857-2.485 1.372-4.114 1.372h-7.371a.778.778 0 0 1-.6-.257.778.778 0 0 1-.257-.6V3.943c0-.257.085-.429.257-.6a.778.778 0 0 1 .6-.257h7.285zm-.085 10.028h-6.343v7.457c0 .086 6.428.086 6.428.086 1.2 0 2.229-.343 3-.943.772-.6 1.115-1.543 1.115-2.828 0-1.286-.429-2.229-1.2-2.829-.772-.6-1.8-.943-3-.943zM18 16.371H8.657L6.43 18.6c1.371 1.114 3 1.714 4.8 1.714 1.971 0 3.942-.857 5.314-2.228.514-.515.943-1.115 1.457-1.715zM7.629 6c-.6.429-1.2.943-1.715 1.457-1.457 1.457-2.228 3.343-2.228 5.314 0 1.8.6 3.515 1.714 4.886l2.229-2.228zm74.4-.257l-3.772 9.343h7.629l-3.857-9.343zm68.314 0l-3.772 9.343h7.629l-3.857-9.343zM20.143 12h-7.2l-3 3h8.828c.515-.943 1.029-1.971 1.372-3zM12 3.857c-1.029.343-2.057.857-3 1.372v8.828l3-3zm38.314.857H44.23v6.857h6.085c1.029 0 1.8-.342 2.4-.942.6-.686.943-1.543.943-2.658 0-1.028-.257-1.8-.857-2.4-.6-.6-1.457-.857-2.486-.857zm-28.2-2.743c-1.971.086-3.857.343-5.743.686a17.103 17.103 0 0 0-3 .772v6.428L17.23 6c.257-.257.6-.257.857 0 .343.257.343.686.085.943L14.314 10.8h6.343c.343-1.029.6-2.057.772-3.086.342-1.885.6-3.857.685-5.743z" fill="#FFF" fill-rule="nonzero"/></svg>