<svg width="1440" height="306" xmlns="http://www.w3.org/2000/svg"><defs><linearGradient x1="50%" y1="48.426%" x2="51.272%" y2="51.322%" id="a"><stop stop-color="#32B67A" offset="0%"/><stop stop-color="#61DCB2" stop-opacity="0" offset="100%"/></linearGradient></defs><g fill="none" fill-rule="evenodd"><path d="M0 304c44.802-12.036 100.844-28.703 168.125-50 100.922-31.945 134.063-78 192.125-84 58.063-6 139.352 30 180.125 30 40.773 0 82.852-48 173.125-58s110 26 187.125 20 103.875-58 180.125-74 93.336-3 180.125-19c57.86-10.667 117.901-33.667 180.125-69v304H0z" fill="url(#a)" transform="translate(0 1)"/><path stroke="#055A5B" opacity=".4" stroke-linecap="square" d="M0 305l180.125-48 180.125-88 180.125 32L720.5 137l180.125 32 180.125-80 180.125-16L1441 1"/><g fill="#FFF" stroke="#055A5B"><circle cx="5" cy="5" r="4.5" transform="translate(175 252)"/><circle cx="5" cy="5" r="4.5" transform="translate(354 165)"/><circle cx="5" cy="5" r="4.5" transform="translate(535 195)"/><circle cx="5" cy="5" r="4.5" transform="translate(716 133)"/><circle cx="5" cy="5" r="4.5" transform="translate(896 163)"/><circle cx="5" cy="5" r="4.5" transform="translate(1074 85)"/><circle cx="5" cy="5" r="4.5" transform="translate(1256 67)"/></g></g></svg>