<svg viewBox="0 0 54 49" xmlns="http://www.w3.org/2000/svg"><g fill="#FFF" fill-rule="evenodd"><path d="M14.504 19.519c.91 0 1.782-.431 2.392-1.182a.781.781 0 0 0-1.214-.984c-.316.389-.734.603-1.178.603-.445 0-.863-.214-1.179-.603a.781.781 0 0 0-1.213.984c.609.751 1.48 1.182 2.392 1.182m-3.571-4.463c.432 0 .781-.35.781-.782v-.892a.781.781 0 0 0-1.562 0v.892c0 .432.35.782.781.782m7.141 0c.432 0 .781-.35.781-.782v-.892a.781.781 0 0 0-1.562 0v.892c0 .432.35.782.781.782m22.316 8.926c.91 0 1.782-.431 2.391-1.182a.781.781 0 1 0-1.213-.984c-.316.389-.735.603-1.179.603-.444 0-.863-.214-1.178-.603a.781.781 0 1 0-1.214.984c.61.751 1.481 1.182 2.392 1.182m-3.57-4.463a.78.78 0 0 0 .78-.782v-.892a.781.781 0 1 0-1.562 0v.892c0 .432.35.782.782.782m7.141 0a.78.78 0 0 0 .78-.782v-.892a.781.781 0 1 0-1.562 0v.892c0 .432.35.782.781.782"/><path d="M40.39 36.7a6.368 6.368 0 0 1-5.339-2.9 2.57 2.57 0 0 0 2.549-2.566c0-.746-.333-1.453-.893-1.936v-.742c0-.314-.017-.627-.05-.937a8.82 8.82 0 0 0 6.521.37v1.144c0 1.055.633 1.99 1.613 2.383l1.685.673a6.356 6.356 0 0 1-6.087 4.512zm-12.498 2.68a5.473 5.473 0 0 1-5.467-5.467v-.893a.781.781 0 0 0-.781-.781h-.893c-.554 0-1.004-.45-1.004-1.004 0-.356.188-.679.504-.863a.777.777 0 0 0 .185-.151c1.931-.056 8.192-.42 12.306-2.77a.781.781 0 0 0-.775-1.357c-3.604 2.06-9.268 2.471-11.327 2.554v-.09c0-1.454.44-2.861 1.237-4.048a.778.778 0 0 0 1.008.283l5.007-2.503 5.006 2.503a.781.781 0 0 0 1.009-.283 7.26 7.26 0 0 1 1.237 4.047v1.14a.78.78 0 0 0 .388.675.992.992 0 0 1 .505.863c0 .553-.451 1.004-1.004 1.004h-.893a.781.781 0 0 0-.781.781v.893a5.473 5.473 0 0 1-5.467 5.467zm3.04 3.51l.5.167a4.572 4.572 0 0 1-7.08 0l.499-.166a1.672 1.672 0 0 0 1.144-1.588v-.623a7.006 7.006 0 0 0 3.793 0v.623c0 .721.46 1.36 1.145 1.588zM7.43 26.586l1.93-.58a5.253 5.253 0 0 0 5.144 4.225 5.248 5.248 0 0 0 4.65-2.824c-.05.38-.076.763-.076 1.15v.742a2.567 2.567 0 0 0-.893 1.936 7.217 7.217 0 0 1-3.681 1.004c-3.399 0-6.339-2.392-7.074-5.653zm7.074-2.603c1.313 0 2.56-.29 3.681-.807v1.81a3.686 3.686 0 0 1-3.681 3.682 3.686 3.686 0 0 1-3.682-3.671v-1.822a8.759 8.759 0 0 0 3.682.808zM7.25 15.167a.781.781 0 0 0-.78-.781 1.005 1.005 0 0 1 0-2.008h1.784a.781.781 0 0 0 .742-.534l.717-2.151c1.795-.041 7.36-.293 10.495-1.86a.781.781 0 1 0-.7-1.398c-3.36 1.681-10.29 1.703-10.359 1.703a.781.781 0 0 0-.741.534l-.715 2.144H6.47c-.037 0-.074 0-.111.002V7.134a5.473 5.473 0 0 1 5.467-5.467h7.14c.934 0 1.717.672 1.865 1.598a.78.78 0 0 0 .387.558 2.789 2.789 0 0 1 1.43 2.418v4.577a2.467 2.467 0 0 0-.11-.003h-.893a.781.781 0 0 0 0 1.563h.892a1.005 1.005 0 0 1 0 2.008.781.781 0 0 0-.781.781c0 3.999-3.253 7.252-7.252 7.252-4 0-7.253-3.253-7.253-7.252zm14.505 7.063a8.827 8.827 0 0 0-2.014 2.973c.003-.072.006-.144.006-.217v-2.74a8.886 8.886 0 0 0 2.008-2.077v2.06zm1.562-2.228l2.828 1.413-2.828 1.414v-2.827zm9.149 0v2.827l-2.827-1.414 2.827-1.413zm-1.115-5.728c0-4.983 4.054-9.037 9.037-9.037 4.983 0 9.037 4.054 9.037 9.037 0 5.247.632 10.55.837 12.134-.7.458-2.492 1.466-5.522 2.13v-1.244a8.742 8.742 0 0 0 1.186-.805 8.848 8.848 0 0 0 3.058-4.9 8.855 8.855 0 0 0 .219-1.959c0-4.416-3.194-5.05-6.282-5.663-1.965-.39-3.997-.793-5.615-2.088a.781.781 0 0 0-1.27.61c0 .021-.034 2.077-2.978 2.813a.781.781 0 0 0 .379 1.516c2.464-.616 3.47-1.999 3.88-3.038 1.694 1.004 3.592 1.381 5.3 1.72 3.3.655 5.023 1.137 5.023 4.13 0 .545-.06 1.087-.18 1.613a7.28 7.28 0 0 1-2.517 4.03 7.17 7.17 0 0 1-4.555 1.61c-1.53 0-2.985-.47-4.22-1.356a8.826 8.826 0 0 0-2.14-3.297v-3.492a.781.781 0 0 0-1.13-.699l-1.687.843c.093-1.627.14-3.174.14-4.608zm20.14 18.239l-6.12-2.448a.838.838 0 0 1-.095-.047c4.227-.961 6.23-2.57 6.318-2.643a.782.782 0 0 0 .279-.715c-.01-.061-.885-6.264-.885-12.385 0-5.845-4.755-10.6-10.6-10.6s-10.6 4.755-10.6 10.6c0 1.601-.073 3.56-.191 5.414l-1.705.853-5.007-2.503-.044-.019a8.751 8.751 0 0 0 .451-2.185 2.571 2.571 0 0 0 1.81-2.453 2.56 2.56 0 0 0-.892-1.943V6.241c0-1.436-.726-2.78-1.916-3.587a3.434 3.434 0 0 0-3.329-2.55h-7.14a7.037 7.037 0 0 0-7.03 7.03v4.305a2.56 2.56 0 0 0-.892 1.943c0 1.152.763 2.13 1.81 2.453a8.811 8.811 0 0 0 3.545 6.41v2.16L2.8 26.342a3.438 3.438 0 0 0-2.466 3.313v8.719c0 .431.35.78.782.78h.111v9.038a.781.781 0 0 0 1.562 0v-9.037H5.69v9.037a.781.781 0 0 0 1.562 0v-13.47c0-.686-.2-1.35-.58-1.92L5.336 30.8a.781.781 0 1 0-1.3.866l1.336 2.004c.208.312.318.676.318 1.052v2.87H1.896v-7.937c0-.844.543-1.574 1.352-1.817l2.681-.804c.934 3.91 4.481 6.765 8.575 6.765 1.47 0 2.898-.362 4.177-1.052a2.564 2.564 0 0 0 2.07 1.052h.112v.112a7.035 7.035 0 0 0 3.57 6.116v1.274a.11.11 0 0 1-.076.105l-2.914.972a3.455 3.455 0 0 0-2.365 3.281v2.533a.781.781 0 0 0 1.562 0V45.66c0-.817.522-1.54 1.297-1.799l.857-.285a6.14 6.14 0 0 0 10.197 0l.857.285a1.894 1.894 0 0 1 1.297 1.8v2.532a.781.781 0 0 0 1.562 0V45.66c0-1.49-.95-2.81-2.365-3.281l-2.914-.971a.111.111 0 0 1-.077-.106v-1.274a7.058 7.058 0 0 0 3.308-4.217 7.929 7.929 0 0 0 5.73 2.453 7.917 7.917 0 0 0 7.54-5.493l2.983 1.193c.724.29 1.192.98 1.192 1.76v3.655h-2.901v-1.004a.781.781 0 0 0-1.562 0v9.818a.781.781 0 0 0 1.562 0v-7.252h2.008v7.252a.781.781 0 0 0 1.563 0v-7.252h.111a.782.782 0 0 0 .781-.781v-4.435a3.442 3.442 0 0 0-2.174-3.212z"/><path d="M30.17 35.09a.781.781 0 0 0-1.099.115c-.316.389-.734.603-1.178.603-.445 0-.863-.214-1.179-.603a.781.781 0 0 0-1.213.984c.609.75 1.48 1.182 2.392 1.182.91 0 1.782-.431 2.392-1.182a.782.782 0 0 0-.115-1.099m-4.94-3.741a.781.781 0 1 1 0 1.562.781.781 0 0 1 0-1.562m5.312 0a.781.781 0 1 1 0 1.562.781.781 0 0 1 0-1.562"/></g></svg>