<svg width="100%" height="100%" viewBox="0 0 54 54" xmlns="http://www.w3.org/2000/svg"><g fill="#32B67A" fill-rule="evenodd"><path d="M19.762 12.905a1.034 1.034 0 1 0 0-2.067 1.034 1.034 0 0 0 0 2.067"/><path d="M41.367 22.333c-.299.11-.544.34-.64.653-.094.3-.054.64.123.898a3.378 3.378 0 0 1-.422 4.272c-.639.64-1.482.98-2.38.98h-.028c-.272 0-.544.109-.734.3-.19.19-.3.462-.3.734a3.316 3.316 0 0 1-3.347 3.36 3.32 3.32 0 0 1-1.877-.57 1.048 1.048 0 0 0-.49-.164h-.109c-.503 0-.925.354-1.02.843a3.392 3.392 0 0 1-3.13 2.11 3.353 3.353 0 0 1-3.156-2.218 1.011 1.011 0 0 0-.177-.34c-.027-.028-.04-.055-.068-.082 0 0 0-.014-.013-.014-.014-.013-.041-.04-.068-.054l-.014-.014s-.014-.013-.027-.013a1.182 1.182 0 0 0-.368-.19 1.066 1.066 0 0 0-.857.135 3.328 3.328 0 0 1-1.89.572A3.36 3.36 0 0 1 17 30.157a1.05 1.05 0 0 0-.3-.735c-.19-.19-.463-.3-.735-.3a3.374 3.374 0 0 1-3.374-3.374c0-.666.204-1.32.571-1.877.177-.272.218-.599.123-.898a1.05 1.05 0 0 0-.64-.653 3.388 3.388 0 0 1-2.258-3.184 3.39 3.39 0 0 1 2.258-3.184c.3-.108.544-.34.64-.653.095-.299.054-.64-.123-.911a3.377 3.377 0 0 1 .422-4.272 3.346 3.346 0 0 1 2.381-.994h.014c.272 0 .544-.108.734-.299.19-.19.3-.462.3-.735 0-.897.34-1.741.98-2.38a3.354 3.354 0 0 1 2.394-.994c.68 0 1.32.19 1.877.572.273.177.599.217.898.122.3-.095.544-.34.653-.64A3.388 3.388 0 0 1 27 2.51a3.39 3.39 0 0 1 3.184 2.259c.109.3.34.544.653.64.299.094.64.054.911-.123A3.374 3.374 0 0 1 37 8.089c0 .57.463 1.033 1.034 1.033a3.365 3.365 0 0 1 3.374 3.375c0 .666-.204 1.32-.571 1.877a1.076 1.076 0 0 0-.123.912c.095.3.34.544.64.653a3.388 3.388 0 0 1 2.258 3.183c.014 1.456-.884 2.749-2.245 3.211zm-9.17 25.579V35.435c.463.123.953.19 1.442.19.218 0 .422-.013.64-.04V49.98l-2.082-2.068zm-5.918-4.45l-2.38 2.382V36.85a5.39 5.39 0 0 0 3.115.98 5.46 5.46 0 0 0 3.115-.98v8.98l-2.38-2.381a1.073 1.073 0 0 0-1.47.014zM19.762 35.6c.204.027.422.04.64.04.49 0 .965-.068 1.442-.19v12.476l-2.082 2.068V35.6zm25.945-16.45a5.46 5.46 0 0 0-2.585-4.625 5.473 5.473 0 0 0 .368-1.987A5.426 5.426 0 0 0 39 7.177a5.452 5.452 0 0 0-5.36-4.49c-.68 0-1.361.123-1.987.367A5.466 5.466 0 0 0 27.013.47a5.443 5.443 0 0 0-4.625 2.585 5.472 5.472 0 0 0-1.987-.367 5.38 5.38 0 0 0-3.85 1.606 5.4 5.4 0 0 0-1.51 2.898 5.4 5.4 0 0 0-2.898 1.51 5.391 5.391 0 0 0-1.592 3.85c0 .68.122 1.36.367 1.986a5.46 5.46 0 0 0-2.585 4.626 5.484 5.484 0 0 0 2.585 4.64 5.42 5.42 0 0 0-.367 1.986 5.451 5.451 0 0 0 4.49 5.36c.272 1.593 1.251 2.967 2.653 3.783V52.51c0 .422.258.803.64.953.38.163.83.068 1.129-.232l7.564-7.564 7.565 7.564c.3.3.748.381 1.13.232.38-.164.639-.545.639-.953V34.905A5.369 5.369 0 0 0 39 31.136a5.438 5.438 0 0 0 2.91-1.51 5.435 5.435 0 0 0 1.606-3.864c0-.68-.122-1.36-.367-1.986a5.463 5.463 0 0 0 2.557-4.626z"/><path d="M27.014 7.721a11.38 11.38 0 0 0-4.245.816c-.53.218-.79.817-.572 1.347.218.531.817.79 1.347.572a9.153 9.153 0 0 1 3.47-.667c5.142 0 9.333 4.19 9.333 9.334 0 5.142-4.19 9.333-9.333 9.333s-9.334-4.19-9.334-9.333c0-1.198.218-2.368.667-3.47.218-.53-.04-1.13-.571-1.347a1.031 1.031 0 0 0-1.347.572 11.276 11.276 0 0 0-.817 4.245c0 6.285 5.116 11.4 11.402 11.4 6.285 0 11.4-5.115 11.4-11.4 0-6.286-5.115-11.402-11.4-11.402"/><path d="M32.197 19.123a1.034 1.034 0 1 0 2.068 0c0-4-3.251-7.252-7.251-7.252a1.034 1.034 0 1 0 0 2.068 5.191 5.191 0 0 1 5.183 5.184"/></g></svg>