<svg width="16" height="16" xmlns="http://www.w3.org/2000/svg"><path d="M15.143 5.296l-4.316-.657L8.9.542A1.033 1.033 0 0 0 8 0c-.37 0-.713.207-.9.542L5.175 4.64l-4.316.656c-.377.057-.69.333-.809.712-.118.38-.02.797.253 1.075l3.122 3.19-.737 4.503c-.064.393.09.79.398 1.024a.962.962 0 0 0 1.053.08L8 13.753l3.86 2.125a.962.962 0 0 0 1.053-.08c.308-.234.462-.631.398-1.024l-.737-4.504L15.7 7.083c.272-.278.37-.694.252-1.073a1.014 1.014 0 0 0-.806-.713h-.002z" fill="#FDCD67" fill-rule="nonzero"/></svg>