<svg width="16" height="16" xmlns="http://www.w3.org/2000/svg"><g transform="translate(-4 -4)" fill="#055A5B" fill-rule="evenodd"><circle cx="16.145" cy="7.892" r="1"/><path d="M12 16c-2.206 0-4-1.794-4-4s1.794-4 4-4 4 1.794 4 4-1.794 4-4 4zm0-6c-1.103 0-2 .897-2 2s.897 2 2 2 2-.897 2-2-.897-2-2-2z"/><path d="M16 20H8c-2.056 0-4-1.944-4-4V8c0-2.056 1.944-4 4-4h8c2.056 0 4 1.944 4 4v8c0 2.056-1.944 4-4 4zM8 6c-.935 0-2 1.065-2 2v8c0 .953 1.047 2 2 2h8c.935 0 2-1.065 2-2V8c0-.935-1.065-2-2-2H8z"/></g></svg>