<svg width="192" height="161" viewBox="0 0 192 161" xmlns="http://www.w3.org/2000/svg"><g fill="none" fill-rule="evenodd"><path d="M96 56.25H80c-30.928 0-56-25.071-56-56h16c30.928 0 56 25.071 56 56z" fill="#32B67A"/><path d="M168 .25h-16c-30.928 0-56 25.071-56 56h16c30.928 0 56-25.071 56-56zM112 160.25H96c0-44.185 35.816-80 80-80h16c0 44.185-35.816 80-80 80z" fill="#126942" fill-rule="nonzero"/><path d="M0 80.25h16c44.185 0 80 35.817 80 80H80c-44.184 0-80-35.815-80-80z" fill="#32B67A"/></g></svg>