<svg width="178" height="22" xmlns="http://www.w3.org/2000/svg"><g fill="#FFF" fill-rule="evenodd"><path d="M21.136 7.287c.69-3.445.697-6.171.697-6.286A.634.634 0 0 0 21.2.367c-.115 0-2.841.008-6.286.697-1.227.245-2.39.547-3.478.901l-.022.008a24.22 24.22 0 0 0-2.016.755A19.333 19.333 0 0 0 7.15 3.864c-1.086.644-2.033 1.368-2.83 2.165a8.324 8.324 0 0 0-2.455 5.925c0 2.025.714 3.94 2.023 5.46L.353 20.95a.635.635 0 1 0 .897.897l3.536-3.536a8.317 8.317 0 0 0 5.46 2.022 8.325 8.325 0 0 0 5.925-2.454c.797-.797 1.521-1.745 2.165-2.83a19.33 19.33 0 0 0 1.135-2.246 24.218 24.218 0 0 0 .763-2.036 30.68 30.68 0 0 0 .902-3.48zm-5.998-4.974a36.226 36.226 0 0 1 5.407-.658 36.22 36.22 0 0 1-.658 5.407c-.178.886-.415 1.87-.729 2.888h-6.01l3.692-3.692a.635.635 0 0 0-.898-.898L12.25 9.053V3.042a29.694 29.694 0 0 1 2.888-.729zm2.302 11.744h-8.4l2.838-2.837h6.852a19.888 19.888 0 0 1-1.29 2.837zM10.98 3.47v6.852L8.143 13.16v-8.4a19.89 19.89 0 0 1 2.837-1.29zm-7.844 8.484c0-1.9.74-3.685 2.083-5.027a12.19 12.19 0 0 1 1.654-1.375v8.877L4.79 16.513a7.056 7.056 0 0 1-1.654-4.56zm12.138 5.028a7.064 7.064 0 0 1-5.028 2.082 7.056 7.056 0 0 1-4.559-1.654l2.084-2.083h8.877a12.193 12.193 0 0 1-1.374 1.655z"/><path d="M48.762 11.077c1.024.256 1.86.768 2.508 1.536.649.768.973 1.766.973 2.995 0 1.673-.516 2.923-1.549 3.75-1.032.828-2.316 1.242-3.852 1.242h-6.887a.746.746 0 0 1-.768-.768V3.448a.746.746 0 0 1 .768-.768h6.784c1.434 0 2.556.393 3.367 1.178.81.785 1.216 1.86 1.216 3.225 0 .905-.222 1.715-.666 2.432-.444.717-1.075 1.238-1.894 1.562zm.921-3.866c0-.938-.277-1.677-.832-2.214-.554-.538-1.327-.807-2.317-.807h-5.708v6.4h5.708c.922-.017 1.677-.315 2.266-.896.589-.58.883-1.408.883-2.483zM46.765 19.09c1.143 0 2.07-.29 2.777-.87.709-.581 1.063-1.451 1.063-2.612 0-1.195-.363-2.074-1.088-2.637-.726-.563-1.66-.845-2.803-.845h-5.888v6.964h5.939zm19.251 0c.222 0 .405.076.55.23a.758.758 0 0 1 .218.538.704.704 0 0 1-.218.537.771.771 0 0 1-.55.205h-9.395a.746.746 0 0 1-.768-.768V3.448a.746.746 0 0 1 .768-.768h9.395a.746.746 0 0 1 .768.768.704.704 0 0 1-.218.538.771.771 0 0 1-.55.204h-8.55v6.426h7.398a.746.746 0 0 1 .768.768.704.704 0 0 1-.218.538.771.771 0 0 1-.55.204h-7.398v6.964h8.55zm17.74.486a1.4 1.4 0 0 1 .052.307.685.685 0 0 1-.23.538.784.784 0 0 1-.538.205.737.737 0 0 1-.448-.141.907.907 0 0 1-.294-.371l-1.92-4.685h-8.32l-1.895 4.685c-.136.34-.367.512-.691.512-.239 0-.418-.06-.538-.18a.75.75 0 0 1-.204-.486v-.077c0-.102.008-.179.025-.23l6.759-16.538c.136-.341.392-.512.768-.512.17 0 .32.047.448.141a.907.907 0 0 1 .294.371l6.733 16.461zm-11.11-5.658h7.117L76.18 5.163l-3.533 8.755zM100.064 2.68c.222 0 .397.068.525.205a.72.72 0 0 1 .192.512V19.78c0 .256-.077.456-.23.601a.79.79 0 0 1-.564.218.922.922 0 0 1-.614-.256L88.39 5.547V19.91c0 .188-.072.35-.217.486a.708.708 0 0 1-.5.205.695.695 0 0 1-.511-.205.664.664 0 0 1-.205-.486V3.448c0-.239.072-.427.217-.563a.738.738 0 0 1 .525-.205c.273 0 .478.094.615.282l11.033 14.873V3.397c0-.205.068-.376.205-.512a.695.695 0 0 1 .512-.205zm10.368 18.176c-1.229 0-2.317-.205-3.264-.614-.861-.373-1.697-.936-2.51-1.689l-.242-.231c-.205-.171-.307-.376-.307-.615 0-.205.08-.392.243-.563a.742.742 0 0 1 .55-.256c.205 0 .393.085.564.256 1.33 1.468 2.995 2.202 4.992 2.202 1.228 0 2.248-.29 3.059-.87.81-.581 1.216-1.34 1.216-2.28 0-.733-.2-1.343-.602-1.83-.4-.486-.926-.883-1.574-1.19-.649-.307-1.476-.623-2.483-.947-1.093-.324-2.01-.683-2.752-1.075a5.045 5.045 0 0 1-1.805-1.575c-.461-.657-.691-1.489-.691-2.496 0-.904.243-1.706.73-2.406.486-.7 1.168-1.25 2.047-1.651.88-.401 1.89-.602 3.034-.602 1.04 0 2.018.175 2.931.525.913.35 1.643.849 2.189 1.497.256.29.384.538.384.743 0 .188-.086.362-.256.525a.802.802 0 0 1-.563.243.593.593 0 0 1-.436-.18c-.46-.546-1.075-.99-1.843-1.33a5.862 5.862 0 0 0-2.406-.513c-1.246 0-2.262.278-3.047.832-.785.555-1.177 1.31-1.177 2.266 0 .99.375 1.75 1.126 2.278.751.53 1.826 1.016 3.226 1.46 1.212.358 2.201.725 2.97 1.1a4.887 4.887 0 0 1 1.881 1.6c.486.692.73 1.6.73 2.727 0 .87-.252 1.66-.756 2.368-.503.708-1.203 1.267-2.099 1.677-.896.41-1.916.614-3.059.614zM131.398 2.68c.222 0 .406.068.55.205a.704.704 0 0 1 .218.537.664.664 0 0 1-.217.525.801.801 0 0 1-.55.192h-5.3v15.693a.725.725 0 0 1-.23.55.79.79 0 0 1-.563.218c-.24 0-.431-.073-.576-.218a.746.746 0 0 1-.218-.55V4.139h-5.3a.771.771 0 0 1-.55-.205.704.704 0 0 1-.217-.537c0-.205.072-.376.217-.512a.771.771 0 0 1 .55-.205h12.186zm16.128 16.896a1.4 1.4 0 0 1 .052.307.685.685 0 0 1-.23.538.784.784 0 0 1-.538.205.737.737 0 0 1-.448-.141.907.907 0 0 1-.295-.371l-1.92-4.685h-8.32l-1.894 4.685c-.137.34-.367.512-.691.512-.24 0-.419-.06-.538-.18a.75.75 0 0 1-.205-.486v-.077c0-.102.009-.179.026-.23l6.758-16.538c.137-.341.393-.512.768-.512.17 0 .32.047.448.141a.907.907 0 0 1 .295.371l6.732 16.461zm-11.11-5.658h7.117l-3.584-8.755-3.533 8.755zm24.218 5.172c.221 0 .405.068.55.204a.704.704 0 0 1 .218.538.746.746 0 0 1-.768.768h-9.14a.746.746 0 0 1-.768-.768V3.448c0-.222.077-.405.23-.55a.823.823 0 0 1 .59-.218.79.79 0 0 1 .563.218c.153.145.23.328.23.55V19.09h8.295zm17.203.256c.12.17.179.35.179.537 0 .256-.09.457-.269.602a.932.932 0 0 1-.601.217.703.703 0 0 1-.564-.281l-7.142-8.986-3.482 3.277v5.094a.843.843 0 0 1-.256.576.79.79 0 0 1-.563.218c-.239 0-.43-.073-.576-.218-.145-.145-.217-.337-.217-.576V3.474c0-.24.076-.431.23-.576a.823.823 0 0 1 .589-.218c.239 0 .43.073.576.218.145.145.217.337.217.576v9.292l10.343-9.779a.73.73 0 0 1 .563-.256c.205 0 .38.077.525.23a.73.73 0 0 1 .217.513.737.737 0 0 1-.23.537l-6.707 6.272 7.168 9.063z" fill-rule="nonzero"/></g></svg>