<svg width="223" height="28" xmlns="http://www.w3.org/2000/svg"><g fill="#32B67A" fill-rule="evenodd"><path d="M26.476 9.184c.848-4.24.857-7.595.857-7.736a.78.78 0 0 0-.78-.781c-.142 0-3.497.01-7.737.857-1.51.302-2.941.674-4.28 1.11l-.028.01a29.81 29.81 0 0 0-2.481.93A23.794 23.794 0 0 0 9.262 4.97c-1.335.793-2.501 1.683-3.482 2.664a10.245 10.245 0 0 0-3.021 7.293c0 2.493.878 4.85 2.489 6.72L.896 26A.781.781 0 1 0 2 27.104l4.352-4.352a10.237 10.237 0 0 0 6.72 2.489c2.755 0 5.345-1.073 7.293-3.02.98-.982 1.871-2.148 2.664-3.483a23.79 23.79 0 0 0 1.397-2.764 29.806 29.806 0 0 0 .939-2.507 37.76 37.76 0 0 0 1.11-4.283zm-7.383-6.121a44.585 44.585 0 0 1 6.655-.811 44.58 44.58 0 0 1-.81 6.655 36.546 36.546 0 0 1-.897 3.555h-7.398l4.544-4.545a.782.782 0 0 0-1.104-1.104l-4.545 4.544V3.959a36.546 36.546 0 0 1 3.555-.897zm2.833 14.454H11.588l3.492-3.493h8.434a24.478 24.478 0 0 1-1.588 3.493zm-7.95-13.031v8.433l-3.493 3.493V6.074a24.48 24.48 0 0 1 3.493-1.588zM4.32 14.928c0-2.337.91-4.535 2.563-6.188A15.003 15.003 0 0 1 8.92 7.05v10.925L6.358 20.54a8.684 8.684 0 0 1-2.036-5.611zm14.939 6.188a8.694 8.694 0 0 1-6.188 2.563 8.685 8.685 0 0 1-5.61-2.036l2.563-2.564h10.926a15.007 15.007 0 0 1-1.691 2.037z"/><path d="M60.976 14.096c1.28.32 2.325.96 3.136 1.92.81.96 1.216 2.208 1.216 3.744 0 2.09-.645 3.653-1.936 4.688C62.102 25.483 60.496 26 58.576 26h-8.608a.932.932 0 0 1-.688-.272.932.932 0 0 1-.272-.688V4.56c0-.277.09-.507.272-.688a.932.932 0 0 1 .688-.272h8.48c1.792 0 3.195.49 4.208 1.472 1.013.981 1.52 2.325 1.52 4.032 0 1.13-.277 2.144-.832 3.04-.555.896-1.344 1.547-2.368 1.952zm1.152-4.832c0-1.173-.347-2.096-1.04-2.768-.693-.672-1.659-1.008-2.896-1.008h-7.136v8h7.136c1.152-.021 2.096-.395 2.832-1.12.736-.725 1.104-1.76 1.104-3.104zM58.48 24.112c1.43 0 2.587-.363 3.472-1.088.885-.725 1.328-1.813 1.328-3.264 0-1.493-.453-2.592-1.36-3.296-.907-.704-2.075-1.056-3.504-1.056h-7.36v8.704h7.424zm24.064 0c.277 0 .507.096.688.288a.948.948 0 0 1 .272.672.88.88 0 0 1-.272.672.964.964 0 0 1-.688.256H70.8a.932.932 0 0 1-.688-.272.932.932 0 0 1-.272-.688V4.56c0-.277.09-.507.272-.688A.932.932 0 0 1 70.8 3.6h11.744c.277 0 .507.09.688.272.181.181.272.41.272.688a.88.88 0 0 1-.272.672.964.964 0 0 1-.688.256H71.856v8.032h9.248c.277 0 .507.09.688.272.181.181.272.41.272.688a.88.88 0 0 1-.272.672.964.964 0 0 1-.688.256h-9.248v8.704h10.688zm22.176.608c.043.17.064.299.064.384a.856.856 0 0 1-.288.672.98.98 0 0 1-.672.256.921.921 0 0 1-.56-.176 1.134 1.134 0 0 1-.368-.464l-2.4-5.856h-10.4l-2.368 5.856c-.17.427-.459.64-.864.64-.299 0-.523-.075-.672-.224-.15-.15-.235-.352-.256-.608v-.096a.97.97 0 0 1 .032-.288l8.448-20.672c.17-.427.49-.64.96-.64.213 0 .4.059.56.176.16.117.283.272.368.464l8.416 20.576zm-13.888-7.072h8.896l-4.48-10.944-4.416 10.944zM125.104 3.6c.277 0 .496.085.656.256a.9.9 0 0 1 .24.64v20.48c0 .32-.096.57-.288.752a.987.987 0 0 1-.704.272 1.02 1.02 0 0 1-.432-.096 1.153 1.153 0 0 1-.336-.224L110.512 7.184v17.952c0 .235-.09.437-.272.608a.884.884 0 0 1-.624.256.868.868 0 0 1-.64-.256.83.83 0 0 1-.256-.608V4.56c0-.299.09-.533.272-.704.181-.17.4-.256.656-.256.341 0 .597.117.768.352l13.792 18.592V4.496c0-.256.085-.47.256-.64a.868.868 0 0 1 .64-.256zm12.96 22.72c-1.536 0-2.896-.256-4.08-.768-1.184-.512-2.33-1.312-3.44-2.4-.256-.213-.384-.47-.384-.768 0-.256.101-.49.304-.704.203-.213.432-.32.688-.32.256 0 .49.107.704.32 1.664 1.835 3.744 2.752 6.24 2.752 1.536 0 2.81-.363 3.824-1.088 1.013-.725 1.52-1.675 1.52-2.848 0-.917-.25-1.68-.752-2.288-.501-.608-1.157-1.104-1.968-1.488-.81-.384-1.845-.779-3.104-1.184-1.365-.405-2.512-.853-3.44-1.344a6.306 6.306 0 0 1-2.256-1.968c-.576-.821-.864-1.861-.864-3.12 0-1.13.304-2.133.912-3.008.608-.875 1.461-1.563 2.56-2.064 1.099-.501 2.363-.752 3.792-.752 1.301 0 2.523.219 3.664.656 1.141.437 2.053 1.061 2.736 1.872.32.363.48.672.48.928 0 .235-.107.453-.32.656-.213.203-.448.304-.704.304a.74.74 0 0 1-.544-.224c-.576-.683-1.344-1.237-2.304-1.664a7.327 7.327 0 0 0-3.008-.64c-1.557 0-2.827.347-3.808 1.04-.981.693-1.472 1.637-1.472 2.832 0 1.237.47 2.187 1.408 2.848.939.661 2.283 1.27 4.032 1.824 1.515.448 2.752.907 3.712 1.376a6.109 6.109 0 0 1 2.352 2c.608.864.912 2 .912 3.408a4.99 4.99 0 0 1-.944 2.96c-.63.885-1.504 1.584-2.624 2.096s-2.395.768-3.824.768zM164.272 3.6c.277 0 .507.085.688.256a.88.88 0 0 1 .272.672c0 .277-.09.496-.272.656-.181.16-.41.24-.688.24h-6.624V25.04a.906.906 0 0 1-.288.688.987.987 0 0 1-.704.272c-.299 0-.539-.09-.72-.272a.932.932 0 0 1-.272-.688V5.424h-6.624a.964.964 0 0 1-.688-.256.88.88 0 0 1-.272-.672c0-.256.09-.47.272-.64a.964.964 0 0 1 .688-.256h15.232zm20.16 21.12c.043.17.064.299.064.384a.856.856 0 0 1-.288.672.98.98 0 0 1-.672.256.921.921 0 0 1-.56-.176 1.134 1.134 0 0 1-.368-.464l-2.4-5.856h-10.4l-2.368 5.856c-.17.427-.459.64-.864.64-.299 0-.523-.075-.672-.224-.15-.15-.235-.352-.256-.608v-.096a.97.97 0 0 1 .032-.288l8.448-20.672c.17-.427.49-.64.96-.64.213 0 .4.059.56.176.16.117.283.272.368.464l8.416 20.576zm-13.888-7.072h8.896l-4.48-10.944-4.416 10.944zm30.272 6.464c.277 0 .507.085.688.256a.88.88 0 0 1 .272.672c0 .277-.09.507-.272.688a.932.932 0 0 1-.688.272h-11.424a.932.932 0 0 1-.688-.272.932.932 0 0 1-.272-.688V4.56c0-.277.096-.507.288-.688.192-.181.437-.272.736-.272.277 0 .512.09.704.272.192.181.288.41.288.688v19.552h10.368zm21.504.32c.15.213.224.437.224.672 0 .32-.112.57-.336.752a1.165 1.165 0 0 1-.752.272c-.277 0-.512-.117-.704-.352l-8.928-11.232-4.352 4.096v6.368c-.021.299-.128.539-.32.72a.987.987 0 0 1-.704.272c-.299 0-.539-.09-.72-.272-.181-.181-.272-.421-.272-.72V4.592c0-.299.096-.539.288-.72.192-.181.437-.272.736-.272s.539.09.72.272c.181.181.272.421.272.72v11.616L220.4 3.984a.911.911 0 0 1 .704-.32.87.87 0 0 1 .656.288.912.912 0 0 1 .272.64c0 .256-.096.48-.288.672l-8.384 7.84 8.96 11.328z" fill-rule="nonzero"/></g></svg>