<svg width="363" height="14" xmlns="http://www.w3.org/2000/svg"><g fill="none" fill-rule="evenodd"><path d="M-7-4h375v20H-7z"/><g fill="#FFF"><path d="M339.502 2a.999.999 0 0 0-1.002 1v6.5c0 .552.45 1 1.002 1h19.496a.999.999 0 0 0 1.002-1V3c0-.552-.45-1-1.002-1h-19.496zm0-.5h19.496c.829 0 1.502.672 1.502 1.5v6.5c0 .832-.673 1.5-1.502 1.5h-19.496c-.829 0-1.502-.672-1.502-1.5V3c0-.832.673-1.5 1.502-1.5z"/><path d="M339.26 2.5a.251.251 0 0 0-.26.25v7c0 .138.114.25.26.25H348V2.5h-8.74zM362.5 6.232a1.75 1.75 0 0 1-1.5 1.733V4.5c.848.121 1.5.85 1.5 1.732z"/><text font-family="Helvetica" font-size="12" transform="translate(307 -1)"><tspan x="0" y="11">58 %</tspan></text></g><path d="M297.723 10.869V7.31l1.826 1.864-1.826 1.694zm1.91-7.022l-1.91 1.8V2.236l1.91 1.612zm-1.451 2.664l2.834-2.664L296.787 0h-.1v5.35l-2.87-2.821-.817.8 3.453 3.182L293 9.692l.817.8 2.87-2.82v5.349h.183l4.187-3.856-2.875-2.654z" fill="#FFF"/><text font-family="SFProText-Medium, SF Pro Text" font-size="12" font-weight="400" fill="#FFF" transform="translate(-7 -4)"><tspan x="163.685" y="14">9:41 AM</tspan></text><path d="M104.996 3.52c1.94 0 3.707.715 5.063 1.887L111 4.368C109.395 2.974 107.298 2 104.996 2c-2.299 0-4.393.972-5.996 2.36l.94 1.041a7.714 7.714 0 0 1 5.056-1.88zm0 3c1.162 0 2.224.422 3.044 1.118l.995-1.1c-1.083-.93-2.493-1.538-4.04-1.538-1.543 0-2.951.606-4.034 1.534l.994 1.1a4.686 4.686 0 0 1 3.04-1.114zm2.047 2.217c-.554-.46-1.268-.778-2.048-.778-.778 0-1.491.318-2.045.776L104.995 11l2.048-2.263z" fill="#FFF"/><text font-family="Helvetica" font-size="12" fill="#FFF" transform="translate(-7 -4)"><tspan x="47.5" y="14">Beanstalk</tspan></text><g transform="translate(0 4)" fill="#FFF"><path d="M30.75 5a2.25 2.25 0 1 0 0-4.5 2.25 2.25 0 0 0 0 4.5zm0 .5a2.75 2.75 0 1 1 0-5.5 2.75 2.75 0 0 1 0 5.5zM23.75 5a2.25 2.25 0 1 0 0-4.5 2.25 2.25 0 0 0 0 4.5zm0 .5a2.75 2.75 0 1 1 0-5.5 2.75 2.75 0 0 1 0 5.5z"/><circle cx="16.75" cy="2.75" r="2.75"/><circle cx="9.75" cy="2.75" r="2.75"/><circle cx="2.75" cy="2.75" r="2.75"/></g></g></svg>