<svg xmlns="http://www.w3.org/2000/svg" viewBox="0 0 228 40"><g fill="#fff"><path d="M28.5 15.2c.8-4.2.9-7.6.9-7.7 0-.4-.3-.8-.8-.8-.1 0-3.5 0-7.7.9-1.5.3-2.9.7-4.3 1.1-.8.3-1.7.6-2.5.9-1 .4-1.9.9-2.8 1.4-1.3.8-2.5 1.7-3.5 2.7-1.9 1.9-3 4.6-3 7.3 0 2.5.9 4.9 2.5 6.7L2.9 32c-.3.3-.3.8 0 1.1s.8.3 1.1 0l4.4-4.4c1.9 1.6 4.3 2.5 6.7 2.5 2.7 0 5.4-1.1 7.3-3 1-1 1.9-2.1 2.7-3.5.5-.9 1-1.8 1.4-2.8.4-.8.7-1.7.9-2.5.4-1.3.8-2.8 1.1-4.2zm-7.4-6.1c2.2-.4 4.4-.7 6.7-.8-.1 2.2-.4 4.5-.8 6.7-.2 1.2-.5 2.4-.9 3.6h-7.4l4.5-4.5c.3-.3.3-.8-.1-1.1-.3-.3-.7-.3-1 0l-4.5 4.5V10c1.1-.4 2.3-.7 3.5-.9zm2.8 14.4H13.6l3.5-3.5h8.4c-.4 1.2-1 2.4-1.6 3.5zm-7.9-13v8.4l-3.5 3.5V12.1c1.1-.6 2.3-1.2 3.5-1.6zM6.3 20.9c0-2.3.9-4.5 2.6-6.2.6-.6 1.3-1.2 2-1.7v11l-2.6 2.6c-1.3-1.6-2-3.6-2-5.7zm15 6.2c-1.6 1.6-3.9 2.6-6.2 2.6-2.1 0-4-.7-5.6-2l2.6-2.6H23c-.6.7-1.1 1.4-1.7 2z" fill-rule="evenodd" clip-rule="evenodd"/><path d="M63.5 20.1c1.3.3 2.3 1 3.1 1.9.8 1 1.2 2.2 1.2 3.7 0 2.1-.6 3.7-1.9 4.7-1.3 1-2.9 1.6-4.8 1.6h-8.6c-.3 0-.5-.1-.7-.3-.2-.2-.3-.4-.3-.7V10.6c0-.3.1-.5.3-.7.2-.2.4-.3.7-.3H61c1.8 0 3.2.5 4.2 1.5s1.5 2.3 1.5 4c0 1.1-.3 2.1-.8 3s-1.4 1.6-2.4 2zm1.1-4.8c0-1.2-.3-2.1-1-2.8s-1.7-1-2.9-1h-7.1v8h7.1c1.2 0 2.1-.4 2.8-1.1.7-.8 1.1-1.8 1.1-3.1zM61 30.1c1.4 0 2.6-.4 3.5-1.1.9-.7 1.3-1.8 1.3-3.3 0-1.5-.5-2.6-1.4-3.3-.9-.7-2.1-1.1-3.5-1.1h-7.4V30c0 .1 7.5.1 7.5.1zm24 0c.3 0 .5.1.7.3.2.2.3.4.3.7 0 .3-.1.5-.3.7-.2.1-.4.2-.7.2H73.3c-.3 0-.5-.1-.7-.3-.2-.2-.3-.4-.3-.7V10.6c0-.3.1-.5.3-.7.2-.2.4-.3.7-.3H85c.5 0 .9.4 1 .9v.1c0 .3-.1.5-.3.7-.2.2-.4.3-.7.3H74.3v8h9.2c.5 0 .9.4 1 .9v.1c0 .3-.1.5-.3.7-.2.2-.4.3-.7.3h-9.2v8.7c0-.2 10.7-.2 10.7-.2zm22.2.6c0 .2.1.3.1.4 0 .3-.1.5-.3.7-.2.2-.4.3-.7.3-.2 0-.4-.1-.6-.2-.2-.1-.3-.3-.4-.5l-2.4-5.9H92.6l-2.4 5.9c-.2.4-.5.6-.9.6-.3 0-.5-.1-.7-.2-.2-.1-.2-.4-.3-.6v-.1-.3l8.4-20.7c.2-.4.5-.6 1-.6.2 0 .4.1.6.2.2.1.3.3.4.5.1-.1 8.5 20.5 8.5 20.5zm-13.9-7.1h8.9l-4.5-10.9-4.4 10.9zm34.3-14c.3 0 .5.1.7.3.2.2.2.4.2.6V31c0 .3-.1.6-.3.8-.2.2-.4.3-.7.3-.1 0-.3 0-.4-.1-.1-.1-.2-.1-.3-.2L113 13.2v18c0 .2-.1.4-.3.6-.2.2-.4.3-.6.3-.2 0-.5-.1-.6-.3-.2-.2-.3-.4-.3-.6V10.6c0-.3.1-.5.3-.7.2-.2.4-.3.7-.3.3 0 .6.1.8.4l13.8 18.6v-18c0-.3.1-.5.3-.6 0-.3.2-.4.5-.4zm12.9 22.7c-1.5 0-2.9-.3-4.1-.8s-2.3-1.3-3.4-2.4c-.3-.2-.4-.5-.4-.8 0-.3.1-.5.3-.7.2-.2.4-.3.7-.3s.5.1.7.3c1.7 1.8 3.7 2.8 6.2 2.8 1.5 0 2.8-.4 3.8-1.1 1-.7 1.5-1.7 1.5-2.8 0-.9-.2-1.7-.8-2.3-.5-.6-1.2-1.1-2-1.5-.8-.4-1.8-.8-3.1-1.2-1.4-.4-2.5-.9-3.4-1.3-.9-.5-1.7-1.1-2.3-2-.6-.8-.9-1.9-.9-3.1 0-1.1.3-2.1.9-3s1.5-1.6 2.6-2.1 2.4-.8 3.8-.8c1.3 0 2.5.2 3.7.7s2.1 1.1 2.7 1.9c.3.4.5.7.5.9 0 .2-.1.5-.3.7-.2.2-.4.3-.7.3-.2 0-.4-.1-.5-.2-.6-.7-1.3-1.2-2.3-1.7-.9-.4-2-.6-3-.6-1.6 0-2.8.3-3.8 1s-1.5 1.6-1.5 2.8c0 1.2.5 2.2 1.4 2.8.9.7 2.3 1.3 4 1.8 1.5.4 2.8.9 3.7 1.4.9.5 1.8 1.1 2.4 2 .6.9.9 2 .9 3.4 0 1.1-.3 2.1-.9 3-.6.9-1.5 1.6-2.6 2.1s-2.3.8-3.8.8zm26.2-22.7c.3 0 .5.1.7.3.2.2.3.4.3.7 0 .3-.1.5-.3.7-.2.2-.4.2-.7.2h-6.6V31c0 .3-.1.5-.3.7-.2.2-.4.3-.7.3-.3 0-.5-.1-.7-.3-.2-.2-.3-.4-.3-.7V11.4h-6.6c-.3 0-.5-.1-.7-.3-.2-.2-.3-.4-.3-.7 0-.3.1-.5.3-.6.2-.2.4-.3.7-.3h15.2v.1zm20.2 21.1c0 .2.1.3.1.4 0 .3-.1.5-.3.7-.2.2-.4.3-.7.3-.2 0-.4-.1-.6-.2-.2-.1-.3-.3-.4-.5l-2.4-5.9h-10.4l-2.4 5.9c-.2.4-.5.6-.9.6-.3 0-.5-.1-.7-.2-.1-.1-.2-.4-.3-.6v-.1-.3l8.4-20.7c.2-.4.5-.6 1-.6.2 0 .4.1.6.2s.3.3.4.5l8.6 20.5zM173 23.6h8.9l-4.5-10.9-4.4 10.9zm30.3 6.5c.3 0 .5.1.7.3.2.2.3.4.3.7 0 .3-.1.5-.3.7-.2.2-.4.3-.7.3h-11.4c-.3 0-.5-.1-.7-.3-.2-.2-.3-.4-.3-.7V10.6c0-.3.1-.5.3-.7s.4-.3.7-.3c.3 0 .5.1.7.3.2.2.3.4.3.7v19.6l10.4-.1zm21.5.3c.1.2.2.4.2.7 0 .3-.1.6-.3.8-.2.2-.5.3-.8.3-.3 0-.5-.1-.7-.4l-8.9-11.2-4.4 4.1V31c0 .3-.1.5-.3.7-.2.2-.4.3-.7.3-.3 0-.5-.1-.7-.3-.2-.2-.3-.4-.3-.7V10.6c0-.3.1-.5.3-.7.2-.2.4-.3.7-.3s.5.1.7.3c.2.2.3.4.3.7v11.6l13-12.2c.2-.2.4-.3.7-.3.2 0 .5.1.7.3.2.2.3.4.3.6 0 .3-.1.5-.3.7l-8.4 7.8 8.9 11.3z"/></g></svg>