<svg width="24" height="23" xmlns="http://www.w3.org/2000/svg"><g fill="#FFF" fill-rule="evenodd" opacity="1"><path d="M5.314 7.32c.342 0 .668-.162.897-.444a.293.293 0 0 0-.455-.369.569.569 0 0 1-.442.227.569.569 0 0 1-.442-.227.293.293 0 0 0-.455.37c.228.281.555.443.897.443M3.975 5.646a.293.293 0 0 0 .293-.293v-.335a.293.293 0 0 0-.586 0v.335c0 .162.131.293.293.293M6.653 5.646a.293.293 0 0 0 .293-.293v-.335a.293.293 0 0 0-.586 0v.335c0 .162.13.293.293.293M15.02 8.993c.343 0 .67-.161.898-.443a.293.293 0 1 0-.455-.37.569.569 0 0 1-.442.227.569.569 0 0 1-.442-.226.293.293 0 1 0-.455.369c.228.282.555.443.897.443M13.682 7.32a.293.293 0 0 0 .293-.293v-.335a.293.293 0 1 0-.586 0v.335c0 .161.131.293.293.293M16.36 7.32a.293.293 0 0 0 .293-.293v-.335a.293.293 0 1 0-.586 0v.335c0 .161.13.293.293.293"/><path d="M15.02 13.763a2.388 2.388 0 0 1-2-1.088.963.963 0 0 0 .955-.962.963.963 0 0 0-.335-.726v-.278c0-.118-.006-.236-.019-.352a3.284 3.284 0 0 0 2.446.139v.429c0 .396.237.746.605.893l.632.253a2.383 2.383 0 0 1-2.283 1.692zm-4.685 1.004c-1.13 0-2.05-.92-2.05-2.05v-.335a.293.293 0 0 0-.293-.293h-.335a.377.377 0 0 1-.377-.376c0-.134.071-.255.19-.324a.291.291 0 0 0 .069-.057c.724-.02 3.072-.157 4.615-1.039a.293.293 0 0 0-.291-.508c-1.352.772-3.476.927-4.248.958v-.034c0-.545.165-1.073.464-1.518a.292.292 0 0 0 .378.106l1.878-.939 1.877.939a.293.293 0 0 0 .378-.106c.3.445.464.973.464 1.518v.427c0 .104.056.2.146.253.118.07.19.19.19.324a.377.377 0 0 1-.377.376h-.335a.293.293 0 0 0-.293.293V12.717c0 1.13-.92 2.05-2.05 2.05zm1.14 1.317l.187.062a1.715 1.715 0 0 1-2.654 0l.186-.062a.627.627 0 0 0 .43-.596v-.233a2.627 2.627 0 0 0 1.422 0v.233c0 .27.172.51.43.596zM2.661 9.969l.724-.217a1.97 1.97 0 0 0 1.929 1.584c.757 0 1.415-.43 1.744-1.059a3.294 3.294 0 0 0-.029.432v.278a.962.962 0 0 0-.335.726 2.706 2.706 0 0 1-1.38.376A2.73 2.73 0 0 1 2.66 9.97zm2.653-.976c.492 0 .96-.108 1.38-.302v.679c0 .76-.619 1.38-1.38 1.38-.76 0-1.379-.617-1.38-1.377v-.682c.42.194.887.302 1.38.302zm-2.72-3.305a.293.293 0 0 0-.293-.293.377.377 0 0 1 0-.753h.67c.126 0 .238-.08.278-.2l.269-.807c.673-.016 2.76-.11 3.935-.698a.293.293 0 1 0-.262-.524c-1.26.63-3.86.639-3.886.639a.293.293 0 0 0-.277.2l-.268.804h-.5v-1.38c0-1.131.92-2.051 2.05-2.051h2.678c.35 0 .643.252.698.6a.293.293 0 0 0 .146.209c.33.186.536.534.536.906v1.717a.925.925 0 0 0-.042-.001h-.334a.293.293 0 0 0 0 .586h.334a.377.377 0 0 1 0 .753.293.293 0 0 0-.293.293c0 1.5-1.22 2.72-2.72 2.72-1.499 0-2.719-1.22-2.719-2.72zm5.44 2.648a3.31 3.31 0 0 0-.756 1.115c.002-.027.002-.054.002-.081V8.342c.292-.217.547-.48.753-.779v.773zm.585-.835l1.06.53-1.06.53V7.5zm3.431 0v1.06l-1.06-.53 1.06-.53zm-.418-2.148a3.393 3.393 0 0 1 3.389-3.39 3.393 3.393 0 0 1 3.389 3.39c0 1.967.237 3.956.314 4.55-.263.172-.935.55-2.071.799v-.467a3.318 3.318 0 0 0 1.674-2.874c0-1.656-1.198-1.893-2.356-2.123-.737-.147-1.5-.298-2.106-.783a.293.293 0 0 0-.476.229c0 .007-.013.778-1.117 1.054a.293.293 0 0 0 .142.569c.924-.231 1.301-.75 1.455-1.14.636.377 1.347.518 1.988.646 1.238.245 1.883.426 1.883 1.548a2.73 2.73 0 0 1-1.011 2.116 2.689 2.689 0 0 1-1.708.604c-.574 0-1.12-.176-1.583-.508a3.31 3.31 0 0 0-.802-1.237v-1.31a.293.293 0 0 0-.424-.261l-.633.316c.035-.61.053-1.19.053-1.728zm7.553 6.84l-2.296-.919-.035-.017c1.585-.36 2.336-.964 2.37-.991a.293.293 0 0 0 .104-.268c-.004-.024-.332-2.35-.332-4.645a3.98 3.98 0 0 0-3.975-3.975 3.98 3.98 0 0 0-3.975 3.975c0 .6-.027 1.335-.072 2.03l-.64.32-1.877-.938-.016-.007c.09-.26.147-.535.169-.82a.964.964 0 0 0 .344-1.648V2.34A1.63 1.63 0 0 0 8.236.995 1.288 1.288 0 0 0 6.987.04H4.31a2.64 2.64 0 0 0-2.636 2.636V4.29a.96.96 0 0 0 .344 1.648c.074.984.58 1.848 1.33 2.404v.81l-2.424.727A1.29 1.29 0 0 0 0 11.12v3.27c0 .161.131.292.293.292h.042v3.39a.293.293 0 0 0 .586 0v-3.39h1.087v3.39a.293.293 0 0 0 .586 0V13.02c0-.257-.075-.506-.218-.72l-.5-.75a.293.293 0 1 0-.488.324l.501.751c.078.118.12.254.12.395v1.077H.585V11.12c0-.317.204-.59.507-.681l1.006-.302a3.32 3.32 0 0 0 3.215 2.537 3.29 3.29 0 0 0 1.566-.395c.176.24.458.395.777.395h.042v.042c0 .982.54 1.84 1.339 2.293v.478a.042.042 0 0 1-.029.04l-1.093.364c-.53.177-.887.671-.887 1.23v.95a.293.293 0 0 0 .586 0v-.95a.71.71 0 0 1 .486-.674l.322-.107a2.302 2.302 0 0 0 3.824 0l.32.107a.71.71 0 0 1 .487.675v.95a.293.293 0 0 0 .586 0v-.95c0-.56-.356-1.054-.887-1.23l-1.093-.365a.042.042 0 0 1-.028-.04v-.478a2.647 2.647 0 0 0 1.24-1.58 2.969 2.969 0 0 0 4.976-1.14l1.119.446a.708.708 0 0 1 .447.66v1.371h-1.088v-.376a.293.293 0 0 0-.586 0v3.682a.293.293 0 0 0 .586 0v-2.72h.753v2.72a.293.293 0 0 0 .586 0v-2.72h.042A.293.293 0 0 0 20 15.06v-1.663a1.29 1.29 0 0 0-.815-1.205z"/><path d="M11.189 13.159a.293.293 0 0 0-.412.043.569.569 0 0 1-.442.226.569.569 0 0 1-.442-.226.293.293 0 0 0-.455.369c.228.281.555.443.897.443.341 0 .668-.161.897-.443a.293.293 0 0 0-.043-.412M9.336 11.756a.293.293 0 1 1 0 .586.293.293 0 0 1 0-.586M11.328 11.756a.293.293 0 1 1 0 .586.293.293 0 0 1 0-.586"/></g></svg>