<svg width="24" height="24" xmlns="http://www.w3.org/2000/svg"><g stroke="#FFF" fill="none" fill-rule="evenodd"><path d="M12.128 23.166c-2.225-.023-2.728-2.03-2.577-3.89-.034-1.627-.074-3.254-.116-4.88.02-.673-.818-1.064-1.303-.549-.763.717-1.438 1.543-2.27 2.18-1.07.804-2.548.24-3.143-.877-.542-.877-.197-1.972.517-2.642 3.193-3.15 6.305-6.391 9.543-9.493 1.498-1.393 4.07.408 3.48 2.292-.424 1.233-1.693 1.903-2.455 2.909a.743.743 0 0 0 .573 1.145c.487.026.974.048 1.461.073 1.177.06 2.354.12 3.53.184 1.461-.023 3.15.208 3.52 1.865.466 1.676-.893 2.898-2.526 2.692-1.457-.13-2.91-.301-4.367-.442-.827-.12-2.1-.322-2.105.865.077 1.617.128 3.236.196 4.853.143 1.662-.077 3.49-1.958 3.715zM4.886 1.535c3.466.254 3.746 5.404.296 5.965-4.44.586-4.69-6.103-.296-5.965z"/></g></svg>