<svg width="24" height="24" xmlns="http://www.w3.org/2000/svg"><g fill="#FFF" fill-rule="evenodd"><path d="M6.363 11.696c.519 0 .935.416.935.936 0 .519-.416.935-.935.935a.935.935 0 1 1 0-1.871zM11.977 4.664V2.821a.479.479 0 0 0-.398-.477.469.469 0 0 0-.538.463v1.871c0 .281.248.506.538.464a.479.479 0 0 0 .398-.478z"/><path d="M6.377 14.035c.772 0 1.403-.631 1.403-1.403s-.631-1.404-1.403-1.404-1.404.632-1.404 1.404c0 .772.627 1.403 1.404 1.403zm0-1.871a.47.47 0 0 1 .467.468.47.47 0 0 1-.467.467.47.47 0 0 1-.468-.467c0-.258.206-.468.468-.468zM8.716 9.357h3.742a.47.47 0 0 0 .468-.468.47.47 0 0 0-.468-.468H8.716a.47.47 0 0 0-.468.468c0 .257.206.468.468.468zM14.316 9.357a.47.47 0 0 0 .468-.468.47.47 0 0 0-.468-.468.47.47 0 0 0-.468.468c0 .257.21.468.468.468z"/><path d="M1.464 17.123h1.39a7.933 7.933 0 0 0 2.105 2.788v2.578c0 .81.655 1.464 1.464 1.464h1.203c.594 0 1.08-.482 1.08-1.08v-1.198a7.83 7.83 0 0 0 1.404.126h2.807c.472 0 .94-.042 1.403-.126v1.198c0 .594.482 1.08 1.081 1.08h1.203c.809 0 1.464-.655 1.464-1.464V19.91c1.53-1.315 2.587-3.457 2.779-5.647.01-.089.014-.182.018-.271.73-.089 1.596-.388 2.139-.931a3.278 3.278 0 0 0 .701-3.593 3.236 3.236 0 0 0-.687-1.025.48.48 0 0 0-.627-.056.467.467 0 0 0-.047.702 2.335 2.335 0 0 1 0 3.308c-.304.304-.903.556-1.483.645-.253-3.4-2.817-6.325-6.255-7.181a3.833 3.833 0 0 0 .645-2.12A3.748 3.748 0 0 0 11.51 0a3.748 3.748 0 0 0-3.743 3.743c0 .734.22 1.45.618 2.058a7.986 7.986 0 0 0-1.904.683 3.276 3.276 0 0 0-2.85-1.806.527.527 0 0 0-.543.529V9.82a8.02 8.02 0 0 0-.813 2.344h-.81c-.809 0-1.464.655-1.464 1.464v2.035c0 .805.655 1.46 1.464 1.46zM11.523.936a2.806 2.806 0 1 1 0 5.614 2.806 2.806 0 1 1 0-5.614zM.936 13.628c0-.29.234-.529.528-.529H2.63a.525.525 0 0 0 .52-.458 6.965 6.965 0 0 1 .809-2.46.535.535 0 0 0 .065-.254V5.661a2.344 2.344 0 0 1 1.76 1.572.522.522 0 0 0 .763.29 6.934 6.934 0 0 1 2.572-.903 3.719 3.719 0 0 0 2.395.865c.857 0 1.675-.29 2.34-.823 3.457.608 6.058 3.537 6.082 6.891 0 .21-.01.421-.024.627-.173 2.016-1.165 3.981-2.587 5.132a.522.522 0 0 0-.192.407v2.775c0 .29-.234.528-.528.528h-.857a.486.486 0 0 1-.486-.486V20.15a.446.446 0 0 0-.248-.403.471.471 0 0 0-.688.417v.561c-.458.094-.93.14-1.403.14h-2.807c-.473 0-.945-.046-1.404-.14v-.547a.479.479 0 0 0-.398-.477.469.469 0 0 0-.538.463v2.33c0 .29-.233.528-.528.528h-.819a.528.528 0 0 1-.529-.528v-2.775c0-.159-.07-.308-.196-.407a7.068 7.068 0 0 1-2.091-2.802.524.524 0 0 0-.482-.323H1.464a.525.525 0 0 1-.528-.529v-2.03z"/></g></svg> 