<svg width="22" height="22" preserveAspectRatio="xMidYMid" xmlns="http://www.w3.org/2000/svg"><g fill="#FFF" fill-rule="evenodd"><path d="M12.99 12.963a.375.375 0 1 0 0 .75.375.375 0 0 0 0-.75zM4.89 6.588a.375.375 0 0 0 .376-.375v-1.5a.375.375 0 0 0-.75 0v1.5c0 .207.168.375.375.375z"/><path d="M18.09 9.213v-3a1.877 1.877 0 0 0-1.874-1.875h-2.1v-2.85c0-.62-.505-1.126-1.125-1.126H6.016c-.62 0-1.125.505-1.125 1.125v1.35H3.766c-.62 0-1.125.505-1.125 1.126v.375h-.375A1.877 1.877 0 0 0 .39 6.213v11.475c0 1.033.84 1.875 1.875 1.875H13.74c.905 0 1.663-.646 1.837-1.5h.638a1.877 1.877 0 0 0 1.875-1.875v-.975h.375c.62 0 1.125-.505 1.125-1.125v-3.375c0-.828-.673-1.5-1.5-1.5zm.75 1.5a.75.75 0 0 1-.75.75v-1.5a.75.75 0 0 1 .75.75zm-2.624-5.625c.62 0 1.125.504 1.125 1.125v5.25h-1.725v-2.25c0-.906-.645-1.664-1.5-1.838V5.088h2.1zM5.64 1.488c0-.207.168-.376.375-.376h6.975c.206 0 .375.169.375.375v5.85H11.64V3.964c0-.62-.505-1.125-1.125-1.125H5.64v-1.35zm3.75 5.85v-3.75h1.125c.207 0 .375.168.375.375v3.375h-1.5zm-2.25 0h1.5v-3.75h-1.5v3.75zM3.39 3.963c0-.207.168-.375.375-.375H6.39v3.75h-3V3.963zM2.266 5.088h.375v2.25h-.295c-.62 0-1.205-.45-1.205-1.125 0-.62.504-1.125 1.125-1.125zM13.74 18.813H2.266c-.62 0-1.125-.505-1.125-1.125V7.689c.335.25.756.399 1.205.399H13.74c.62 0 1.125.504 1.125 1.125v2.25H12.24c-.62 0-1.125.504-1.125 1.125v1.5c0 .62.504 1.125 1.125 1.125h2.625v2.475c0 .62-.505 1.125-1.125 1.125zm3.6-2.625c0 .62-.505 1.125-1.125 1.125h-.6v-2.1h1.725v.975zm1.5-4.176v2.076a.375.375 0 0 1-.375.375H12.24a.375.375 0 0 1-.375-.375v-1.5c0-.207.168-.375.375-.375h5.85c.267 0 .524-.07.75-.201z"/></g></svg>