<svg width="22" height="22" xmlns="http://www.w3.org/2000/svg"><g fill="#FFF" fill-rule="evenodd"><path d="M14.29 14.259a.413.413 0 1 0 0 .825.413.413 0 0 0 0-.825zM5.38 7.246a.413.413 0 0 0 .412-.412v-1.65a.413.413 0 0 0-.825 0v1.65c0 .228.185.412.413.412z"/><path d="M19.9 10.134v-3.3a2.065 2.065 0 0 0-2.063-2.063h-2.31V1.636C15.527.954 14.972.4 14.29.4H6.617c-.682 0-1.237.555-1.237 1.237v1.485H4.142c-.682 0-1.237.555-1.237 1.238v.412h-.413A2.065 2.065 0 0 0 .43 6.834v12.622c0 1.138.925 2.063 2.062 2.063h12.623c.996 0 1.829-.71 2.02-1.65h.702a2.065 2.065 0 0 0 2.063-2.063v-1.072h.412c.683 0 1.238-.555 1.238-1.238v-3.712c0-.91-.74-1.65-1.65-1.65zm.825 1.65c0 .455-.37.825-.825.825v-1.65c.455 0 .825.37.825.825zm-2.888-6.188c.683 0 1.238.555 1.238 1.238v5.775h-1.898v-2.475c0-.996-.71-1.83-1.65-2.021V5.596h2.31zM6.205 1.636c0-.227.185-.412.412-.412h7.673c.227 0 .412.185.412.412v6.435h-1.897V4.36c0-.683-.555-1.238-1.238-1.238H6.205V1.636zm4.125 6.435V3.946h1.237c.228 0 .413.185.413.413V8.07h-1.65zm-2.475 0h1.65V3.946h-1.65v4.125zM3.73 4.36c0-.228.185-.413.412-.413H7.03v4.125h-3.3V4.36zM2.492 5.596h.413v2.475H2.58c-.681 0-1.325-.493-1.325-1.237 0-.683.555-1.238 1.237-1.238zm12.623 15.098H2.492a1.239 1.239 0 0 1-1.237-1.238V8.458c.368.275.832.438 1.325.438h12.535c.682 0 1.237.555 1.237 1.238v2.475h-2.887c-.683 0-1.238.555-1.238 1.237v1.65c0 .683.555 1.238 1.238 1.238h2.887v2.722c0 .683-.555 1.238-1.237 1.238zm3.96-2.888c0 .683-.555 1.238-1.238 1.238h-.66v-2.31h1.898v1.072zm1.65-4.593v2.283a.413.413 0 0 1-.413.413h-6.847a.413.413 0 0 1-.413-.413v-1.65c0-.227.185-.412.413-.412H19.9c.294 0 .577-.077.825-.221z"/></g></svg>