<svg width="22" height="22" xmlns="http://www.w3.org/2000/svg"><g fill="#FFF" fill-rule="evenodd" opacity=".9"><path d="M10.112 14.923a.428.428 0 1 0-.605-.606.428.428 0 0 0 .605.606M16.669 4.727A3.873 3.873 0 0 1 12.8 8.594a3.873 3.873 0 0 1-3.867-3.867A3.873 3.873 0 0 1 12.801.859a3.873 3.873 0 0 1 3.868 3.868m-8.594 0A4.732 4.732 0 0 0 12.8 9.453a4.73 4.73 0 0 0 4.727-4.726A4.73 4.73 0 0 0 12.801 0a4.73 4.73 0 0 0-4.726 4.727"/><path d="M2.777 14.966a.429.429 0 0 1 .533-.06c.073.047-.138-.15 3.72 3.704a.432.432 0 0 1 .005.606L5.26 20.965 1.04 16.71l1.737-1.745zm5.384-2.853c.657 0 1.293.133 1.89.395a.397.397 0 0 0 .172.035h4.882c.464 0 .859.378.859.859 0 .473-.387.86-.86.86h-3.506a.431.431 0 0 0-.43.43c0 .235.194.429.43.429h3.507c.95 0 1.718-.77 1.718-1.719 0-.077-.004-.15-.017-.223 2.454-2.523 2.797-2.875 2.815-2.892a.859.859 0 0 1 1.31 1.109l-3.854 4.606a2.989 2.989 0 0 1-2.084.838H9.287a2.14 2.14 0 0 0-1.491.601l-.366.352-3.364-3.364c.786-1.474 2.26-2.316 4.095-2.316zM4.95 21.87a.432.432 0 0 0 .606.004l2.084-2.054a1.3 1.3 0 0 0 .305-1.332l.447-.434c.24-.232.558-.36.894-.36h5.71a3.857 3.857 0 0 0 2.699-1.096c.03-.03-.228.275 3.897-4.654.61-.722.52-1.809-.206-2.423a1.721 1.721 0 0 0-2.41.193L16.44 12.32a1.72 1.72 0 0 0-1.336-.64h-4.791a5.58 5.58 0 0 0-2.153-.43c-2.067 0-3.876.954-4.843 2.746a1.282 1.282 0 0 0-1.147.357L.126 16.405a.428.428 0 0 0 0 .606l4.825 4.86z"/></g></svg>