<svg width="22" height="22" xmlns="http://www.w3.org/2000/svg"><g fill="#FFF" fill-rule="evenodd" opacity="1"><path d="M9.192 13.566a.389.389 0 1 0-.55-.55.389.389 0 0 0 .55.55M15.153 4.297a3.52 3.52 0 0 1-3.515 3.516 3.52 3.52 0 0 1-3.516-3.516A3.52 3.52 0 0 1 11.638.78a3.52 3.52 0 0 1 3.515 3.516m-7.812 0a4.302 4.302 0 0 0 4.297 4.297 4.3 4.3 0 0 0 4.297-4.297A4.3 4.3 0 0 0 11.638 0 4.3 4.3 0 0 0 7.34 4.297"/><path d="M2.524 13.605a.39.39 0 0 1 .485-.054c.066.043-.125-.137 3.383 3.367a.393.393 0 0 1 .004.55l-1.614 1.59-3.836-3.867 1.578-1.586zm4.895-2.593a4.25 4.25 0 0 1 1.719.36.36.36 0 0 0 .156.03h4.437c.422 0 .782.344.782.782 0 .43-.352.78-.782.78h-3.187a.392.392 0 0 0-.39.392c0 .214.175.39.39.39h3.187a1.562 1.562 0 0 0 1.547-1.766c2.23-2.292 2.543-2.613 2.559-2.628a.78.78 0 0 1 1.191 1.008l-3.504 4.187a2.717 2.717 0 0 1-1.894.762H8.442c-.507 0-.992.195-1.355.547l-.332.32-3.059-3.059c.715-1.34 2.055-2.105 3.723-2.105zM4.5 19.882a.393.393 0 0 0 .55.005l1.895-1.867c.32-.32.418-.797.278-1.211l.406-.395c.219-.21.508-.328.812-.328h5.192c.922 0 1.793-.356 2.453-.996.027-.027-.207.25 3.543-4.23a1.566 1.566 0 0 0-.188-2.204 1.565 1.565 0 0 0-2.191.176l-2.305 2.367a1.563 1.563 0 0 0-1.215-.582H9.376a5.072 5.072 0 0 0-1.957-.39c-1.879 0-3.523.867-4.402 2.496a1.165 1.165 0 0 0-1.043.324l-1.86 1.867a.39.39 0 0 0 0 .55l4.387 4.419z"/></g></svg>