<svg width="132" height="43" xmlns="http://www.w3.org/2000/svg"><g fill="none" fill-rule="evenodd"><path d="M4.153 10.03A4.16 4.16 0 0 0 0 14.188a4.158 4.158 0 0 0 4.153 4.154 4.159 4.159 0 0 0 4.157-4.154 4.16 4.16 0 0 0-4.157-4.156M33.654 7.58c-1.683 0-2.951 1.31-2.951 3.048v12.484c0 1.737 1.268 3.046 2.951 3.046 1.682 0 2.95-1.31 2.95-3.046V10.628c0-1.738-1.268-3.048-2.95-3.048M46.891 20.781c-2.138 0-3.094-1.965-3.094-3.911 0-1.948.956-3.912 3.094-3.912 2.137 0 3.094 1.964 3.094 3.912 0 1.946-.957 3.911-3.094 3.911zM52.936 0c-1.682 0-2.951 1.31-2.951 3.048v5.254c-.872-.585-2-1.049-3.812-1.049-4.642 0-8.277 4.224-8.277 9.617 0 5.392 3.635 9.615 8.277 9.615 1.874 0 3.183-.546 4.304-1.722.576.868 1.451 1.395 2.459 1.395 1.681 0 2.95-1.31 2.95-3.046V3.048C55.886 1.31 54.617 0 52.936 0z" fill="#AC312B"/><path d="M68.77 11.097l-1.568-.506c-2.477-.785-3.124-1.024-3.124-1.825 0-.907.79-1.495 2.016-1.495 1.139 0 1.812.237 2.465.465.582.206 1.187.418 2.043.418 1.597 0 2.756-1.214 2.756-2.885 0-2.404-2.683-3.896-7.002-3.896-4.044 0-8.766 2.055-8.766 7.85 0 4.402 2.897 5.702 5.866 6.656l1.157.367c2.429.757 3.595 1.174 3.595 2.356 0 1.153-.855 1.788-2.408 1.788-1.528 0-2.748-.458-3.73-.824-.74-.277-1.38-.516-1.989-.516-1.893 0-2.884 1.614-2.884 3.21 0 2.915 4.8 4.225 8.21 4.225 5.73 0 9.291-3.133 9.291-8.178 0-4.631-2.998-6.245-5.927-7.21" fill="#E888A2"/><path d="M83.692 7.777h-1.003V4.844c0-1.736-1.27-3.046-2.95-3.046-1.682 0-2.952 1.31-2.952 3.046v2.933h-.185c-1.96 0-3.081 1.003-3.081 2.753 0 1.751 1.121 2.755 3.081 2.755h.185v9.827c0 1.737 1.27 3.046 2.951 3.046 1.682 0 2.951-1.31 2.951-3.046v-9.827h1.003c1.959 0 3.08-1.004 3.08-2.755 0-1.75-1.121-2.753-3.08-2.753M95.427 20.781c-2.138 0-3.095-1.965-3.095-3.911 0-1.948.957-3.912 3.095-3.912 2.135 0 3.095 1.964 3.095 3.912 0 1.946-.96 3.911-3.095 3.911zm6.045-13.2c-1.01 0-1.88.527-2.458 1.397-1.121-1.18-2.432-1.725-4.306-1.725-4.642 0-8.276 4.224-8.276 9.617 0 5.39 3.634 9.615 8.276 9.615 1.874 0 3.185-.546 4.306-1.724.577.87 1.448 1.397 2.458 1.397 1.682 0 2.951-1.31 2.951-3.046V10.628c0-1.738-1.269-3.048-2.951-3.048zM115.027 7.253c-1.531 0-2.722.938-3.46 1.706-.49-.713-1.36-1.379-2.617-1.379-1.683 0-2.952 1.31-2.952 3.048v12.484c0 1.737 1.269 3.046 2.952 3.046 1.682 0 2.949-1.31 2.949-3.046v-6.21c0-2.373.534-2.847 2.652-3.47 1.798-.535 3.49-1.042 3.49-3.13 0-1.884-1.563-3.049-3.014-3.049M128.899 7.777h-1.004V4.844c0-1.736-1.268-3.046-2.95-3.046-1.681 0-2.952 1.31-2.952 3.046v2.933h-.184c-1.959 0-3.082 1.003-3.082 2.753 0 1.751 1.123 2.755 3.082 2.755h.184v9.827c0 1.737 1.271 3.046 2.952 3.046 1.682 0 2.95-1.31 2.95-3.046v-9.827h1.004c1.958 0 3.08-1.004 3.08-2.755 0-1.75-1.122-2.753-3.08-2.753" fill="#E888A2"/><path d="M28.045 20.192l-.064-.068-5.688-5.262a1.3 1.3 0 0 1-.466-.993c0-.208.05-.403.137-.576l.002-.005c.104-.215.29-.39.357-.449h-.001l.013-.011.014-.012.06-.048L28.382 7.9c.794-.834 1.192-1.665 1.192-2.434 0-1.635-1.667-2.95-3.047-2.95-.808 0-1.643 0-2.972 1.332.01-.01-3.19 2.874-5.603 5.053l-.305.275a1.04 1.04 0 0 1-1.634-.228 1.03 1.03 0 0 1-.115-.336 1.76 1.76 0 0 1-.026-.26h-.002V5.177c0-1.98-1.168-3.212-3.05-3.212-1.877 0-3.046 1.232-3.046 3.212v18.038c0 1.98 1.169 3.21 3.046 3.21 1.881 0 3.048-1.23 3.048-3.21v-2.874-.543s-.002-.045 0-.111v-.003a1.075 1.075 0 0 1 .042-.286 1.04 1.04 0 0 1 .998-.748c.206 0 .399.062.56.166.086.053.156.107.2.145l.002-.001 5 4.77c.988 1.105 2.222 2.25 3.732 2.25 1.871 0 3.176-1.24 3.176-3.014 0-1.12-.708-1.887-1.533-2.774" fill="#AC312B"/><path d="M12.837 34.777c-.333.91-.644 1.82-.932 2.763h1.875c-.289-.943-.6-1.853-.943-2.763zm2.33 5.902c-.322 0-.633-.178-.734-.6-.087-.399-.187-.798-.287-1.186H11.54c-.099.388-.2.787-.289 1.187-.098.41-.399.599-.71.599-.432 0-.875-.355-.742-.932.532-2.33 1.23-4.47 2.074-6.567.277-.665.643-.798.987-.798.333 0 .732.133.999.798a42.012 42.012 0 0 1 2.074 6.567c.122.577-.322.932-.765.932zM20.56 40.646a1.14 1.14 0 0 1-.7-.245c-.332-.244-.587-.676-.587-1.297V33.29c0-.41.344-.743.755-.743.41 0 .742.332.742.743v5.68c0 .377.156.477.333.621a.55.55 0 0 1 .211.443c0 .433-.322.61-.754.61M22.846 40.646a.746.746 0 0 1-.756-.744V35.5c0-.411.333-.754.756-.754.41 0 .742.343.742.754v4.403c0 .41-.333.744-.742.744zm0-6.656a.833.833 0 0 1-.844-.832c0-.466.376-.832.844-.832a.83.83 0 0 1 .83.832.83.83 0 0 1-.83.832zM27.433 40.58h-.423c-1.596 0-2.173-1.033-2.173-2.574v-1.964h-.178a.615.615 0 1 1 0-1.231h.178v-.754c0-.411.344-.755.754-.755.41 0 .744.344.744.755v.754h.854c.344 0 .61.277.61.61a.61.61 0 0 1-.61.621h-.854v1.941c0 .899.177 1.276.887 1.276h.211c.366 0 .654.288.654.654a.658.658 0 0 1-.654.666M31.468 40.58h-.421c-1.597 0-2.174-1.033-2.174-2.574v-1.964h-.177a.615.615 0 1 1 0-1.231h.177v-.754c0-.411.344-.755.754-.755.41 0 .743.344.743.755v.754h.854c.345 0 .61.277.61.61a.61.61 0 0 1-.61.621h-.854v1.941c0 .899.178 1.276.888 1.276h.21c.366 0 .655.288.655.654a.658.658 0 0 1-.655.666M33.749 40.646c-.234 0-.489-.078-.698-.245-.334-.244-.589-.676-.589-1.297V33.29c0-.41.344-.743.754-.743.41 0 .743.332.743.743v5.68c0 .377.156.477.333.621a.55.55 0 0 1 .21.443c0 .433-.32.61-.753.61M37.422 35.91c-.587 0-.877.354-.877.986v.144h1.72v-.144c0-.632-.255-.986-.843-.986zm1.775 2.251h-2.652v.21c0 .666.3 1.054.922 1.054.555 0 .853-.088 1.242-.244.3-.122.632.056.721.377.1.333-.034.61-.311.733a4.133 4.133 0 0 1-1.741.355c-1.719 0-2.33-1.132-2.33-2.43v-1.031c0-1.298.722-2.44 2.34-2.44 1.686 0 2.32 1.12 2.32 2.406v.477c0 .3-.234.533-.511.533zM46.976 40.646a.744.744 0 0 1-.743-.744v-2.884c0-.454-.122-.865-.778-.865-.41 0-.72.178-.93.455v3.294c0 .41-.334.744-.744.744a.746.746 0 0 1-.754-.744v-6.611c0-.41.333-.743.754-.743.41 0 .744.332.744.743v1.82c.343-.234.787-.366 1.342-.366 1.396 0 1.864.854 1.864 2.096v3.061c0 .41-.333.744-.755.744M50.816 35.91c-.588 0-.876.354-.876.986v.144h1.72v-.144c0-.632-.255-.986-.844-.986zm1.776 2.251H49.94v.21c0 .666.3 1.054.92 1.054a2.92 2.92 0 0 0 1.244-.244c.299-.122.63.056.72.377.1.333-.033.61-.311.733a4.133 4.133 0 0 1-1.74.355c-1.72 0-2.331-1.132-2.331-2.43v-1.031c0-1.298.722-2.44 2.342-2.44 1.685 0 2.316 1.12 2.316 2.406v.477a.52.52 0 0 1-.508.533zM55.088 40.646c-.234 0-.488-.078-.699-.245-.334-.244-.588-.676-.588-1.297V33.29c0-.41.344-.743.754-.743.41 0 .743.332.743.743v5.68c0 .377.156.477.333.621.112.088.21.233.21.443 0 .433-.321.61-.753.61M59.775 37.007c0-.665-.254-.998-.9-.998-.264 0-.564.122-.807.31v2.729c.232.21.554.344.82.344.643 0 .887-.4.887-1.087v-1.298zm-.543 3.639c-.434 0-.865-.134-1.164-.333v1.552c0 .411-.334.744-.745.744a.752.752 0 0 1-.754-.744V36.43c0-.377-.11-.477-.287-.632a.537.537 0 0 1-.2-.432c0-.433.31-.621.742-.621.234 0 .488.077.7.244.077.055.145.121.21.199.366-.267.91-.443 1.399-.443 1.452 0 2.13.842 2.13 2.373v.898c0 1.642-.511 2.63-2.03 2.63zM67.767 38.227h-.81c-.655 0-.888.267-.888.632v.078c0 .41.255.643.832.643.51 0 .866-.277.866-.865v-.488zm1.241 2.419c-.299 0-.543-.122-.687-.234a1.091 1.091 0 0 1-.222-.232c-.422.366-1.032.466-1.52.466-1.331 0-1.997-.688-1.997-1.73v-.079c0-1.042.777-1.686 2.197-1.686h.988v-.21c0-.643-.167-1.01-.844-1.01-.466 0-.754.111-.998.244-.733.377-1.32-.588-.644-1.02.478-.31 1.176-.41 1.763-.41 1.609 0 2.22.709 2.22 2.373v1.852c0 .378.121.478.288.622.11.1.211.233.211.443 0 .433-.3.61-.755.61zM71.76 40.646a1.14 1.14 0 0 1-.699-.245c-.332-.244-.587-.676-.587-1.297V33.29c0-.41.344-.743.754-.743.41 0 .743.332.743.743v5.68c0 .377.155.477.333.621.11.088.211.233.211.443 0 .433-.321.61-.755.61M76.296 37.118c0-.655-.278-1.02-.887-1.02-.599 0-.888.365-.888 1.02v1.165c0 .654.29 1.02.888 1.02.61 0 .887-.366.887-1.02v-1.165zm-.887 3.528c-1.653 0-2.385-1.066-2.385-2.363v-1.176c0-1.287.732-2.362 2.385-2.362 1.653 0 2.386 1.075 2.386 2.362v1.176c0 1.297-.733 2.363-2.386 2.363zM82.874 40.646a.743.743 0 0 1-.742-.744v-2.884c0-.454-.134-.865-.788-.865-.4 0-.722.178-.921.455v3.294c0 .41-.333.744-.744.744a.746.746 0 0 1-.754-.744v-3.405c0-.377-.155-.477-.333-.632a.543.543 0 0 1-.2-.433c0-.433.311-.61.744-.61.233 0 .499.078.7.233.098.078.187.177.254.277.399-.366.943-.587 1.664-.587 1.409 0 1.874.854 1.874 2.096v3.061c0 .41-.343.744-.754.744M86.8 36.009c-.587 0-.853.366-.853 1.053v.9c0 .664.21 1.008.854 1.008.255 0 .599-.11.854-.31v-2.274a1.217 1.217 0 0 0-.854-.377zm2.353 4.07c0 1.553-.8 2.53-2.463 2.53-.521 0-1.12-.066-1.564-.255-.244-.112-.433-.311-.433-.588 0-.333.278-.621.622-.6.332.023.51.222 1.264.222.72 0 1.076-.42 1.076-1.22v-.287c-.333.21-.788.354-1.197.354-1.52 0-2.008-.898-2.008-2.53v-.42c0-1.598.543-2.54 2.018-2.54.466 0 .91.176 1.242.465a.755.755 0 0 1 .688-.465c.477 0 .755.343.755.754v4.58zM95.675 40.58h-.421c-1.598 0-2.175-1.033-2.175-2.574v-1.964h-.178a.617.617 0 0 1 0-1.231h.178v-.754c0-.411.344-.755.755-.755.41 0 .743.344.743.755v.754h.854c.344 0 .61.277.61.61a.61.61 0 0 1-.61.621h-.854v1.941c0 .899.177 1.276.888 1.276h.21c.366 0 .654.288.654.654a.658.658 0 0 1-.654.666M100.731 40.646a.745.745 0 0 1-.744-.744v-2.884c0-.454-.122-.865-.776-.865-.41 0-.722.178-.931.455v3.294c0 .41-.333.744-.744.744a.746.746 0 0 1-.754-.744v-6.611c0-.41.332-.743.754-.743.41 0 .744.332.744.743v1.82c.343-.234.787-.366 1.34-.366 1.4 0 1.865.854 1.865 2.096v3.061c0 .41-.333.744-.754.744M104.643 35.91c-.588 0-.876.354-.876.986v.144h1.719v-.144c0-.632-.254-.986-.843-.986zm1.776 2.251h-2.652v.21c0 .666.3 1.054.921 1.054a2.92 2.92 0 0 0 1.242-.244c.3-.122.633.056.722.377.1.333-.034.61-.311.733-.61.277-1.21.355-1.742.355-1.72 0-2.329-1.132-2.329-2.43v-1.031c0-1.298.72-2.44 2.34-2.44 1.686 0 2.319 1.12 2.319 2.406v.477c0 .3-.234.533-.51.533zM116.285 39.905c-.176.485-.557.677-.967.668-.41-.009-.784-.216-.908-.685a79.714 79.714 0 0 1-.727-2.91c-.263.96-.55 1.907-.847 2.878-.143.462-.524.655-.934.646-.411-.008-.795-.216-.94-.707-.404-1.363-.801-3.091-1.062-4.438-.1-.502.306-.793.694-.785a.665.665 0 0 1 .654.557c.2 1.048.472 2.329.77 3.478.347-1.169.612-2.151.88-3.288.096-.398.324-.692.846-.682.499.011.714.315.794.716.22 1.147.444 2.14.741 3.322.346-1.135.672-2.405.915-3.443a.654.654 0 0 1 .676-.529c.39.008.77.315.66.812-.316 1.336-.784 3.046-1.245 4.39M120.809 38.268l-.81-.017c-.654-.013-.893.248-.9.614l-.002.077c-.009.412.243.65.818.662.51.01.872-.26.884-.848l.01-.488zm1.19 2.444a1.147 1.147 0 0 1-.681-.247 1.184 1.184 0 0 1-.218-.238c-.428.357-1.04.444-1.528.435-1.33-.028-1.982-.73-1.96-1.772l.001-.078c.022-1.042.811-1.67 2.231-1.64l.987.02.004-.21c.014-.643-.144-1.013-.821-1.026a1.94 1.94 0 0 0-1.005.222c-.739.362-1.306-.615-.62-1.033.483-.3 1.184-.386 1.773-.374 1.606.034 2.201.756 2.168 2.42l-.04 1.852c-.007.377.112.478.276.626.11.103.206.238.201.449-.009.432-.312.604-.767.594z" fill="#515251"/><path d="M126.357 39.915c-.692 1.805-1.465 2.699-2.886 2.792-.534.033-.825-.362-.817-.739.007-.344.225-.683.68-.707.455-.023.9-.136 1.326-.793-.622-1.623-1.3-3.6-1.622-4.728-.155-.557.296-.903.728-.894.279.006.53.178.622.523.239.816.59 2.02 1.009 3.261l1.087-3.217a.716.716 0 0 1 .699-.496c.466.01.89.43.666 1.024l-1.492 3.974" fill="#515251"/></g></svg>