<?xml version="1.0" encoding="UTF-8"?>
<svg width="56px" height="56px" viewBox="0 0 56 56" version="1.1" xmlns="http://www.w3.org/2000/svg" xmlns:xlink="http://www.w3.org/1999/xlink">
    <!-- Generator: Sketch 64 (93537) - https://sketch.com -->
    <title>coin-in-hand-icon</title>
    <desc>Created with Sketch.</desc>
    <g id="Refer-page" stroke="none" stroke-width="1" fill="none" fill-rule="evenodd">
        <g id="Refer---Desktop-HD" transform="translate(-540.000000, -1236.000000)" fill="#FFFFFF">
            <g id="Topic" transform="translate(540.000000, 900.000000)">
                <g id="Points">
                    <g id="Point" transform="translate(0.000000, 336.000000)">
                        <g id="Bullet">
                            <g id="Point">
                                <g id="InHand">
                                    <path d="M26.4908239,33.428892 C26.6979735,33.2214773 26.6979735,32.8858617 26.4908239,32.678447 C26.2836742,32.4718277 25.9480587,32.4718277 25.7409091,32.678447 C25.5340246,32.8858617 25.5340246,33.2214773 25.7409091,33.428892 C25.9480587,33.6355114 26.2836742,33.6355114 26.4908239,33.428892 Z" id="Fill-1"></path>
                                    <path d="M23.9801705,20.8450663 C23.9801705,24.0605587 26.5964867,26.6768087 29.8119129,26.6768087 C33.0274053,26.6768087 35.6437216,24.0605587 35.6437216,20.8450663 C35.6437216,17.6293087 33.0274053,15.0132576 29.8119129,15.0132576 C26.5964867,15.0132576 23.9801705,17.6293087 23.9801705,20.8450663 Z M34.5833807,20.8450663 C34.5833807,23.4758333 32.4430114,25.6164678 29.8119129,25.6164678 C27.1808807,25.6164678 25.0405114,23.4758333 25.0405114,20.8450663 C25.0405114,18.214233 27.1808807,16.0735985 29.8119129,16.0735985 C32.4430114,16.0735985 34.5833807,18.214233 34.5833807,20.8450663 Z" id="Fill-2"></path>
                                    <path d="M20.1198958,42.0080019 C20.3252557,42.2151515 20.6598106,42.2174716 20.8680208,42.0123769 L23.4384659,39.4802462 C23.8750379,39.0434091 24.0078788,38.3968371 23.8157102,37.8349148 L24.3685511,37.3017614 C24.6663163,37.0141383 25.0583428,36.8556439 25.472642,36.8556439 L32.5204356,36.8556439 C33.7708239,36.8556439 34.9526042,36.3755871 35.8485511,35.5037027 C35.8852746,35.4677083 35.5686174,35.8408428 40.6567424,29.7597254 C41.4112973,28.8668939 41.2984091,27.5264205 40.4047822,26.7708049 C39.5166572,26.0224811 38.1864583,26.1299337 37.4295833,27.0075189 L34.301392,30.2226799 C33.90625,29.7366572 33.3039583,29.4334564 32.6530114,29.4334564 L26.7411932,29.4334564 C25.8999337,29.0816004 25.0073674,28.9034186 24.0862973,28.9034186 C21.5334848,28.9034186 19.3042898,30.0826136 18.1079924,32.2931818 C17.604072,32.1978598 17.0725095,32.3501231 16.6900284,32.7326042 L14.1679735,35.2621496 C13.9621496,35.4687689 13.9616193,35.8027936 14.1672443,36.0099432 L20.1198958,42.0080019 Z M24.0860322,29.9637595 C24.8980587,29.9637595 25.6831723,30.1271591 26.4200947,30.449517 C26.487178,30.4788163 26.5594318,30.4940625 26.6326799,30.4940625 L32.6530114,30.4940625 C33.2278598,30.4940625 33.7133523,30.9627841 33.7133523,31.5541383 C33.7133523,32.1388636 33.2376705,32.6145455 32.6530114,32.6145455 L28.3274621,32.6145455 C28.0348674,32.6145455 27.7974242,32.8519886 27.7974242,33.1445833 C27.7974242,33.437642 28.0348674,33.6748864 28.3274621,33.6748864 L32.6530114,33.6748864 C33.8223295,33.6748864 34.7736932,32.7235227 34.7736932,31.5541383 C34.7736932,31.4609375 34.7669318,31.3685322 34.7550663,31.2771212 C37.7812405,28.1662311 38.2080019,27.7291288 38.2260985,27.7073864 C38.6038731,27.2615341 39.2747727,27.2047917 39.7209564,27.5810417 C40.1676042,27.9585511 40.2240814,28.6289867 39.8452462,29.0774242 L35.0900852,34.7621402 C34.3956534,35.4286648 33.4841951,35.7955682 32.5204356,35.7955682 L25.472642,35.7955682 C24.7818561,35.7955682 24.1282576,36.0596591 23.6321591,36.5387216 L23.1816004,36.9737027 L19.028267,32.8203693 C19.9989867,30.9995076 21.8206439,29.9637595 24.0860322,29.9637595 Z M17.4404735,33.4819223 C17.6152083,33.3071875 17.8837405,33.2755682 18.0968561,33.4073485 C18.1885322,33.4632955 17.9251705,33.223267 22.6885511,37.980483 C22.9006723,38.1922727 22.8892708,38.5299432 22.6916667,38.7274811 L20.500322,40.8862784 L15.2912879,35.637339 L17.4404735,33.4819223 Z" id="Fill-4"></path>
                                </g>
                            </g>
                        </g>
                    </g>
                </g>
            </g>
        </g>
    </g>
</svg>