<svg width="56" height="56" xmlns="http://www.w3.org/2000/svg"><g fill="#FFF" fill-rule="evenodd"><path d="M22.423 26.645c.606 0 1.092.486 1.092 1.092 0 .606-.486 1.091-1.092 1.091a1.091 1.091 0 1 1 0-2.183zM28.973 18.442v-2.15a.559.559 0 0 0-.464-.557.547.547 0 0 0-.628.54v2.183c0 .328.29.59.628.54a.559.559 0 0 0 .464-.556z"/><path d="M22.44 29.374c.9 0 1.637-.737 1.637-1.637s-.737-1.638-1.638-1.638c-.9 0-1.637.737-1.637 1.638 0 .9.731 1.637 1.637 1.637zm0-2.183c.3 0 .545.246.545.546 0 .3-.245.546-.546.546a.547.547 0 0 1-.545-.546c0-.3.24-.546.545-.546zM25.168 23.916h4.367c.3 0 .546-.245.546-.546 0-.3-.246-.545-.546-.545h-4.367c-.3 0-.545.245-.545.545 0 .3.24.546.545.546zM31.702 23.916c.3 0 .546-.245.546-.546 0-.3-.246-.545-.546-.545-.3 0-.546.245-.546.545 0 .3.246.546.546.546z"/><path d="M16.708 32.977h1.621a9.255 9.255 0 0 0 2.457 3.253v3.007c0 .944.764 1.708 1.708 1.708h1.403c.693 0 1.26-.562 1.26-1.26v-1.398c.54.099 1.087.148 1.638.148h3.275c.551 0 1.097-.05 1.637-.148v1.398c0 .693.562 1.26 1.261 1.26h1.403c.944 0 1.708-.764 1.708-1.708V36.23c1.785-1.534 3.018-4.034 3.242-6.588.011-.104.017-.213.022-.317.852-.104 1.861-.453 2.494-1.086a3.824 3.824 0 0 0 .82-4.192 3.775 3.775 0 0 0-.803-1.195c-.197-.197-.513-.235-.732-.066a.545.545 0 0 0-.054.82 2.725 2.725 0 0 1 0 3.859c-.355.354-1.054.648-1.73.752-.295-3.968-3.286-7.38-7.298-8.378.48-.72.753-1.583.753-2.473A4.372 4.372 0 0 0 28.427 13a4.372 4.372 0 0 0-4.367 4.366c0 .857.257 1.692.72 2.402-.769.17-1.511.437-2.22.797a3.822 3.822 0 0 0-3.325-2.107.615.615 0 0 0-.633.617v5.382a9.356 9.356 0 0 0-.95 2.734h-.944c-.944 0-1.708.764-1.708 1.708v2.375c0 .938.764 1.703 1.708 1.703zm11.735-18.885a3.274 3.274 0 1 1 0 6.55 3.274 3.274 0 1 1 0-6.55zM16.092 28.899c0-.338.273-.616.616-.616h1.36c.305 0 .567-.23.605-.535a8.125 8.125 0 0 1 .945-2.871.624.624 0 0 0 .076-.295v-4.978c.95.197 1.747.884 2.052 1.834.06.175.191.317.366.382.175.066.366.05.524-.043a8.09 8.09 0 0 1 3.002-1.054 4.339 4.339 0 0 0 2.794 1.01c1 0 1.954-.338 2.73-.96 4.033.709 7.068 4.126 7.095 8.04 0 .245-.011.49-.027.73-.202 2.353-1.36 4.645-3.019 5.988a.609.609 0 0 0-.223.475v3.236a.616.616 0 0 1-.617.617h-1a.567.567 0 0 1-.567-.567v-2.784a.52.52 0 0 0-.289-.47.55.55 0 0 0-.802.486v.655a8.208 8.208 0 0 1-1.638.164H26.8a8.208 8.208 0 0 1-1.637-.164v-.638a.559.559 0 0 0-.464-.557.547.547 0 0 0-.628.54v2.718a.616.616 0 0 1-.616.617h-.956a.616.616 0 0 1-.616-.617v-3.236a.597.597 0 0 0-.23-.475 8.245 8.245 0 0 1-2.44-3.27.611.611 0 0 0-.562-.376h-1.943a.613.613 0 0 1-.616-.617V28.9z"/></g></svg>