<svg viewBox="0 0 40 40" xmlns="http://www.w3.org/2000/svg"><g fill="#32B67A" fill-rule="evenodd"><path d="M24.984 24.938a.625.625 0 1 0 0 1.25.625.625 0 0 0 0-1.25zM11.484 14.313c.346 0 .625-.28.625-.625v-2.5a.625.625 0 0 0-1.25 0v2.5c0 .345.28.625.625.625z"/><path d="M33.485 18.688v-5a3.128 3.128 0 0 0-3.125-3.125h-3.5v-4.75a1.877 1.877 0 0 0-1.876-1.875H13.36a1.877 1.877 0 0 0-1.875 1.874v2.25H9.61a1.877 1.877 0 0 0-1.875 1.876v.625H7.11a3.128 3.128 0 0 0-3.125 3.125v19.125a3.129 3.129 0 0 0 3.125 3.125h19.125a3.13 3.13 0 0 0 3.062-2.5h1.064a3.129 3.129 0 0 0 3.125-3.125v-1.625h.625a1.877 1.877 0 0 0 1.875-1.875v-5.625c0-1.379-1.122-2.5-2.5-2.5zm1.25 2.5c0 .69-.56 1.25-1.25 1.25v-2.5c.689 0 1.25.56 1.25 1.25zm-4.375-9.375c1.033 0 1.875.84 1.875 1.875v8.75h-2.876v-3.75a3.13 3.13 0 0 0-2.5-3.063v-3.812h3.5zm-17.626-6c0-.345.28-.625.625-.625h11.625c.345 0 .625.28.625.625v9.75h-2.875V9.938a1.877 1.877 0 0 0-1.875-1.875h-8.125v-2.25zm6.25 9.75v-6.25h1.875c.345 0 .625.28.625.625v5.625h-2.5zm-3.75 0h2.5v-6.25h-2.5v6.25zm-6.25-5.625c0-.345.28-.625.625-.625h4.375v6.25h-5V9.938zM7.11 11.813h.625v3.75h-.491c-1.033 0-2.009-.748-2.009-1.875 0-1.034.841-1.875 1.875-1.875zm19.125 22.875H7.11a1.877 1.877 0 0 1-1.875-1.875V16.149c.56.416 1.261.664 2.009.664h18.991c1.034 0 1.875.84 1.875 1.875v3.75h-4.375a1.877 1.877 0 0 0-1.875 1.875v2.5c0 1.033.841 1.875 1.875 1.875h4.375v4.125a1.877 1.877 0 0 1-1.875 1.875zm6-4.375a1.877 1.877 0 0 1-1.874 1.875h-1v-3.5h2.875v1.625zm2.5-6.96v3.46c0 .344-.28.625-.624.625H23.734a.626.626 0 0 1-.625-.625v-2.5c0-.345.28-.625.625-.625h9.75c.446 0 .875-.117 1.25-.335z"/></g></svg>