<svg width="40" height="40" xmlns="http://www.w3.org/2000/svg"><g fill="#055A5B" fill-rule="evenodd"><path d="M32.422 23.36c-1.62-1.602-4.034-1.999-6.016-1.172V12.5a1.867 1.867 0 0 0-.468-1.094l-5.079-5a1.016 1.016 0 0 0-.39-.312c-.006-.004-.007-.005 0 0-.014-.008-.02-.011 0 0-.04-.02-.054-.027-.078 0a1.035 1.035 0 0 0-.547-.157H7.578A1.58 1.58 0 0 0 6.016 7.5v25c0 .85.712 1.563 1.562 1.563h17.188c.858 0 1.555-.656 1.64-1.485-.034-.019-.034-.03 0-.078v-.078c.65.287 1.381.43 2.11.469 1.422-.038 2.842-.579 3.906-1.641 1.064-1.065 1.64-2.457 1.64-3.906a5.61 5.61 0 0 0-1.64-3.985zm-7.89-11.797h-3.595c-.101 0-.156-.055-.156-.157V7.812l3.75 3.75zm.702 20.937c-.023.273-.235.469-.468.469H7.578a.482.482 0 0 1-.469-.469v-25c0-.249.22-.469.47-.469h12.03v4.375c.013.701.56 1.248 1.25 1.25h4.375v10.156c-.237.177-.464.37-.703.547-1.02 1.083-1.595 2.475-1.562 3.985-.033 1.452.543 2.844 1.562 3.906.239.199.465.39.703.547v.703zm6.407-2.031a4.355 4.355 0 0 1-6.25 0 4.256 4.256 0 0 1-1.328-3.125c0-1.19.463-2.31 1.328-3.125a4.27 4.27 0 0 1 3.125-1.328c1.14 0 2.28.434 3.125 1.328a4.256 4.256 0 0 1 1.328 3.125c0 1.19-.463 2.309-1.328 3.125z"/><path d="M30.43 25.755l-2.56 2.172-1.305-1.362a.546.546 0 0 0-.789.752l1.662 1.734a.544.544 0 0 0 .747.038l2.951-2.505a.544.544 0 1 0-.707-.83zM9.846 14.688h7.652a.548.548 0 1 0 0-1.094H9.846a.548.548 0 1 0 0 1.094zM19.375 23.438H9.844a.547.547 0 1 0 0 1.093h9.53a.547.547 0 1 0 0-1.093zM19.375 26.719H9.844a.547.547 0 1 0 0 1.093h9.53a.547.547 0 1 0 0-1.093zM22.498 20.156H9.846a.548.548 0 1 0 0 1.094h12.652a.548.548 0 1 0 0-1.094zM9.768 17.969h9.917c.303 0 .55-.245.55-.547a.548.548 0 0 0-.55-.547H9.768a.548.548 0 1 0 0 1.094zM22.969 17.422a.547.547 0 1 1-1.094 0 .547.547 0 0 1 1.094 0z"/></g></svg>