<svg width="40" height="40" xmlns="http://www.w3.org/2000/svg"><g fill="#32B67A" fill-rule="evenodd"><path d="M9.85 14.683h7.65a.549.549 0 0 0 0-1.097H9.85a.549.549 0 1 0 0 1.097zM19.408 23.459H9.85a.549.549 0 1 0 0 1.097h9.558a.549.549 0 0 0 0-1.097zM19.408 26.75H9.85a.549.549 0 0 0 0 1.097h9.558a.549.549 0 1 0 0-1.098zM22.493 20.168H9.85a.549.549 0 0 0 0 1.097h12.643a.549.549 0 0 0 0-1.097zM9.795 18.01h9.9a.549.549 0 1 0 0-1.098h-9.9a.548.548 0 1 0 0 1.098zM22.975 17.461a.549.549 0 1 1-1.098 0 .549.549 0 0 1 1.098 0zM28.475 24.156a.549.549 0 0 0-.55.548v3.293a.549.549 0 0 0 1.098 0v-3.293a.549.549 0 0 0-.548-.548zM28.475 29.064a.549.549 0 0 0-.55.549v.03a.549.549 0 0 0 1.098 0v-.03a.549.549 0 0 0-.548-.549z"/><path d="M32.394 23.394a5.552 5.552 0 0 0-6.062-1.192v-9.7c0-.4-.157-.778-.44-1.062L20.83 6.378a1.5 1.5 0 0 0-.406-.288h-.001a.482.482 0 0 0-.06-.028 1.507 1.507 0 0 0-.596-.125H7.57a1.59 1.59 0 0 0-1.588 1.589v24.948a1.59 1.59 0 0 0 1.588 1.589h17.173a1.59 1.59 0 0 0 1.586-1.526v-.114a5.56 5.56 0 0 0 6.064-1.19 5.506 5.506 0 0 0 1.623-3.92c0-1.48-.576-2.872-1.623-3.919zm-7.936-11.835h-3.626a.122.122 0 0 1-.121-.122V7.811l3.747 3.748zm.775 20.959a.491.491 0 0 1-.49.447H7.572c-.27 0-.49-.22-.49-.49V7.524c0-.27.22-.49.49-.49h12.043v4.402a1.22 1.22 0 0 0 1.218 1.22h4.403v10.16a5.544 5.544 0 0 0-.68.577 5.506 5.506 0 0 0-1.622 3.92c0 1.48.576 2.871 1.623 3.918.213.214.44.405.677.577v.709zm6.384-2.062a4.45 4.45 0 0 1-6.285 0 4.416 4.416 0 0 1-1.302-3.143c0-1.187.462-2.303 1.302-3.143a4.43 4.43 0 0 1 3.143-1.3 4.43 4.43 0 0 1 3.142 1.3 4.415 4.415 0 0 1 1.303 3.143 4.415 4.415 0 0 1-1.303 3.143z"/></g></svg>