<svg width="40" height="40" xmlns="http://www.w3.org/2000/svg"><g fill="#055A5B" fill-rule="evenodd"><path d="M13.674 14.766h7.652a.548.548 0 1 0 0-1.094h-7.652a.548.548 0 1 0 0 1.094M13.597 18.125h9.916c.303 0 .55-.245.55-.547a.548.548 0 0 0-.55-.547h-9.916a.548.548 0 0 0-.55.547c0 .302.246.547.55.547M23.594 28.75c-.151.226-.221.498-.313.703.003.14-.041.31-.078.39-.021-.011-.064-.005-.156 0a1.16 1.16 0 0 0-.235 0 .462.462 0 0 0-.234 0 .967.967 0 0 0-.547.079c-.266.064-.481.238-.703.39-.071.084-.244.223-.312.235-.069-.012-.241-.151-.313-.235-.221-.152-.437-.326-.703-.39a.966.966 0 0 0-.547-.078.462.462 0 0 0-.234 0 1.16 1.16 0 0 0-.235 0c-.091-.006-.134-.012-.156 0-.036-.08-.08-.25-.078-.39-.091-.206-.162-.478-.313-.704-.192-.243-.428-.393-.625-.547-.108-.038-.266-.139-.312-.234.002-.036.069-.218.078-.313.118-.254.217-.522.235-.781a2.254 2.254 0 0 0-.235-.86c-.01-.094-.076-.276-.078-.312.046-.095.204-.196.313-.234.196-.154.432-.304.625-.547.15-.226.22-.498.312-.703-.002-.14.042-.31.078-.39.022.011.065.005.156 0 .055.005.127.009.235 0 .058.017.15.022.234 0 .22.022.39-.002.547-.079.266-.064.482-.237.703-.39.073-.085.249-.226.313-.235.064.009.24.15.312.234.222.154.437.327.703.391.157.077.326.1.547.078a.456.456 0 0 0 .235 0c.107.01.18.006.234 0 .092.006.135.012.156 0 .037.08.08.25.078.39.092.206.162.478.313.704.193.243.428.393.625.547.108.039.267.139.312.234-.001.036-.068.218-.078.313a2.257 2.257 0 0 0-.234.859c.018.258.116.527.234.781.01.095.077.277.078.313-.045.095-.204.195-.312.234-.197.154-.432.304-.625.547zm-.625 7.578l-1.64-1.016a.513.513 0 0 0-.626 0l-1.64 1.016v-5.312c.062.013.123.01.156 0 .103.003.176 0 .234 0 .112 0 .156.01.156 0 .087.038.22.147.313.234.288.221.628.497 1.094.469.465.028.805-.248 1.093-.469a1.44 1.44 0 0 1 .313-.234c0 .01.044 0 .156 0 .058 0 .131.003.235 0 .033.01.094.013.156 0v5.312zm1.562-6.875c.07-.05.218-.144.313-.234.301-.16.66-.388.781-.782.161-.46.015-.86-.078-1.171a2.466 2.466 0 0 1-.156-.391 1.06 1.06 0 0 1 .156-.39c.093-.356.24-.757.078-1.172-.122-.438-.48-.665-.781-.86a1.41 1.41 0 0 1-.313-.234 3.593 3.593 0 0 1-.078-.313c-.093-.337-.197-.744-.547-1.015-.293-.202-.623-.226-.86-.235a.833.833 0 0 1-.233 0c-.105.022-.178.026-.235 0-.113.026-.157.016-.156 0-.087-.013-.221-.121-.313-.234-.289-.194-.628-.469-1.093-.469-.465 0-.805.275-1.094.469-.091.113-.225.221-.313.234.001.016-.043.026-.156 0-.057.026-.13.022-.234 0a.832.832 0 0 1-.235 0c-.235.009-.565.033-.859.235-.35.271-.454.678-.547 1.015a3.578 3.578 0 0 1-.078.313 1.41 1.41 0 0 1-.313.234c-.301.195-.659.422-.78.86-.162.415-.015.816.077 1.171.078.113.139.278.157.391a2.468 2.468 0 0 1-.157.39c-.092.312-.239.712-.078 1.172.122.394.48.621.782.782.094.09.243.185.312.234.01.06.055.232.078.39.07.205.143.486.313.704.004 7.404.004 2.935 0 6.797.004.251.12.448.312.547.18.108.407.102.625 0l2.188-1.407 2.187 1.407c.133.048.241.078.313.078a.541.541 0 0 0 .312-.078c.193-.099.309-.296.313-.547v-6.797c.17-.218.242-.499.312-.703.023-.16.068-.33.078-.39z"/><path d="M24.688 11.64c-.102 0-.157-.054-.157-.156V7.891l3.75 3.75h-3.593zm-.079-5.156a1.291 1.291 0 0 0-1.015-.468H11.328c-.849 0-1.562.714-1.562 1.562v25.078c0 .848.713 1.563 1.562 1.563h6.719v-1.094h-6.719a.502.502 0 0 1-.469-.469V7.578a.502.502 0 0 1 .47-.469h12.108v4.454a1.16 1.16 0 0 0 1.172 1.171h4.453v19.922a.502.502 0 0 1-.468.469h-4.688v1.094h4.688c.848 0 1.562-.715 1.562-1.563V12.578c0-.381-.156-.76-.468-1.015l-5.079-5.079z"/></g></svg>