<svg width="40" height="40" xmlns="http://www.w3.org/2000/svg"><g fill="#32B67A" fill-rule="evenodd"><path d="M20.007 7.559a.635.635 0 1 0 0-1.27.635.635 0 0 0 0 1.27"/><path d="M10.607 13.003c.649-4.125 4.142-7.456 8.306-7.922 5.842-.653 10.615 3.951 10.615 9.46a9.525 9.525 0 0 1-3.13 7.04 5.94 5.94 0 0 0-1.913 3.751h-8.956a5.996 5.996 0 0 0-1.929-3.765 9.542 9.542 0 0 1-2.993-8.564zm11.939 19.438h-5.078a1.906 1.906 0 0 1-1.904-1.904v-1.016h1.904a.635.635 0 1 0 0-1.269h-1.904v-1.65h8.886v1.65h-1.904a.635.635 0 1 0 0 1.27h1.904v1.015c0 1.05-.854 1.904-1.904 1.904zm-2.539 2.54a1.913 1.913 0 0 1-1.796-1.276h3.592a1.912 1.912 0 0 1-1.796 1.275zm-7.261-12.475a4.702 4.702 0 0 1 1.548 3.46v4.571a3.179 3.179 0 0 0 2.593 3.12 3.174 3.174 0 0 0 6.24 0 3.178 3.178 0 0 0 2.593-3.12v-4.57a4.66 4.66 0 0 1 1.53-3.445 10.797 10.797 0 0 0 3.548-7.98c0-6.322-5.493-11.453-12.026-10.722-4.739.53-8.678 4.275-9.42 8.986-.569 3.62.7 7.246 3.394 9.7z"/><path d="M22.303 7.942c2.723.95 4.686 3.572 4.686 6.6a.635.635 0 1 0 1.27 0c0-3.58-2.317-6.676-5.538-7.799a.635.635 0 0 0-.418 1.2"/></g></svg>