<svg width="40" height="40" xmlns="http://www.w3.org/2000/svg"><g fill="#32B67A" fill-rule="evenodd"><path d="M18.515 28.41a.625.625 0 1 0 .885.885.625.625 0 0 0-.885-.884z"/><path d="M34.542 27.326l-4.745-4.035a.6.6 0 0 0-.07-.051 3.106 3.106 0 0 0-3.887.426l-2.587 2.587a.623.623 0 0 1-.68.136c-2.922-1.209-5.322-3.028-7.134-5.407-1.381-1.814-1.88-3.256-1.945-3.46a.64.64 0 0 0-.038-.128.622.622 0 0 1 .136-.68l2.587-2.588a3.106 3.106 0 0 0 .406-3.917L13.16 5.447a3.125 3.125 0 0 0-4.836-.516l-.518.518-.002.002L5.954 7.3c-2.206 2.206-2.567 5.52-1.043 9.586 1.304 3.482 3.916 7.294 7.354 10.731 3.519 3.52 7.433 6.18 11.022 7.49 3.551 1.298 7.33 1.458 10.003-1.216l1.745-1.744a3.125 3.125 0 0 0-.493-4.821zm-5.52-3.053l4.741 4.031a.565.565 0 0 0 .07.05 1.876 1.876 0 0 1 .318 2.909l-.13.13-8.086-6.055.79-.788a1.863 1.863 0 0 1 2.297-.277zM12.115 6.134c.006.01.012.02.02.03l3.425 4.76a1.863 1.863 0 0 1-.265 2.318l-.764.764L9.06 5.962l.147-.147c.85-.85 2.265-.69 2.908.32zm11.6 27.8c-3.42-1.25-7.173-3.808-10.566-7.2-3.315-3.315-5.825-6.968-7.068-10.287-.934-2.49-1.56-5.947.757-8.263L8.16 6.861l5.471 8.045-.923.923c-.525.524-.69 1.3-.428 1.99.197.81 1.105 2.49 2.021 3.728 1.348 1.823 3.794 4.342 7.793 5.997a1.87 1.87 0 0 0 2.043-.407l.905-.906 8.087 6.054-.722.722c-2.483 2.484-6.097 1.875-8.692.927z"/><path d="M17.342 26.919c-.66-.58-1.802-1.575-2.404-2.194-1.474-1.515-3.021-3.352-3.941-4.679a.624.624 0 1 0-1.028.712c1.16 1.674 2.865 3.597 4.073 4.839.635.653 1.787 1.658 2.476 2.261a.625.625 0 0 0 .824-.94z"/></g></svg>