<svg width="40" height="40" xmlns="http://www.w3.org/2000/svg"><g fill="#055A5B" fill-rule="evenodd"><path d="M14.844 36.875a.658.658 0 0 1-.466-.193l-2.704-2.705h-3.94a4.615 4.615 0 0 1-4.609-4.612V19.221a4.615 4.615 0 0 1 4.608-4.612h6.65a.659.659 0 0 1 0 1.318h-6.65a3.296 3.296 0 0 0-3.291 3.294v10.144a3.296 3.296 0 0 0 3.291 3.294h4.278c.27 0 .502.162.604.396l1.572 1.572v-1.31c0-.363.295-.658.659-.658h7.108a3.296 3.296 0 0 0 3.292-3.294V24.82a.659.659 0 1 1 1.317 0v4.545a4.615 4.615 0 0 1-4.609 4.612h-6.45l-.002 2.24a.659.659 0 0 1-.658.658"/><path d="M29.94 20.579c.192.035.361.102.462.23l1.613 1.613v-2.534c.033-.222.131-.418.307-.538 2.096-1.585 3.303-3.997 3.303-6.604 0-4.58-3.724-8.293-8.296-8.293h-1.69c-4.57 0-8.295 3.713-8.295 8.293 0 4.548 3.724 8.26 8.295 8.294h1.69a10.587 10.587 0 0 0 2.458-.384c.042-.033.107-.042.154-.077zm2.717 4.03a.536.536 0 0 1-.46-.23l-2.454-2.455a7.51 7.51 0 0 1-2.454.307h-1.687c-5.282.036-9.586-4.257-9.586-9.515 0-5.297 4.304-9.591 9.586-9.591h1.687c5.282 0 9.586 4.294 9.586 9.591a8.91 8.91 0 0 1-1.074 4.297c-.578 1.217-1.446 2.284-2.454 3.146v3.76c-.037.298-.197.538-.46.614a.332.332 0 0 1-.23.076z"/><path d="M26.64 15.39a.66.66 0 0 1-.664-.655v-1.576c0-.588.408-1.088.99-1.217a1.461 1.461 0 0 0 1.155-1.535 1.476 1.476 0 0 0-1.374-1.357 1.485 1.485 0 0 0-1.119.39c-.304.28-.471.661-.471 1.072a.66.66 0 0 1-.665.656.66.66 0 0 1-.664-.656c0-.767.326-1.507.894-2.03a2.812 2.812 0 0 1 2.116-.74c1.391.094 2.512 1.2 2.608 2.574a2.767 2.767 0 0 1-2.141 2.895v1.524a.66.66 0 0 1-.664.656M26.68 18.047a.668.668 0 0 1-.47-.194.67.67 0 0 1-.194-.47.67.67 0 0 1 .194-.47.67.67 0 0 1 .47-.194.67.67 0 0 1 .47.194.67.67 0 0 1 .194.47.67.67 0 0 1-.195.47.668.668 0 0 1-.47.194M21.216 24.844H7.3a.662.662 0 0 1-.66-.664c0-.367.296-.664.66-.664h13.916c.364 0 .659.297.659.664a.662.662 0 0 1-.66.664M21.29 28.594a.67.67 0 0 1-.47-.195.67.67 0 0 1-.195-.47.67.67 0 0 1 .664-.664.67.67 0 0 1 .664.664.668.668 0 0 1-.664.665M18.637 28.594H7.3a.662.662 0 0 1-.66-.664c0-.367.295-.664.66-.664h11.336c.364 0 .66.297.66.664a.662.662 0 0 1-.66.664M16.92 21.172H7.3a.662.662 0 0 1-.66-.664c0-.367.296-.664.66-.664h9.62c.363 0 .658.297.658.664a.661.661 0 0 1-.659.664"/></g></svg>