<svg width="40" height="40" xmlns="http://www.w3.org/2000/svg"><g fill="#055A5B" fill-rule="evenodd"><path d="M15.627 11.516a.625.625 0 1 0 0-1.251.625.625 0 0 0 0 1.25z"/><path d="M31.27 15.284a3.293 3.293 0 0 0-1.554-2.794 3.283 3.283 0 0 0-2.487-4.433 3.291 3.291 0 0 0-4.433-2.486 3.292 3.292 0 0 0-2.794-1.555A3.292 3.292 0 0 0 17.21 5.57a3.28 3.28 0 0 0-1.198-.225 3.26 3.26 0 0 0-2.325.965 3.25 3.25 0 0 0-.907 1.745 3.266 3.266 0 0 0-1.75.911 3.265 3.265 0 0 0-.965 2.325c0 .414.077.82.226 1.198a3.291 3.291 0 0 0-1.556 2.794c0 1.152.604 2.204 1.556 2.794a3.292 3.292 0 0 0 2.485 4.433 3.267 3.267 0 0 0 1.602 2.277v10.603a.625.625 0 0 0 1.067.442l4.558-4.559 4.559 4.559a.626.626 0 0 0 1.066-.442V24.787a3.24 3.24 0 0 0 1.593-2.274 3.265 3.265 0 0 0 1.753-.909 3.265 3.265 0 0 0 .968-2.329c0-.414-.077-.819-.225-1.197a3.292 3.292 0 0 0 1.555-2.794zm-15.643 9.915a3.291 3.291 0 0 0 1.25-.093v7.526l-1.25 1.25v-8.683zm3.934 4.75l-1.434 1.433v-5.42a3.27 3.27 0 0 0 3.75 0v5.42l-1.432-1.433a.625.625 0 0 0-.884 0zm3.566 2.683v-7.526a3.294 3.294 0 0 0 1.25.093v8.683l-1.25-1.25zm5.532-15.426a.625.625 0 0 0-.312.938c.225.335.344.726.344 1.131a2.02 2.02 0 0 1-.6 1.443 2.023 2.023 0 0 1-1.437.593h-.013a.625.625 0 0 0-.625.63 2.003 2.003 0 0 1-1.25 1.88h-.001a2.028 2.028 0 0 1-1.904-.192.622.622 0 0 0-.294-.102h-.002a.51.51 0 0 0-.049-.003l-.013-.001a.625.625 0 0 0-.614.505 2.041 2.041 0 0 1-1.886 1.274 2.01 2.01 0 0 1-1.902-1.34.612.612 0 0 0-.106-.203v-.002a.548.548 0 0 0-.04-.045l-.005-.006a.589.589 0 0 0-.038-.035l-.012-.01a.619.619 0 0 0-.75-.037c-.335.227-.73.348-1.139.348a2.026 2.026 0 0 1-2.036-2.035.627.627 0 0 0-.625-.626 2.038 2.038 0 0 1-1.692-3.167.625.625 0 0 0-.312-.938 2.039 2.039 0 0 1 0-3.844.625.625 0 0 0 .312-.938 2.026 2.026 0 0 1-.344-1.131c0-.545.212-1.056.598-1.44a2.023 2.023 0 0 1 1.44-.596h.004a.626.626 0 0 0 .625-.627 2.012 2.012 0 0 1 .59-1.436 2.02 2.02 0 0 1 1.44-.598c.407 0 .798.119 1.132.343a.625.625 0 0 0 .938-.312 2.039 2.039 0 0 1 3.843 0 .626.626 0 0 0 .938.312 2.038 2.038 0 0 1 3.167 1.693c0 .345.28.625.625.625a2.034 2.034 0 0 1 1.693 3.167.625.625 0 0 0 .312.938 2.038 2.038 0 0 1 0 3.844z"/><path d="M20.002 8.39c-.882 0-1.742.166-2.556.492a.625.625 0 1 0 .464 1.16 5.631 5.631 0 0 1 7.717 5.223 5.631 5.631 0 0 1-5.625 5.626 5.632 5.632 0 0 1-5.223-7.718.625.625 0 1 0-1.16-.464 6.883 6.883 0 0 0 6.384 9.432 6.883 6.883 0 0 0 6.874-6.875 6.883 6.883 0 0 0-6.875-6.875z"/><path d="M23.127 15.266a.625.625 0 0 0 1.25 0 4.38 4.38 0 0 0-4.375-4.375.625.625 0 0 0 0 1.25 3.129 3.129 0 0 1 3.125 3.125z"/></g></svg>