<svg width="40" height="40" xmlns="http://www.w3.org/2000/svg"><g fill="#055A5B" fill-rule="evenodd"><path d="M19.986 22.203c.343 0 .621-.28.621-.625a.623.623 0 0 0-.621-.625.623.623 0 0 0-.621.625c0 .345.278.625.621.625z" opacity=".5"/><path d="M19.631 35.837a.617.617 0 0 0 .722 0c6.331-4.549 12.688-6.545 12.688-15.904V8.346a.623.623 0 0 0-.57-.622l-1.615-.136a23.588 23.588 0 0 1-10.534-3.54.619.619 0 0 0-.66 0 23.593 23.593 0 0 1-10.534 3.54l-1.615.136a.623.623 0 0 0-.57.622v11.587c0 9.623 7.25 11.997 12.688 15.904zM8.186 8.92l1.045-.087A24.823 24.823 0 0 0 19.992 5.31a24.825 24.825 0 0 0 10.76 3.523l1.046.087v11.012c0 8.44-5.59 10.25-11.807 14.63-5.455-3.809-11.805-5.97-11.805-14.63V8.921z"/><path d="M19.63 31.294c.226.155.51.144.724-.017 5.625-3.916 8.958-5.204 8.958-11.343v-8.198a.624.624 0 0 0-.529-.618 27.27 27.27 0 0 1-8.506-2.767.63.63 0 0 0-.597.014 27.256 27.256 0 0 1-8.48 2.753.624.624 0 0 0-.528.618v8.198c0 6.197 3.65 7.717 8.958 11.36zm-7.716-19.025a28.469 28.469 0 0 0 7.45-2.354v9.163c0 .345.279.625.622.625.343 0 .621-.28.621-.625v-9.17a28.487 28.487 0 0 0 7.463 2.361v7.665c0 5.08-2.366 6.188-7.463 9.655v-5.51a.623.623 0 0 0-.621-.626.623.623 0 0 0-.621.625v5.53c-4.762-3.19-7.45-4.552-7.45-9.674v-7.665z"/></g></svg>