<svg xmlns="http://www.w3.org/2000/svg" xmlns:xlink="http://www.w3.org/1999/xlink" viewBox="0 0 581.59 447.68"><defs><style>.cls-1{fill:url(#linear-gradient);}</style><linearGradient id="linear-gradient" x1="416.21" y1="-0.09" x2="126.1" y2="502.41" gradientUnits="userSpaceOnUse"><stop offset="0" stop-color="#49c4e5"/><stop offset="1" stop-color="#077fc5"/></linearGradient></defs><g id="Layer_2" data-name="Layer 2"><g id="Layer_1-2" data-name="Layer 1"><path class="cls-1" d="M219.09,339.58a32.76,32.76,0,0,1,4.24.33V356c0,4.84-1.07,8.55-3.18,11s-4.79,3.48-8.54,3.48c-3.56,0-6.11-1.15-8-3.63-2.11-2.71-3.13-6.27-3.13-10.87,0-6.37,1.61-10.53,4.93-12.72A24.44,24.44,0,0,1,219.09,339.58ZM447.68,42.79v362.1a42.79,42.79,0,0,1-42.79,42.79H42.79A42.79,42.79,0,0,1,0,404.89V42.79A42.79,42.79,0,0,1,42.79,0h362.1A42.79,42.79,0,0,1,447.68,42.79Zm-189,256.66a55.91,55.91,0,0,0-3.58-20.73,43.44,43.44,0,0,0-9.83-15.08,40.37,40.37,0,0,0-14.73-9.12,52.82,52.82,0,0,0-17.82-3A49.25,49.25,0,0,0,193.9,255a43.71,43.71,0,0,0-14.46,9.5c-8.17,8.17-12.8,19.18-13.79,32.75l-.27,3.78h34.14l.57-2.83c.76-3.81,2.29-6.58,4.69-8.46a12.41,12.41,0,0,1,7.94-2.85c6.11,0,7.63,2.34,8.12,3.1a18.24,18.24,0,0,1,2.49,10v10.93c-1.33-.1-2.55-.2-3.64-.3-2.16-.19-4.32-.29-6.42-.29-9.22,0-17,1-23,3.1A34.12,34.12,0,0,0,175,323.35a36.79,36.79,0,0,0-7.85,16.54,104.18,104.18,0,0,0-2,21.68c0,8.18,1.06,15,3.16,20.3a32.64,32.64,0,0,0,8.44,12.72,29.27,29.27,0,0,0,11.2,6.29,40.7,40.7,0,0,0,11.24,1.66c7.57,0,13.64-1.63,18-4.84a45.54,45.54,0,0,0,6.17-5.54v8.72h35.35Zm71,69.75-3.16-.33c-5.92-.61-8.07-2-8.82-2.73-.57-.56-1.88-2.51-1.88-8.45V196.35H280.46V359.63c0,8.52,1.06,15.66,3.14,21.21A30.7,30.7,0,0,0,293,394.42,33.69,33.69,0,0,0,307.87,401a97.8,97.8,0,0,0,18.27,1.59h3.53Zm72.11-116H384.31V210.5H349v42.71H334.81v29.24H349v81.89a43.46,43.46,0,0,0,2,12.53,34.07,34.07,0,0,0,6.34,11.9,32.79,32.79,0,0,0,11.63,8.72c4.79,2.25,10.75,3.39,17.72,3.39h15.18V367.19h-3.53c-3.05,0-5.66-.09-7.76-.26a8,8,0,0,1-3.74-1.09,4.52,4.52,0,0,1-1.67-2.39,20.75,20.75,0,0,1-.77-6.6v-74.4h17.47Zm105.41,29.43h21.42V253H507.19V235.71c0-5.85,2.43-6.33,4.92-6.33h16.5V195.26H511.83a48.5,48.5,0,0,0-14.74,2.28A36.2,36.2,0,0,0,484,205a36.87,36.87,0,0,0-9.21,13.08c-2.25,5.2-3.39,11.6-3.39,19V253H457.29v29.61h14.09V403h35.81ZM581.59,253H545.78V403h35.81Zm0-57.77H545.78v35.81h35.81Z"/></g></g></svg>