<?xml version="1.0" encoding="UTF-8"?>
<svg width="56px" height="56px" viewBox="0 0 56 56" version="1.1" xmlns="http://www.w3.org/2000/svg" xmlns:xlink="http://www.w3.org/1999/xlink">
    <!-- Generator: Sketch 64 (93537) - https://sketch.com -->
    <title>Point</title>
    <desc>Created with Sketch.</desc>
    <g id="Refer-page" stroke="none" stroke-width="1" fill="none" fill-rule="evenodd">
        <g id="Refer---Desktop-HD" transform="translate(-540.000000, -1392.000000)" fill="#FFFFFF">
            <g id="Topic" transform="translate(540.000000, 900.000000)">
                <g id="Points">
                    <g id="Point" transform="translate(0.000000, 491.000000)">
                        <g id="Bullet">
                            <g id="Point">
                                <g id="Icons/family" transform="translate(0.000000, 0.700000)">
                                    <path d="M21.439425,24.2473328 C21.9177219,24.2473328 22.3754016,24.0212 22.6952141,23.6269031 C22.8378938,23.4509734 22.8109328,23.1926844 22.6350031,23.0500047 C22.4590734,22.907325 22.2008391,22.9342312 22.0581047,23.1102156 C21.8924016,23.3145281 21.6727219,23.4270203 21.439425,23.4270203 C21.2061281,23.4270203 20.9864484,23.3144734 20.8207453,23.1102156 C20.6780656,22.9342859 20.4197219,22.9073797 20.2438469,23.0500047 C20.0679172,23.1926844 20.0409563,23.4509734 20.1836359,23.6269031 C20.5033938,24.0212 20.9611281,24.2473328 21.439425,24.2473328" id="Fill-1"></path>
                                    <path d="M19.5649344,21.9042633 C19.79145,21.9042633 19.9750906,21.7206227 19.9750906,21.494107 L19.9750906,21.0254898 C19.9750906,20.7989742 19.79145,20.6153336 19.5649344,20.6153336 C19.3384187,20.6153336 19.1547781,20.7989742 19.1547781,21.0254898 L19.1547781,21.494107 C19.1547781,21.7206227 19.3384187,21.9042633 19.5649344,21.9042633" id="Fill-3"></path>
                                    <path d="M23.3138828,21.9042633 C23.5403984,21.9042633 23.7240391,21.7206227 23.7240391,21.494107 L23.7240391,21.0254898 C23.7240391,20.7989742 23.5403984,20.6153336 23.3138828,20.6153336 C23.0873672,20.6153336 22.9037266,20.7989742 22.9037266,21.0254898 L22.9037266,21.494107 C22.9037266,21.7206227 23.0873125,21.9042633 23.3138828,21.9042633" id="Fill-5"></path>
                                    <path d="M35.0292687,26.590375 C35.5075656,26.590375 35.9652453,26.3642422 36.2850031,25.9699453 C36.4276828,25.7940156 36.4007766,25.5357266 36.2248469,25.3930469 C36.0489172,25.2503672 35.7906281,25.2772734 35.6479484,25.4532578 C35.4822453,25.6575156 35.2625109,25.7700625 35.0292687,25.7700625 C34.7959172,25.7700625 34.5762922,25.6575156 34.4105891,25.4532578 C34.2679641,25.2773281 34.0095656,25.2503672 33.8336906,25.3930469 C33.6577609,25.5357266 33.6308547,25.7940156 33.7735344,25.9699453 C34.0932375,26.3642969 34.5509719,26.590375 35.0292687,26.590375" id="Fill-7"></path>
                                    <path d="M33.1547781,24.2473328 C33.3813484,24.2473328 33.5649344,24.0636922 33.5649344,23.8371766 L33.5649344,23.3685594 C33.5649344,23.1420438 33.3813484,22.9584031 33.1547781,22.9584031 C32.9282625,22.9584031 32.7446219,23.1420438 32.7446219,23.3685594 L32.7446219,23.8371766 C32.7446219,24.0636922 32.9282625,24.2473328 33.1547781,24.2473328" id="Fill-9"></path>
                                    <path d="M36.9036992,24.2473328 C37.1302695,24.2473328 37.3138555,24.0636922 37.3138555,23.8371766 L37.3138555,23.3685594 C37.3138555,23.1420438 37.1302695,22.9584031 36.9036992,22.9584031 C36.6771836,22.9584031 36.493543,23.1420438 36.493543,23.3685594 L36.493543,23.8371766 C36.493543,24.0636922 36.6771289,24.2473328 36.9036992,24.2473328" id="Fill-11"></path>
                                    <path d="M35.0292688,33.267943 C33.8937375,33.267943 32.8402375,32.6898414 32.2269719,31.7449508 C32.9655813,31.7398648 33.5649563,31.1375914 33.5649563,30.3978336 C33.5649563,30.0062711 33.3899563,29.635107 33.0963391,29.3815211 L33.0963391,28.991982 C33.0963391,28.8268805 33.087425,28.6627086 33.0699797,28.500068 C33.6781594,28.7852086 34.342175,28.9334664 35.0292688,28.9334664 C35.5293859,28.9334664 36.023925,28.8506148 36.4935266,28.6939898 L36.4935266,29.2946227 C36.4935266,29.8488258 36.8259719,30.3398648 37.3405266,30.5456539 L38.2249875,30.8994273 C37.8011047,32.3009586 36.5066516,33.267943 35.0292688,33.267943 L35.0292688,33.267943 Z M28.4686281,34.6737945 C26.8860266,34.6737945 25.5985188,33.386232 25.5985188,31.8036305 L25.5985188,31.3350133 C25.5985188,31.1084977 25.4148781,30.924857 25.1883625,30.924857 L24.7197453,30.924857 C24.4291359,30.924857 24.1926672,30.688443 24.1926672,30.3977789 C24.1926672,30.2107477 24.2916516,30.0414898 24.4574094,29.9450211 C24.4944328,29.9234742 24.5266438,29.8961852 24.5545344,29.8653414 C25.5684406,29.8359742 28.8551047,29.6451695 31.0152063,28.410818 C31.2118625,28.2984352 31.2802219,28.0479117 31.1678391,27.8512008 C31.0554563,27.6544898 30.8048234,27.5861852 30.6082219,27.698568 C28.715925,28.7798492 25.7424563,28.996357 24.6612844,29.0396148 L24.6612844,28.9919273 C24.6612844,28.2290914 24.8922844,27.490318 25.3108625,26.867482 C25.3436203,26.9193805 25.387425,26.964443 25.4413469,26.9977477 C25.5072453,27.0384352 25.5820031,27.0589977 25.6569797,27.0589977 C25.7196516,27.0589977 25.7824875,27.0446148 25.8404016,27.0156852 L28.4686828,25.7015445 L31.0969641,27.0156852 C31.1548781,27.0446148 31.2177141,27.0589977 31.2803859,27.0589977 C31.3554172,27.0589977 31.4301203,27.0384352 31.4960188,26.9977477 C31.5498859,26.964443 31.5936906,26.9193258 31.6264484,26.867482 C32.0450266,27.490318 32.2760266,28.2290914 32.2760266,28.9919273 L32.2760266,29.5905367 C32.2760266,29.7365523 32.3536281,29.8716305 32.4799016,29.9450211 C32.6457141,30.0415445 32.7446984,30.2107477 32.7446984,30.3977789 C32.7446984,30.6883883 32.508175,30.924857 32.2176203,30.924857 L31.7490031,30.924857 C31.5224875,30.924857 31.3388469,31.1084977 31.3388469,31.3350133 L31.3388469,31.742818 C31.3388469,31.7463727 31.3387922,31.7499273 31.3388469,31.753482 L31.3388469,31.8036305 C31.3387922,33.386232 30.0512297,34.6737945 28.4686281,34.6737945 L28.4686281,34.6737945 Z M30.0652297,36.5170914 L30.3268547,36.604318 C29.8753,37.1559508 29.1969563,37.4854977 28.4686281,37.4854977 C27.741175,37.4854977 27.0623938,37.155732 26.610675,36.6042633 L26.8720813,36.5171461 C27.2314875,36.3973805 27.4729875,36.0623102 27.4729875,35.6834898 L27.4729875,35.356568 C27.7899563,35.4455445 28.1236594,35.4941617 28.4686828,35.4941617 C28.8137063,35.4941617 29.1474094,35.4455445 29.4643781,35.356568 L29.4643781,35.6834898 C29.4643234,36.0622555 29.7057688,36.3973258 30.0652297,36.5170914 L30.0652297,36.5170914 Z M17.7255422,27.9569664 L18.7388469,27.6529586 C18.9888234,28.9155836 20.1045031,29.8707008 21.439425,29.8707008 C22.4994328,29.8707008 23.4208078,29.2682086 23.8807297,28.3880133 C23.854425,28.5871852 23.8409172,28.7888727 23.8409172,28.9919273 L23.8409172,29.3814664 C23.5472453,29.6350523 23.3723,30.0061617 23.3723,30.3977242 C22.7881281,30.742857 22.1244953,30.924857 21.4393703,30.924857 C19.6552453,30.924857 18.1116906,29.6693414 17.7255422,27.9569664 L17.7255422,27.9569664 Z M21.439425,26.5903805 C22.1290344,26.5903805 22.7838078,26.4384586 23.3723547,26.1667711 L23.3723547,27.1174039 C23.3723547,28.1832086 22.5052844,29.0503336 21.439425,29.0503336 C20.3753703,29.0503336 19.5095031,28.1860523 19.5066047,27.1226539 C19.5066047,27.1206852 19.5064953,27.1187164 19.5064953,27.1168023 L19.5064953,26.1667164 C20.0950422,26.4385133 20.7497609,26.5903805 21.439425,26.5903805 L21.439425,26.5903805 Z M17.6320266,21.9627242 C17.6320266,21.7362086 17.4483859,21.552568 17.2218703,21.552568 C16.9312609,21.552568 16.6947922,21.3160992 16.6947922,21.0254898 C16.6947922,20.7348805 16.9312063,20.4984117 17.2218703,20.4984117 L18.1591047,20.4984117 C18.3356359,20.4984117 18.4923703,20.385482 18.5482063,20.2179742 L18.924675,19.088568 C19.8672141,19.0672945 22.7891125,18.9347867 24.4344953,18.112068 C24.6371125,18.010732 24.7192531,17.7644195 24.6179172,17.5618023 C24.5166359,17.3591852 24.2703234,17.2770445 24.0676516,17.3783805 C22.3022844,18.2610367 18.6641438,18.2723023 18.6276125,18.2723023 C18.4510813,18.272357 18.2943469,18.3852867 18.2385656,18.5527945 L17.8634641,19.6781539 L17.2218703,19.6781539 C17.2022922,19.6781539 17.1828234,19.6788102 17.1634094,19.6796305 L17.1634094,17.7451695 C17.1634094,16.162568 18.4509719,14.8750055 20.0335734,14.8750055 L23.7825109,14.8750055 C24.2722922,14.8750055 24.6837609,15.2280133 24.7610344,15.7142945 C24.7806672,15.8378883 24.8556438,15.945732 24.9646359,16.0072008 C25.4277297,16.2683883 25.7154406,16.7547242 25.7154406,17.2764977 L25.7154406,19.6795211 C25.6960266,19.6786461 25.6766125,19.6780445 25.6569797,19.6780445 L25.1883625,19.6780445 C24.9618469,19.6780445 24.7782063,19.8616852 24.7782063,20.0882008 C24.7782063,20.3147164 24.9618469,20.498357 25.1883625,20.498357 L25.6569797,20.498357 C25.9475891,20.498357 26.1840578,20.7347711 26.1840578,21.0254352 C26.1840578,21.3160992 25.9476438,21.5525133 25.6569797,21.5525133 C25.4304641,21.5525133 25.2468234,21.7361539 25.2468234,21.9626695 C25.2468234,24.062068 23.5388781,25.770068 21.439425,25.770068 C19.3399719,25.770068 17.6320266,24.0621227 17.6320266,21.9627242 L17.6320266,21.9627242 Z M25.2467688,25.6706461 C24.7874484,26.116568 24.4294094,26.6492789 24.1897141,27.2315914 C24.1913,27.193693 24.1926125,27.1557398 24.1926125,27.1175133 L24.1926125,25.6786852 C24.6006359,25.3755523 24.9572531,25.0073414 25.2467688,24.5888727 L25.2467688,25.6706461 Z M26.0670813,24.5008258 L27.5514641,25.2430445 L26.0670813,25.9852086 L26.0670813,24.5008258 Z M30.870175,24.5008258 L30.870175,25.9852086 L29.3857375,25.2430445 L30.870175,24.5008258 Z M30.2846359,21.494107 C30.2846359,18.8779117 32.4130734,16.7494742 35.0292688,16.7494742 C37.6454641,16.7494742 39.7738469,18.8779117 39.7738469,21.494107 C39.7738469,24.2483336 40.1055266,27.0325289 40.2133156,27.8640523 C39.8457609,28.1045133 38.9046984,28.634107 37.3138391,28.9821383 L37.3138391,28.329443 C37.5317688,28.2059586 37.7403469,28.0650289 37.9364563,27.9065445 C38.7435344,27.2541773 39.3138703,26.3405133 39.5421906,25.3339352 C39.6183703,24.9985367 39.6569797,24.6526383 39.6569797,24.3058648 C39.6569797,21.987607 37.980425,21.6547789 36.3589953,21.3328883 C35.3273703,21.1280836 34.2605266,20.9162789 33.4110656,20.2366773 C33.2879641,20.1381852 33.1193078,20.1189898 32.977175,20.1872945 C32.8350422,20.2555992 32.7446984,20.3992633 32.7446984,20.556982 C32.7446984,20.5678648 32.7267609,21.647068 31.1809094,22.0335445 C30.9611203,22.0885055 30.8275188,22.311193 30.8824797,22.530982 C30.9373859,22.7507711 31.1601281,22.8842633 31.3798625,22.8294117 C32.6737688,22.5059352 33.2016125,21.780068 33.4168625,21.2347242 C34.3063,21.7618023 35.3026516,21.9595523 36.1993078,22.1375602 C37.9323,22.4815992 38.8366672,22.7343102 38.8366672,24.3059195 C38.8366672,24.5917164 38.8048938,24.8765289 38.7422766,25.152482 C38.554425,25.9801227 38.0851516,26.7316383 37.4206984,27.2686695 C36.7371047,27.821232 35.9101203,28.1132633 35.0292688,28.1132633 C34.2261828,28.1132633 33.4619797,27.8669508 32.8133313,27.4015055 C32.5757688,26.7529664 32.1941047,26.159607 31.6904875,25.6707008 L31.6904875,23.8373023 C31.6904875,23.6951148 31.6168781,23.5630992 31.4959641,23.4883961 C31.37505,23.413693 31.2241125,23.406857 31.0969094,23.4704586 L30.2113,23.9132086 C30.2599172,23.0590445 30.2846359,22.2469352 30.2846359,21.494107 L30.2846359,21.494107 Z M40.8584641,31.0693414 L37.6451906,29.7840211 C37.6278,29.7770758 37.6117219,29.7682164 37.595425,29.7596852 C39.8148078,29.2547008 40.8659016,28.4102164 40.91255,28.3719898 C41.0234563,28.2810445 41.0789094,28.1387477 41.0586203,27.9967242 C41.0539719,27.9642398 40.5941047,24.7080914 40.5941047,21.4941617 C40.5941047,18.4256461 38.0976203,15.9292164 35.0291594,15.9292164 C31.9606438,15.9292164 29.4642688,18.4255914 29.4642688,21.4941617 C29.4642688,22.3349273 29.4260969,23.3632711 29.3639719,24.3367633 L28.4685734,24.7844898 L25.8402922,23.4704039 C25.8327453,23.4666305 25.8248156,23.4638961 25.8171047,23.4606148 C25.9421203,23.096232 26.0238781,22.7119977 26.0539016,22.3132711 C26.603675,22.1434117 27.0042609,21.6303883 27.0042609,21.0255445 C27.0042609,20.6181773 26.8222609,20.2527555 26.5356438,20.0054586 L26.5356438,17.2765523 C26.5356438,16.5226852 26.1547453,15.8173258 25.5301047,15.3934977 C25.3184641,14.6070914 24.6119016,14.054693 23.7824016,14.054693 L20.0334641,14.054693 C17.9985422,14.054693 16.3429875,15.7102477 16.3429875,17.7451695 L16.3429875,20.0054039 C16.0563703,20.2526461 15.8743703,20.6181227 15.8743703,21.0254898 C15.8743703,21.6303336 16.2749563,22.143357 16.8247297,22.3132164 C16.9283078,23.690193 17.6379328,24.9000445 18.6860734,25.6786852 L18.6860734,26.812357 L15.2941359,27.8299273 C14.5200891,28.0621852 14.0000109,28.7611461 14.0000109,29.569318 L14.0000109,34.1467164 C14.0000109,34.373232 14.1836516,34.5568727 14.4101672,34.5568727 L14.4686281,34.5568727 L14.4686281,39.3015055 C14.4686281,39.5280211 14.6522688,39.7117164 14.8787844,39.7117164 C15.1053,39.7117164 15.2889406,39.5280211 15.2889406,39.3015055 L15.2889406,34.5568727 L16.8117141,34.5568727 L16.8117141,39.3015055 C16.8117141,39.5280211 16.9953547,39.7117164 17.2218703,39.7117164 C17.4483859,39.7117164 17.6320266,39.5280211 17.6320266,39.3015055 L17.6320266,32.229318 C17.6320266,31.8695836 17.5265344,31.5212242 17.3270344,31.2219742 L16.6259406,30.1703336 C16.5002688,29.9818258 16.2455891,29.9309117 16.0571906,30.0565289 C15.8686828,30.1821461 15.8177688,30.4368258 15.9434406,30.6253336 L16.6445344,31.6770289 C16.7539094,31.8410914 16.8117688,32.0320602 16.8117688,32.229318 L16.8117688,33.7365602 L14.8787844,33.7365602 L14.8203234,33.7365602 L14.8203234,29.569318 C14.8203234,29.1261852 15.1054641,28.7429898 15.5299484,28.6156227 L16.9379875,28.1932164 C17.4283156,30.2462945 19.2904797,31.7451695 21.439425,31.7451695 C22.2114484,31.7451695 22.9612141,31.5548023 23.6326125,31.1925523 C23.8779953,31.5272945 24.2737688,31.7451695 24.7196906,31.7451695 L24.7781516,31.7451695 L24.7781516,31.8036305 C24.7781516,33.1786383 25.5345891,34.3795758 26.6526203,35.014443 L26.6526203,35.6834352 C26.6526203,35.7085914 26.6365422,35.7309039 26.6126438,35.7388883 L25.0826516,36.2489039 C24.3399406,36.4964742 23.8409172,37.188818 23.8409172,37.9717242 L23.8409172,39.3015055 C23.8409172,39.5280211 24.0245578,39.7117164 24.2510734,39.7117164 C24.4775891,39.7117164 24.6612297,39.5280211 24.6612297,39.3015055 L24.6612297,37.9717242 C24.6612297,37.542482 24.9348313,37.1628414 25.3420344,37.0271617 L25.7919484,36.8771539 C26.3871672,37.7648414 27.3882219,38.3058648 28.4685734,38.3058648 C29.5500734,38.3058648 30.5501984,37.7651695 31.1453078,36.8772086 L31.5951125,37.0271617 C32.0023156,37.1628961 32.2759172,37.542482 32.2759172,37.9717242 L32.2759172,39.3015055 C32.2759172,39.5280211 32.4595578,39.7117164 32.6860734,39.7117164 C32.9125891,39.7117164 33.0962297,39.5280211 33.0962297,39.3015055 L33.0962297,37.9717242 C33.0962297,37.188818 32.5972063,36.4964742 31.8544953,36.2489586 L30.3245031,35.738943 C30.3006047,35.7309586 30.2845266,35.7087008 30.2845266,35.6834898 L30.2845266,35.0144977 C31.1216281,34.5391539 31.7552375,33.7464039 32.0210188,32.800693 C32.7961047,33.6117086 33.8786438,34.0883648 35.0291047,34.0883648 C36.8453859,34.0883648 38.4390344,32.9142789 38.9879875,31.2048023 L40.5536359,31.8310289 C40.9338781,31.9831148 41.1795344,32.3460211 41.1795344,32.7554664 L41.1795344,34.6738492 L41.1210734,34.6738492 L39.6567609,34.6738492 L39.6567609,34.1467711 C39.6567609,33.9202555 39.4731203,33.7366148 39.2466047,33.7366148 C39.0200891,33.7366148 38.8364484,33.9202555 38.8364484,34.1467711 L38.8364484,39.3015602 C38.8364484,39.5280758 39.0200891,39.7117164 39.2466047,39.7117164 C39.4731203,39.7117164 39.6567609,39.5280758 39.6567609,39.3015602 L39.6567609,35.4941617 L40.7109172,35.4941617 L40.7109172,39.3015602 C40.7109172,39.5280758 40.8945578,39.7117164 41.1210734,39.7117164 C41.3475891,39.7117164 41.5312297,39.5280758 41.5312297,39.3015602 L41.5312297,35.4941617 L41.5896906,35.4941617 C41.6984641,35.4941617 41.8026984,35.4509586 41.8796984,35.374068 C41.9566438,35.297068 41.9998469,35.1928336 41.9998469,35.0840055 L41.9998469,32.7554664 C41.9998469,32.0085445 41.5519016,31.3467164 40.8584641,31.0693414 L40.8584641,31.0693414 Z" id="Fill-13"></path>
                                    <path d="M29.0873297,32.4825266 C28.9215719,32.6868391 28.7018922,32.7993312 28.4687047,32.7993312 C28.2354078,32.7993312 28.0156734,32.6868391 27.8499703,32.4825266 C27.7072906,32.3065969 27.4489469,32.2796359 27.2730719,32.4223156 C27.0971969,32.5649953 27.0701812,32.8232844 27.2128609,32.9992141 C27.5326734,33.3934562 27.9904078,33.6196437 28.4687047,33.6196437 C28.9470016,33.6196437 29.4046266,33.3935109 29.7244937,32.9992687 C29.8670641,32.8233391 29.8401578,32.5649953 29.6642281,32.4223156 C29.4882984,32.2796359 29.2300641,32.3065422 29.0873297,32.4825266 Z" id="Fill-16"></path>
                                    <path d="M27.4804688,30.8682609 C27.4804688,31.0947766 27.2968281,31.2784172 27.0703125,31.2784172 C26.8437969,31.2784172 26.6601562,31.0947766 26.6601562,30.8682609 C26.6601562,30.6416906 26.8437969,30.4581047 27.0703125,30.4581047 C27.2968281,30.4581047 27.4804688,30.6416906 27.4804688,30.8682609 Z" id="Fill-18"></path>
                                    <path d="M30.2695312,30.8682609 C30.2695312,31.0947766 30.0859453,31.2784172 29.859375,31.2784172 C29.6328047,31.2784172 29.4492188,31.0947766 29.4492188,30.8682609 C29.4492188,30.6416906 29.6328047,30.4581047 29.859375,30.4581047 C30.0859453,30.4581047 30.2695312,30.6416906 30.2695312,30.8682609 Z" id="Fill-20"></path>
                                </g>
                            </g>
                        </g>
                    </g>
                </g>
            </g>
        </g>
    </g>
</svg>