<svg width="14" height="24" xmlns="http://www.w3.org/2000/svg"><defs><linearGradient x1="50%" y1="0%" x2="50%" y2="100%" id="a"><stop stop-color="#0C9394" offset="0%"/><stop stop-color="#055A5B" offset="100%"/></linearGradient></defs><path d="M196 13h-8c-1.794 0-3 1.222-3 3v18c0 1.778 1.206 3 3 3h8c1.794 0 3-1.222 3-3V16c0-1.778-1.206-3-3-3zm-3.978 22.563a1.507 1.507 0 1 0 0-3.015 1.507 1.507 0 0 0 0 3.014zM197 31h-10V16h10v15z" transform="translate(-185 -13)" fill="url(#a)" fill-rule="evenodd"/></svg>