<svg width="160" height="120" xmlns="http://www.w3.org/2000/svg"><g fill="none" fill-rule="evenodd"><path d="M0 54h13.333C50.154 54 80 83.548 80 120H66.667C29.847 120 0 90.452 0 54z" fill="#32B67A"/><path d="M93.333 120H80c0-36.452 29.847-66 66.667-66H160c0 36.453-29.847 66-66.667 66z" fill="#126942" fill-rule="nonzero"/><g><path d="M80 46H66.667C40.893 46 20 25.405 20 0h13.333C59.107 0 80 20.594 80 46z" fill="#32B67A"/><path d="M140 0h-13.333C100.893 0 80 20.594 80 46h13.333C119.107 46 140 25.405 140 0z" fill="#126942" fill-rule="nonzero"/></g></g></svg>