<svg width="162" height="20" xmlns="http://www.w3.org/2000/svg"><g fill="#FFF" fill-rule="evenodd"><path d="M19.357 6.388C19.993 3.208 20 .692 20 .586A.585.585 0 0 0 19.414 0c-.106 0-2.622.007-5.802.643a28.296 28.296 0 0 0-3.21.833l-.02.006c-.651.213-1.273.445-1.862.698a17.846 17.846 0 0 0-2.073 1.048 13.214 13.214 0 0 0-2.612 1.999 7.684 7.684 0 0 0-2.266 5.469c0 1.87.659 3.638 1.867 5.04L.172 19a.586.586 0 1 0 .828.828l3.264-3.264a7.677 7.677 0 0 0 5.04 1.867 7.685 7.685 0 0 0 5.47-2.266 13.215 13.215 0 0 0 2.031-2.667c.367-.624.706-1.298 1.015-2.018a22.355 22.355 0 0 0 .704-1.88 28.32 28.32 0 0 0 .833-3.212zm-5.538-4.591a33.439 33.439 0 0 1 4.992-.608c-.04.924-.17 2.815-.608 4.992a27.41 27.41 0 0 1-.672 2.665h-5.549l3.409-3.408a.586.586 0 0 0-.83-.829l-3.407 3.409V2.469a27.41 27.41 0 0 1 2.665-.672zm2.126 10.84H8.19l2.62-2.619h6.324a18.358 18.358 0 0 1-1.19 2.62zM9.982 2.866V9.19l-2.62 2.62V4.055a18.36 18.36 0 0 1 2.62-1.19zm-7.242 7.83a6.52 6.52 0 0 1 1.922-4.64c.467-.468.982-.89 1.527-1.27v8.195l-1.923 1.923a6.513 6.513 0 0 1-1.526-4.208zm11.204 4.64a6.52 6.52 0 0 1-4.641 1.923 6.513 6.513 0 0 1-4.208-1.526l1.923-1.923h8.195a11.21 11.21 0 0 1-1.27 1.527z"/><path d="M41.232 10.072c.96.24 1.744.72 2.352 1.44.608.72.912 1.656.912 2.808 0 1.568-.484 2.74-1.452 3.516-.968.776-2.172 1.164-3.612 1.164h-6.456a.7.7 0 0 1-.72-.72V2.92a.7.7 0 0 1 .72-.72h6.36c1.344 0 2.396.368 3.156 1.104.76.736 1.14 1.744 1.14 3.024 0 .848-.208 1.608-.624 2.28-.416.672-1.008 1.16-1.776 1.464zm.864-3.624c0-.88-.26-1.572-.78-2.076s-1.244-.756-2.172-.756h-5.352v6h5.352c.864-.016 1.572-.296 2.124-.84s.828-1.32.828-2.328zM39.36 17.584c1.072 0 1.94-.272 2.604-.816.664-.544.996-1.36.996-2.448 0-1.12-.34-1.944-1.02-2.472-.68-.528-1.556-.792-2.628-.792h-5.52v6.528h5.568zm18.048 0a.68.68 0 0 1 .516.216.71.71 0 0 1 .204.504.66.66 0 0 1-.204.504.723.723 0 0 1-.516.192H48.6a.7.7 0 0 1-.72-.72V2.92a.7.7 0 0 1 .72-.72h8.808a.7.7 0 0 1 .72.72.66.66 0 0 1-.204.504.723.723 0 0 1-.516.192h-8.016V9.64h6.936a.7.7 0 0 1 .72.72.66.66 0 0 1-.204.504.723.723 0 0 1-.516.192h-6.936v6.528h8.016zm16.632.456c.032.128.048.224.048.288a.642.642 0 0 1-.216.504.735.735 0 0 1-.504.192c-.16 0-.3-.044-.42-.132a.85.85 0 0 1-.276-.348l-1.8-4.392h-7.8l-1.776 4.392c-.128.32-.344.48-.648.48-.224 0-.392-.056-.504-.168a.703.703 0 0 1-.192-.456v-.072c0-.096.008-.168.024-.216l6.336-15.504c.128-.32.368-.48.72-.48.16 0 .3.044.42.132a.85.85 0 0 1 .276.348L74.04 18.04zm-10.416-5.304h6.672l-3.36-8.208-3.312 8.208zM89.328 2.2c.208 0 .372.064.492.192s.18.288.18.48v15.36c0 .24-.072.428-.216.564a.74.74 0 0 1-.528.204.865.865 0 0 1-.576-.24L78.384 4.888v13.464a.605.605 0 0 1-.204.456.663.663 0 0 1-.468.192.651.651 0 0 1-.48-.192.623.623 0 0 1-.192-.456V2.92c0-.224.068-.4.204-.528a.692.692 0 0 1 .492-.192c.256 0 .448.088.576.264l10.344 13.944V2.872c0-.192.064-.352.192-.48a.651.651 0 0 1 .48-.192zm9.72 17.04c-1.152 0-2.172-.192-3.06-.576-.888-.384-1.748-.984-2.58-1.8-.192-.16-.288-.352-.288-.576 0-.192.076-.368.228-.528a.696.696 0 0 1 .516-.24c.192 0 .368.08.528.24 1.248 1.376 2.808 2.064 4.68 2.064 1.152 0 2.108-.272 2.868-.816.76-.544 1.14-1.256 1.14-2.136 0-.688-.188-1.26-.564-1.716-.376-.456-.868-.828-1.476-1.116-.608-.288-1.384-.584-2.328-.888-1.024-.304-1.884-.64-2.58-1.008a4.73 4.73 0 0 1-1.692-1.476c-.432-.616-.648-1.396-.648-2.34 0-.848.228-1.6.684-2.256.456-.656 1.096-1.172 1.92-1.548.824-.376 1.772-.564 2.844-.564.976 0 1.892.164 2.748.492.856.328 1.54.796 2.052 1.404.24.272.36.504.36.696 0 .176-.08.34-.24.492a.752.752 0 0 1-.528.228.555.555 0 0 1-.408-.168c-.432-.512-1.008-.928-1.728-1.248a5.496 5.496 0 0 0-2.256-.48c-1.168 0-2.12.26-2.856.78-.736.52-1.104 1.228-1.104 2.124 0 .928.352 1.64 1.056 2.136.704.496 1.712.952 3.024 1.368 1.136.336 2.064.68 2.784 1.032.72.352 1.308.852 1.764 1.5.456.648.684 1.5.684 2.556 0 .816-.236 1.556-.708 2.22-.472.664-1.128 1.188-1.968 1.572-.84.384-1.796.576-2.868.576zM118.704 2.2c.208 0 .38.064.516.192a.66.66 0 0 1 .204.504.622.622 0 0 1-.204.492.751.751 0 0 1-.516.18h-4.968V18.28a.68.68 0 0 1-.216.516.74.74 0 0 1-.528.204.73.73 0 0 1-.54-.204.7.7 0 0 1-.204-.516V3.568h-4.968a.723.723 0 0 1-.516-.192.66.66 0 0 1-.204-.504c0-.192.068-.352.204-.48a.723.723 0 0 1 .516-.192h11.424zm15.12 15.84c.032.128.048.224.048.288a.642.642 0 0 1-.216.504.735.735 0 0 1-.504.192c-.16 0-.3-.044-.42-.132a.85.85 0 0 1-.276-.348l-1.8-4.392h-7.8l-1.776 4.392c-.128.32-.344.48-.648.48-.224 0-.392-.056-.504-.168a.703.703 0 0 1-.192-.456v-.072c0-.096.008-.168.024-.216l6.336-15.504c.128-.32.368-.48.72-.48.16 0 .3.044.42.132a.85.85 0 0 1 .276.348l6.312 15.432zm-10.416-5.304h6.672l-3.36-8.208-3.312 8.208zm22.704 4.848c.208 0 .38.064.516.192a.66.66 0 0 1 .204.504.7.7 0 0 1-.72.72h-8.568a.7.7 0 0 1-.72-.72V2.92a.68.68 0 0 1 .216-.516.772.772 0 0 1 .552-.204.74.74 0 0 1 .528.204.68.68 0 0 1 .216.516v14.664h7.776zm16.128.24c.112.16.168.328.168.504 0 .24-.084.428-.252.564a.874.874 0 0 1-.564.204.659.659 0 0 1-.528-.264l-6.696-8.424-3.264 3.072v4.776a.79.79 0 0 1-.24.54.74.74 0 0 1-.528.204.73.73 0 0 1-.54-.204.73.73 0 0 1-.204-.54V2.944c0-.224.072-.404.216-.54a.772.772 0 0 1 .552-.204.73.73 0 0 1 .54.204.73.73 0 0 1 .204.54v8.712l9.696-9.168c.144-.16.32-.24.528-.24.192 0 .356.072.492.216a.684.684 0 0 1 .204.48.69.69 0 0 1-.216.504l-6.288 5.88 6.72 8.496z" fill-rule="nonzero"/></g></svg>