<svg id="Layer_1" xmlns="http://www.w3.org/2000/svg" viewBox="0 0 202 260" enable-background="new 0 0 202 260"><style>.st0{fill:#195b3d}.st0,.st1,.st6,.st7{fill-rule:evenodd;clip-rule:evenodd}.st1{fill:#e4e9ff}.st6{fill:#94d9ba}.st7{fill:#2da76f}</style><path class="st0" d="M38 210h.2c.1 7.8.1 15.5 0 23.2-.1 5.6-1.3 20.2-1.6 26.8H52c5.4-27.7 10.5-56.1 12.3-84.2 0-.3 0-.7.1-1l.2-.1.4-15.9.4-.8-29.3 6.7c.1 4 .2 5.7.3 11.4.3 11.3 1 22.6 1.6 33.9zm32-25l.2 25h.2c.1 7.8.1 15.5 0 23.2-.1 5.6-1.3 20.2-1.6 26.8h15.6c2.4-8.2 17.2-60.6 14.4-94.4.2-2.3.3-5.5-.8-6.4-.2-1.3-.5-2.5-.7-3.8-2.9-12.1-5.7-12.5-8.2-7.9-6.1-9.9-3.6 2.3-3.1 8.5-.3 1-.5 2-.8 3-.4-.3-.8-.9-1.1-1.1-.1-.1-.2-.2-.3-.2-.1 0-.2-.1-.3-.1-1.4-.6-2.9-1.2-4.4-1.7.1.1-1.8-.4-1.9-.5-1.1-.2-2.2-.3-3.3-.4-1.4-.1-2.8-.2-4.2-.2.1 7.1.2 14.2.4 21.3-.2 2.9-.2 5.9-.1 8.9z"/><path id="Fill-1" class="st1" d="M94.6 98.1l9.3 13.1L116 86.5c.4-.9.9-1.7 1.4-2.4 2-2.8 4.8-4.9 8-6-3.7 2.3-6.5 6-7.7 10.4l6.3 4-1.6 15-1.4 12.8-.2.5-7 10.9c-3.6 5.5-11.8 5.1-14.8-.8L76.4 87l8.3 16.2 9.9-5.1z"/><path id="Fill-3" d="M81.7 83.4l5.1 9.2 4.9 6.9-9.9 5-8.3-16.2c-.1-.2-.2-.4-.2-.5-1-1.9-.3-4.2 1.5-5.3l1.1-.7c2.1-1.2 4.7-.5 5.8 1.6" fill-rule="evenodd" clip-rule="evenodd" fill="#ffacea"/><defs><filter id="Adobe_OpacityMaskFilter" filterUnits="userSpaceOnUse" x=".2" y="15.2" width="54" height="80.8"><feColorMatrix values="1 0 0 0 0 0 1 0 0 0 0 0 1 0 0 0 0 0 1 0"/></filter></defs><mask maskUnits="userSpaceOnUse" x=".2" y="15.2" width="54" height="80.8" id="mask-2_1_"><g filter="url(#Adobe_OpacityMaskFilter)"><path id="path-1_1_" fill-rule="evenodd" clip-rule="evenodd" fill="#fff" d="M.2 15.2h54V96H.2z"/></g></mask><path id="Fill-5" d="M54.2 79.6L18.1 55.8c-1.9-1.3-2.7-3.7-1.8-5.8l12.3-29.8c.5-1.3.3-2.8-.7-3.8-1.7-1.8-4.6-1.5-5.9.6L1.3 54C-.6 57.3.1 61.5 2.9 64l35.4 32 15.9-16.4z" mask="url(#mask-2_1_)" fill-rule="evenodd" clip-rule="evenodd" fill="#94d9ba"/><path id="Fill-8" class="st6" d="M58 11.9v19.4c.8.2 1.5.5 2.3.8 1.1.5 2.2 1.1 3.3 1.9l5.4-.9v-7.3c2.8 0 5-2.2 5-5V10.2l-16 1.7z"/><path id="Fill-10" class="st0" d="M60 14v11.1c-3.9 0-7-3.1-7-7v-3.2c0-4.4 3.5-7.9 7.9-7.9h16.3c0 3.9-3.1 7-7 7H60z"/><path id="Fill-12" class="st0" d="M51 14H39.2c-6.6 0-12-5.4-12-12h12c6.6 0 12 5.4 12 12"/><path id="Fill-14" class="st7" d="M51.8 41.1c.8-1.7 1.9-3.3 3.1-4.6 1.6-1.7.9-4.4-1.3-5L41 27.9c-2.1-.6-3.9-1.7-5.1-3.2l-7.9-13-4-6.6c-.7-1-2-1.6-3.4-1.5h-.1c-1.5.2-2.4 1.3-2 2.5l2.6 8.4 5.1 16.3c.7 2.2 2.7 4.2 5.4 5.2 0 0 8.5 3.5 16.2 6.7 1.5.7 3.2 0 4-1.6 0 .1 0 0 0 0"/><path id="Fill-16" class="st6" d="M27.9 11.7l-6.8 2.9-2.6-8.4c-.4-1.2.5-2.3 2-2.5h.1c1.3-.1 2.7.5 3.4 1.5l3.9 6.5z"/><path id="Fill-18" class="st7" d="M74.6 36.5c-1.5-1.7-.9-4.4 1.3-5l12.6-3.6c2.1-.6 3.9-1.7 5.1-3.2l7.9-13 4-6.6c.7-1 2-1.6 3.4-1.5h.1c1.5.2 2.4 1.3 2 2.5l-2.6 8.4-5.1 16.3c-.7 2.2-2.7 4.2-5.4 5.2 0 0-8.5 3.5-16.2 6.7-1.5.7-3.3-.1-4-1.6-.8-1.7-1.9-3.2-3.1-4.6z"/><path id="Fill-20" class="st6" d="M101.5 11.7l6.8 2.9 2.6-8.4c.4-1.2-.5-2.3-2-2.5h-.1c-1.3-.1-2.7.5-3.4 1.5l-3.9 6.5z"/><path id="Fill-22" class="st1" d="M85 83H45V51.2c0-10 7.2-18.7 17-20.1 12.4-1.8 23 7.7 23 19.7V83z"/><path id="Fill-36" class="st6" d="M72.8 55.3L74 73.9l-13.9.9-.9-13.9z"/><path id="Fill-42" class="st1" d="M40 102v55.3l.4 7.3 36.4-33.4-1.3-47.6-34.6 10.5c-.6 2.3-.9 4.7-.9 7.2"/><path id="Fill-44" class="st1" d="M91.8 89.2c-.5-4.3-2.2-8.4-5.2-11.5-1.6-1.7-3.4-3-5.4-3.7h-.1c-3.9-1.3-8.8-2.2-14.1-2.5v-.2c-14.1 0-26 9.8-29.2 22.9-.6 2.3-.9 4.7-.9 7.2l-1.3 63.8 64-4.1-7.8-71.9z"/><path id="Fill-48" class="st7" d="M120.5 71.3L116 90.9l-25.9 4.5c-8 .7-14.6-6-13.8-14l.2-2c.8-6.9 7-11.9 13.9-11.2l30.1 3.1z"/><path id="Fill-50" class="st7" d="M26.7 60.7l-8.9 18L35 98.5c5.7 5.6 15.2 4.6 19.5-2.2l1.1-1.7c3.8-5.9 2.1-13.7-3.7-17.5L26.7 60.7z"/><path id="Fill-52" class="st0" d="M53.7 171h39.5l-.6-8.8-53.9 4.4z"/><path id="Fill-54" class="st7" d="M100 165l-68 5v-69c0-16.5 13.5-30 30.1-30h7.8c16.6 0 30.1 13.5 30.1 30.1V165z"/><path id="Fill-56" class="st6" d="M51.5 98.2c-3 0-5.5-2.5-5.5-5.5V70.5c0-2.5 2-4.5 4.5-4.5h1.9c2.5 0 4.5 2 4.5 4.5v22.1c.1 3.1-2.4 5.6-5.4 5.6"/><path id="Fill-58" class="st6" d="M83.5 97.2c-3 0-5.5-2.5-5.5-5.5V69.5c0-2.5 2-4.5 4.5-4.5h1.9c2.5 0 4.5 2 4.5 4.5v22.1c.1 3.1-2.4 5.6-5.4 5.6"/><path id="Fill-60" class="st6" d="M77.3 47.6c1.6 6.9-2.7 13.8-9.7 15.4-2.8.6-5.5.3-7.9-.7-.6-.3-1.3-.6-1.8-1-2.8-1.7-4.9-4.5-5.7-8-1.2-5 .8-10 4.6-13 .6-.5 1.3-.9 2-1.3.9-.5 2-.9 3-1.1.3-.1.5-.1.8-.2 2.2-.4 4.5-.1 6.5.6 4 1.5 7.2 4.9 8.2 9.3"/><path id="Fill-62" class="st0" d="M69.5 29c-1.6.3-3 1.3-3.8 2.7-.3.7-.5 1.4-.5 2-.1 1-.8 1.9-1.8 2.3-1.8.7-3.6 1.3-5.3 2.2-.2.1-.3.1-.5.2-.7.4-1.4.8-2 1.3-3.8 3-5.8 8-4.6 13 .8 3.4 2.9 6.2 5.7 8 .1.1.2.1.2.1l5.9-11.4.6.8s0 .1.1.1l.1.2c.4.5 1.1.7 1.7.5.9-.2 1.4-1.2 1.1-2.1l-1.6-4.3-.1-.3c-.3-1.4.6-2.8 2-3.1 1.5-.4 3.4-.5 4.7-1.5l.1-.1c4.8-2.2 4.1-11.6-2-10.6"/><path id="Fill-64" d="M71.5 39.7s-.1 0-.1.1l.1-.1" fill-rule="evenodd" clip-rule="evenodd" fill="#6f2677"/><path id="Fill-66" class="st6" d="M64.1 50.3c1.1 2.3-.5 4.8-3 4.8-1.2 0-2.3-.7-2.9-1.8-1.1-2.3.5-4.8 3-4.8 1.3 0 2.4.7 2.9 1.8"/><path id="Fill-68" class="st0" d="M76.8 47.4L75 49.9c-.9 1.3-2.3 2.2-3.8 2.5-.9.3-1.9.2-2.7-.2-.8-.4-1.5-1.1-1.8-2l-2.2-6.9-3.6 3 2.5 7.6 3.9 11.9c1.6 4.8 6.7 7.6 11.8 6.6l6.1-1.2-2.4-7.6-2.8-8.7-2.4-7.6c-.3-.1-.6-.1-.8.1"/><path id="Fill-74" class="st7" d="M154.3 65.6l.2 1c-.4-1.5-.2-3.1.1-4.7.1.8.1 1.7.1 2.5 0 1.9-.3 3.8-.7 5.6v-4.8c.1.2.2.3.3.4"/><path id="Fill-76" class="st7" d="M143 68l-.2 10.3-8.5-.3h-1.4c-3.6-.1-7.1.9-10 2.7-3.1 1.1-5.9 3.1-8 6-1-1.5-1.8-3.2-2-5.3-.7-5.2 1.9-10.5 7.1-12 4.2-1.3 8.8-1.7 12.6-3.9 1.2-.6 2.2-1.5 3.1-2.5 1.4 2.7 4.1 4.6 7.3 5"/><path id="Fill-78" class="st7" d="M155 57.2c0-.1-.1-.2-.2-.3-.7-2.3-2.3-4.3-4.4-5.4l-3.9-2.7c-.3.1-.6.1-1 .1-.3-.4-.6-.8-1-1.1-.4-.3-.8-.5-1.4-.7 3.5-.8 7.2.2 9.9 2.9 3.2 3.2 4 8 2.2 12 .4-1.6.5-3.2-.2-4.8"/><path id="Fill-80" class="st6" d="M134.9 57.3c2.8 2.4 8.3 3.4 11.8 4.6.5.2 1.1.4 1.6.6l-5.2 3.3-.1 3.2c-3.3-.3-6.1-2.3-7.6-5.1-.7-1.3-1.1-2.8-1.1-4.4 0-.8.1-1.7.3-2.4.1.1.2.2.3.2"/><path id="Fill-82" class="st7" d="M150.2 51.2c2.9 1.6 5 4.3 6 7.5-2-3.6-6.5-4.9-9.8-7.4-1-.8-1.9-2.3-2.8-3.6.5 0 .9-.1 1.3-.2l5.3 3.7z"/><path id="Fill-84" class="st6" d="M142 79.1V68.7l.1-3 5.1-3.3c2.7 1.1 5.2 2.6 6.8 4.9l1 4.7v7.5l-13-.4z"/><path id="Fill-86" class="st7" d="M155 68.6l-.2-1c-.1-.1-.2-.3-.3-.4-1.6-2.3-4.1-3.7-6.7-4.8-.5-.2-1-.4-1.6-.6-3.3-1.2-8.6-2.2-11.2-4.5l-.3-.3c-1.6-1.5-2.8-3.6-2.4-5.7.4-2.1 2.3-3.8 4.4-4.2 1.7-.3 4.5-.5 6.5.1.5.2 1 .4 1.4.7.3.3.7.6 1 1.1.7.9 1.3 2 2.1 2.6 2.4 1.8 5.7 2.8 7.1 5.3.1.1.1.2.2.3.7 1.5.6 3.2.4 4.9-.1.6-.2 1.2-.3 1.7-.3 1.7-.5 3.3-.1 4.8"/><path id="Fill-92" class="st1" d="M182.8 122.2c.4-.7.3-1.7-.4-2.3l-12.3-10.7 17.6-4.1L176 87c-.6-1-1.4-1.9-2.2-2.7l25.6 27 .1.1c2.8 3.3 2.9 8.2.3 11.6l-2.5 3h-16.8l2.3-3.8z"/><path id="Fill-95" class="st6" d="M171.1 141.7l9.1-15.7H197l-16.9 19.8-3.4 4.6c-.8 1.1-2 1.8-3.3 2.1-2 .4-3.2 1.2-4.4-.1v-7.1l2.1-3.6z"/><path id="Fill-97" class="st1" d="M188.5 105.2l-17.6 4.1-1 .2v16.2l-51.9-4-.5 1.3 1.4-12.8 1.6-15-7.5-2.6c1.2-4.4 5.3-9.5 9-11.8 2.9-1.8 6.4-2.8 10-2.7h1.5c1.4 6 6.7 10.4 13.1 10.4 6.1 0 11.2-4.1 12.9-9.6l2.2.1h.7c4.7.1 9.1 2.1 12.3 5.5.8.8 1.5 1.8 2.2 2.7l11.6 18z"/><path id="Fill-99" class="st6" d="M147.2 88.2c-6.4 0-11.7-4.5-13.1-10.4l8.5.3 11.8.4 5.6.2c-1.6 5.5-6.8 9.5-12.8 9.5"/><path id="Fill-101" d="M113.1 206l-3.8-41.4c-1-10.7.6-21.6 4.6-31.6l3.9-9.7.2-.5.5-1.3 51.9 4h.3l.4-.2-1 19.9 1 7.1V206l-1.3 1-20.4-1-11.7 1-23-1h-1.6z" fill-rule="evenodd" clip-rule="evenodd" fill="#1f734d"/><path class="st6" d="M138.3 260c-.1-3.7-.2-7-.3-8.7-.2-5.1-.3-10.3-.3-15.4-.1-6.8-.1-16.5 0-23.3 0-2.2 0-4.4.1-6.6l-23-.3c2.2 20.9 8.3 38.8 12.1 54.3h11.4zm12.2-46.9c.7 4.9 1.5 9.7 2.4 14.6 1.9 10.8 4.2 21.6 6.3 32.3h11.1c-.1-3.6-.2-6.9-.3-8.6-.2-5.1-.2-10.2-.3-15.3-.1-6.7-.1-16.4 0-23.1 0-2 0-4.1.1-6.1l-20.2-.3c.2 1.3.4 2.5.5 3.8.1 1 .2 1.8.4 2.7z"/></svg>