<svg viewBox="0 0 40 40" xmlns="http://www.w3.org/2000/svg"><g fill="#32B67A" fill-rule="evenodd"><path d="M18.654 25.944a.648.648 0 1 0-.916-.918.648.648 0 0 0 .916.918M28.589 10.495c0 3.229-2.63 5.86-5.86 5.86-3.229 0-5.859-2.631-5.859-5.86 0-3.23 2.63-5.86 5.86-5.86 3.229 0 5.859 2.63 5.859 5.86m-13.02 0c0 3.945 3.209 7.161 7.16 7.161a7.166 7.166 0 0 0 7.162-7.161 7.166 7.166 0 0 0-7.161-7.162 7.166 7.166 0 0 0-7.162 7.162"/><path d="M7.54 26.01a.65.65 0 0 1 .808-.092c.11.072-.208-.228 5.638 5.612.26.26.247.677.007.918l-2.69 2.65-6.393-6.446 2.63-2.643zm8.158-4.324c.996 0 1.96.202 2.865.6.084.038.17.051.26.051h7.396c.703 0 1.302.573 1.302 1.302 0 .717-.586 1.302-1.302 1.302h-5.312a.653.653 0 0 0-.651.652c0 .358.293.65.65.65h5.313a2.603 2.603 0 0 0 2.604-2.604c0-.117-.006-.227-.026-.338a3792.84 3792.84 0 0 1 4.265-4.382 1.307 1.307 0 0 1 1.835-.156 1.3 1.3 0 0 1 .15 1.836l-5.84 6.98a4.529 4.529 0 0 1-3.157 1.269h-8.646c-.846 0-1.654.325-2.26.911l-.553.534-5.097-5.098c1.191-2.233 3.424-3.509 6.204-3.509zm-4.863 14.785a.654.654 0 0 0 .918.007l3.157-3.112a1.97 1.97 0 0 0 .463-2.018l.677-.658a1.944 1.944 0 0 1 1.354-.547h8.652a5.844 5.844 0 0 0 4.089-1.66c.045-.045-.345.417 5.905-7.05a2.61 2.61 0 0 0-.313-3.673 2.608 2.608 0 0 0-3.652.293L28.244 22a2.605 2.605 0 0 0-2.025-.97H18.96a8.454 8.454 0 0 0-3.262-.651c-3.131 0-5.872 1.445-7.337 4.16a1.942 1.942 0 0 0-1.738.54l-3.1 3.112a.648.648 0 0 0 0 .918l7.312 7.363z"/></g></svg>