<svg id="Layer_1" xmlns="http://www.w3.org/2000/svg" viewBox="0 0 40 40"><style>.st0{fill:#3eba81}</style><path class="st0" d="M20 35.5c-8.5 0-15.5-7-15.5-15.5S11.5 4.5 20 4.5s15.5 7 15.5 15.5-7 15.5-15.5 15.5zm0-30C12 5.5 5.5 12 5.5 20S12 34.5 20 34.5 34.5 28 34.5 20 28 5.5 20 5.5z"/><path class="st0" d="M14.5 23.9c-.4-.2-.7-.4-.9-.7-.1-.1-.1-.3-.1-.4 0-.2.1-.3.2-.5.1-.1.3-.2.4-.2.2 0 .4.1.6.3.1.1.3.2.4.3.1.1.3.1.5.1s.4-.1.6-.2.4-.3.5-.4c.1-.2.2-.4.2-.6V17c0-.2.1-.3.2-.5.1-.1.3-.2.5-.2s.4.1.5.2c.1.1.2.3.2.5v4.6c0 .4-.1.9-.4 1.2-.2.4-.6.7-1 .9-.4.2-.8.3-1.3.3-.4.1-.8 0-1.1-.1zm10.8-7.1c.5.3.9.8 1.1 1.4s.4 1.2.4 2-.1 1.4-.4 2-.6 1-1.1 1.4c-.5.3-1.1.5-1.8.5h-2.6c-.2 0-.4-.1-.5-.2-.1-.1-.2-.3-.2-.5V17c0-.2.1-.3.2-.5.1-.1.3-.2.5-.2h2.6c.7 0 1.3.2 1.8.5zm-.4 5.2c.3-.5.5-1.1.5-1.9s-.2-1.4-.5-1.9-.8-.7-1.5-.7h-1.8v5.2h1.8c.6 0 1.1-.2 1.5-.7z"/></svg>