<svg id="Layer_1" xmlns="http://www.w3.org/2000/svg" viewBox="0 0 198 296"><style>.st0{fill:#94d9ba}.st0,.st2,.st4{fill-rule:evenodd;clip-rule:evenodd}.st2{fill:#d8f1e5}.st4{fill:#2da76f}</style><path id="Fill-1" class="st0" d="M83 293.2c0 1.6-1.3 2.8-2.8 2.8H80l-20.4-1.4-.5-7.9-.1-1.9-8.2-141.5h-6.5L31.1 284.7l-.1 1.9-.5 7.9-20.4 1.5h-.2c-1.5 0-2.8-1.2-2.8-2.8 0-1.2.8-2.3 1.9-2.7l10.7-3.4v-.5l-.1-1.9-3.8-136.9c-.2-3.1.3-6.1 1.3-9L27.2 111h40.5L78 138.8c1.1 2.9 1.5 5.9 1.3 9l-8.8 136.9-.1 1.9v.5l10.7 3.4c1.1.4 1.9 1.5 1.9 2.7"/><path id="Fill-7" fill-rule="evenodd" clip-rule="evenodd" fill="#1f734d" d="M15 213h64.5l1.5-78.2L63.8 103l-34.5.5-14.1 33.2z"/><path id="Fill-9" class="st2" d="M26.7 108h42l2.2-27.8c1-12.5-9.2-23.1-21.6-22.2L29 59.7c-7 .5-11.6 7.5-9.5 14.2l7.2 34.1z"/><path id="Fill-17" d="M176 294.2v-.5.5z" fill-rule="evenodd" clip-rule="evenodd" fill="#ffacea"/><path id="Fill-29" class="st4" d="M173 238.4c-.1-9.6.4-59.8.4-59.8.1-3.7.1-7.5.2-11.2.2-8.8.3-17.6.5-26.4-1.7 0-3.4.1-5.2.3-1.4.1-2.8.3-4.1.5-.2 0-2.5.6-2.4.6-1.8.6-3.6 1.3-5.4 2.1h-24.5c0-1.2 0-2.3.1-3.5-1.7 0-3.5.1-5.2.3-1.4.1-2.8.3-4.1.5-.2 0-2.5.6-2.4.6-1.8.6-3.6 1.3-5.4 2.1-.2.1-.3.1-.4.2-.1.1-.2.2-.4.3-.7.5-1.5.9-2.2 1.4-4.5 3.1-8.7 6.5-12.9 9.8.1.4.1.8.2 1.2.2 1.7-.1 3.9-.8 5.9 0 .5 0 .9.1 1.4.1.8.1 1.6.2 2.4.2 2.9.4 5.9.7 8.8.2 2.7.5 5.3.8 8 .1.5.1 1 .2 1.5.3 2.3.5 4.6.8 6.9 0 .3.1.5.1.8.5 4.2 1.1 8.5 1.7 12.7.2 1.2.4 2.5.6 3.7 1.1 7 2.2 13.9 3.4 20.9 1.8 10 5.3 32.6 7.2 42.6h18.8c-.2-7.3-2-27.3-2-34.6-.1-9.6.4-59.8.4-59.8.1-2.9.1-5.9.2-8.8h8.9c.1 2 .3 4.1.5 6.1.2 2.7.5 5.3.8 8 .1.5.1 1 .2 1.5.3 2.3.5 4.6.8 6.9 0 .3.1.5.1.8.5 4.2 1.1 8.5 1.7 12.7.2 1.2.4 2.5.6 3.7 1.1 7 2.2 13.9 3.4 20.9 1.8 10 5.3 32.6 7.2 42.6h18.8c-.4-7.3-2.2-27.3-2.2-34.6"/><path id="Fill-33" class="st0" d="M149 28v22h-17V32.4z"/><path id="Fill-35" class="st2" d="M97.9 161h76.9L173 98.5h25c-3.3-11.8-9.1-22.9-17.1-32.4-5.4-6.4-11.6-11.8-18.8-14.8-16.6-7-49.9-8.2-64.3 4.1-11.1 9.4-15.2 26-20.8 39.8h22.4L97.9 161z"/><path id="Fill-38" class="st0" d="M172.6 95l.4 5 .8 10.2-14.1 57.4c-1.6 2.8-.5 6.4 2.5 7.8 2.5 1.2 5.5.4 7.1-1.9l13.2-27.2 5.5-11.5c3.7-7.7 6.3-15.8 7.7-24.1.9-5.2 1.3-10.5 1.3-15.8h-24.4z"/><path id="Fill-40" class="st4" d="M154.2 162l18.8 7.9-3.1 33.1-21.9-14.2z"/><path id="Fill-42" class="st4" d="M30.7 71.1c-5.6 7.5-16.2 9.1-23.8 3.5C-.6 69-2.2 58.4 3.4 50.8c5.6-7.5 16.2-9.1 23.8-3.5 7.5 5.6 9 16.3 3.5 23.8"/><path id="Fill-45" class="st4" d="M55 43c-5.3 5.3-13.8 5.3-19.1 0-5.3-5.3-5.3-13.8 0-19.1 5.3-5.3 13.8-5.3 19.1 0 5.3 5.3 5.3 13.9 0 19.1"/><path id="Fill-47" class="st4" d="M50 46.7C38.9 51 36.4 52.7 32.6 67L12 46.2C26.4 42.5 28.6 40 32.9 29L50 46.7z"/><path id="Fill-49" class="st0" d="M61 36c0 6.6-5.4 12-12 12-2.6 0-5.1-.8-7.1-2.3-3-2.2-4.9-5.7-4.9-9.7 0-6.6 5.4-12 12-12h.8C56 24.4 61 29.6 61 36"/><path id="Fill-51" class="st4" d="M52 22.6c-1.2-.1-2.5-.3-3.9-.6-.5.3-1.1.4-1.9.4-.5 0-.9-.1-1.3-.2L40 25.6c-3.6 2-6.1 6-6.1 10.5 0 3.6 1.5 6.7 3.9 8.9.5.6-.5 2.4.1 2.9L44.2 31l7.3-7.3c.3-.3-.9.9-.7.5 0 0 1.3-1.6 1.2-1.6"/><path id="Fill-53" class="st0" d="M41.1 38L35 59.2 49 63l-.4-19.2z"/><path id="Fill-55" class="st4" d="M56.8 12.2c-.7-2.7-3.6-4.7-6.4-4.1-2.7.5-4.8 3.4-4.5 6.2.3 2.2 1.7 4.3 1 6.3-1 2.8-5.4 3-6.6 5.7l-.3.9c1.1.6 2.2 1.4 3.1 2.3.2.2.3.4.4.5l1.8-1.2c4.6-3.2 9.6-6.8 11.2-12.3.5-1.4.7-2.9.3-4.3"/><path id="Fill-57" class="st0" d="M45 35c0 2.2-1.8 4-4 4s-4-1.8-4-4 1.8-4 4-4 4 1.8 4 4"/><path id="Fill-59" d="M66.1 120.2c-2 1.4-4.1 2.2-6.4 2.6-1.5.2-3 .3-4.4.1-4.2-.5-8.2-2.7-10.8-6.3l-1.7-2.4c-4.9-6.9-3.3-16.5 3.7-21.4l32.4-22.9c6.9-4.9 16.6-3.3 21.6 3.6l1.7 2.4c4.9 6.9 3.3 16.5-3.7 21.4l-32.4 22.9z" fill-rule="evenodd" clip-rule="evenodd" fill="#eefff7"/><path id="Fill-61" class="st0" d="M81.1 90.1l-1.4-2c-3-4.2-2-10 2.2-13l2-1.4c4.2-3 10-2 13 2.2l1.4 2c3 4.2 2 10-2.2 13l-2 1.4c-4.2 3-10 2-13-2.2"/><path id="Fill-63" class="st4" d="M71 75l2 40-4 3-2-40z"/><path id="Fill-65" class="st4" d="M58 84l2 37.8c-1.4.2-2.8.3-4.2.1L54 87l4-3z"/><path id="Fill-67" class="st0" d="M96.7 105.2c0-.1 0-.1 0 0-.6-1.6-2-2.8-3.5-3l-30.6-2.3c-2.3-.6-4.6-1.9-6.4-3.9 0 0-20.1-22.7-21.5-23.6-2.5-1.5-5.7-1.8-8.5-.4h-.1c-4.5 2.2-6.3 7.7-4.1 12.2 1 2.1 30.4 26.6 30.4 26.6 2.6 2.4 5.9 3.6 8.7 3.2l34-5.1c1.6-.3 2.3-2 1.6-3.7"/><path id="Fill-69" class="st0" d="M121.1 23.2c.7 8.3 7.9 14.4 16.2 13.7 3.3-.3 6.2-1.6 8.6-3.6.6-.5 1.2-1.1 1.7-1.7 2.4-2.9 3.8-6.8 3.5-10.9-.5-6-4.4-10.9-9.7-12.8-.9-.3-1.8-.6-2.7-.7-1.2-.2-2.5-.3-3.7-.2-.3 0-.6.1-1 .1-2.6.4-5 1.4-7 3-4 3-6.4 7.9-5.9 13.1"/><path id="Fill-71" d="M123.3.1c1.9-.3 3.8.3 5.1 1.7.6.7 1 1.4 1.3 2.1.4 1.1 1.6 1.9 2.8 1.9 2.2.1 4.4.2 6.6.6.2 0 .4 0 .6.1.9.2 1.8.4 2.6.7 5.2 2 9.1 6.8 9.6 12.8.3 4.1-1 7.9-3.4 10.8-.1.1-.1.2-.2.2l-10.5-10.5-.4 1.1v.1l-.1.2c-.3.7-.9 1.1-1.6 1.2-1.1 0-1.9-.8-1.9-1.9l.2-5.3v-.3c-.1-1.7-1.6-2.9-3.3-2.8-1.8.2-4 .7-5.7 0-.1-.1-.2 0-.1 0-6.2-.9-8.7-11.6-1.6-12.7" fill-rule="evenodd" clip-rule="evenodd" fill="#195b3d"/><path id="Fill-75" class="st0" d="M137 21.3c.2 2.2 2.1 3.8 4.3 3.7 2.2-.2 3.8-2.1 3.7-4.3-.2-2.2-2.1-3.8-4.3-3.7-2.2.2-3.9 2.1-3.7 4.3"/><path class="st0" d="M176 294.2c-.2-3.4-.7-10.2-.7-10.2s-.7-7.8-.9-11H157c.8 4 3.3 14.1 3.5 15.2l-8.9 2.6c-.1.2-.2.3-.3.5-.2.4-.3.9-.3 1.3s.1.9.2 1.3c.2.4.4.8.8 1.2.2.2.3.3.5.4.2.1.3.2.4.3.3.3.1.2.9-.1l22.2-1.1v-.4zm-41.5.4v-.4c-.2-3.2-.5-11-.6-11.6-.2-3.2-.3-6.4-.5-9.6H116c.8 4 2.3 12 2.3 12 .2 1.1.4 2.1.6 3.2l-8.9 2.6c-.1.2-.2.3-.3.5-.2.4-.3.9-.3 1.3 0 .5.1.9.3 1.3.2.4.4.8.8 1.1.2.2.3.3.5.4.2.1.3.2.4.3.3.3.1.2.9-.1l22.2-1z"/></svg>